{"glyphs":{"0":{"ha":722,"x_min":0,"x_max":0,"o":"m 361 889 b 40 435 136 889 40 650 b 361 -19 40 211 136 -19 b 682 435 586 -19 682 211 b 361 889 682 650 586 889 z m 243 435 b 361 825 243 558 256 825 b 479 435 467 825 479 558 b 361 44 479 311 467 44 b 243 435 256 44 243 311 z "},"1":{"ha":722,"x_min":0,"x_max":0,"o":"m 458 714 b 463 879 458 783 460 847 b 443 894 460 890 450 894 b 319 850 433 894 381 868 b 142 811 264 835 199 819 b 144 763 131 803 132 769 l 208 754 b 275 633 269 746 275 725 l 275 179 b 199 49 275 68 267 54 l 142 44 b 144 -4 129 36 131 0 b 369 0 194 -1 278 0 b 589 -4 456 0 539 -1 b 592 44 603 0 604 36 l 535 49 b 458 179 467 54 458 68 z "},"2":{"ha":722,"x_min":0,"x_max":0,"o":"m 307 143 b 281 160 288 143 281 151 b 354 247 281 171 293 190 l 421 310 b 631 653 588 467 631 544 b 368 889 631 783 531 889 b 49 672 233 889 106 813 b 94 653 51 650 78 642 b 274 781 139 729 194 781 b 425 611 367 781 425 707 b 243 240 425 463 339 346 b 28 26 160 149 81 75 b 42 -4 25 14 29 -1 b 197 0 65 -1 125 0 l 418 0 b 613 -4 507 0 557 -1 b 681 211 636 29 668 125 b 633 219 675 229 643 229 b 475 143 593 146 576 143 z "},"3":{"ha":722,"x_min":0,"x_max":0,"o":"m 296 801 b 410 700 364 801 410 751 b 351 575 410 638 376 596 b 128 463 296 529 183 483 b 160 396 115 431 132 401 b 297 454 194 428 240 454 b 460 242 396 454 460 365 b 274 -8 460 71 333 -8 b 214 24 254 -8 231 -1 b 121 97 201 42 171 97 b 38 21 65 97 38 58 b 188 -78 38 -50 113 -78 b 508 33 263 -78 389 -53 b 668 317 619 115 668 217 b 435 532 668 450 560 536 b 422 550 417 532 407 543 b 597 729 574 615 597 672 b 376 889 597 822 513 889 b 86 713 251 889 142 825 b 125 686 86 696 106 681 b 296 801 167 749 229 801 z "},"4":{"ha":722,"x_min":0,"x_max":0,"o":"m 385 179 b 308 49 385 65 376 54 l 251 44 b 254 -4 239 36 240 0 b 476 0 301 -1 385 0 b 664 -4 540 0 614 -1 b 667 44 678 0 679 36 l 638 47 b 568 179 576 53 568 65 l 568 218 b 600 258 568 254 571 258 l 692 258 b 692 336 713 271 713 325 l 600 336 b 568 376 571 336 568 340 l 568 640 b 550 664 568 654 563 664 b 415 621 526 664 451 636 b 385 571 393 613 385 603 l 385 376 b 353 336 385 340 382 336 l 182 336 b 151 365 138 336 139 347 l 568 943 b 554 981 589 971 578 981 l 514 981 b 468 947 494 981 483 969 l 17 303 b 32 258 11 285 15 265 l 353 258 b 385 218 382 258 385 254 z "},"5":{"ha":722,"x_min":0,"x_max":0,"o":"m 229 864 b 167 822 185 858 176 858 l 83 503 b 125 456 75 471 81 458 b 472 225 264 444 472 424 b 343 38 472 150 425 86 b 65 -25 278 -1 165 -21 b 74 -90 47 -37 53 -81 b 450 1 190 -87 335 -61 b 650 301 565 64 650 157 b 503 533 650 417 581 494 b 219 601 422 574 293 593 b 182 642 192 604 174 610 l 190 674 b 222 714 196 697 203 711 l 536 749 b 613 892 571 782 600 839 b 597 908 613 901 608 908 z "},"6":{"ha":722,"x_min":0,"x_max":0,"o":"m 40 353 b 372 -19 40 135 161 -19 b 690 288 565 -19 690 106 b 440 550 690 421 613 550 b 301 489 392 550 326 518 b 311 464 300 479 303 469 b 343 465 324 465 333 467 b 501 201 463 465 501 296 b 396 44 501 136 479 44 b 243 365 292 44 243 218 b 347 719 243 494 274 628 b 668 914 425 815 499 872 b 664 963 682 931 679 954 b 222 772 497 954 329 875 b 40 353 111 665 40 510 z "},"7":{"ha":722,"x_min":0,"x_max":0,"o":"m 235 869 b 68 874 147 869 114 871 b 14 665 56 821 38 733 b 61 656 19 650 50 643 b 188 724 93 714 107 724 l 482 724 b 522 701 503 724 522 719 b 476 592 522 678 507 646 l 111 -43 b 178 -86 114 -74 154 -90 l 578 622 b 715 851 636 725 681 800 b 703 874 717 860 713 871 b 501 869 685 871 589 869 z "},"8":{"ha":722,"x_min":0,"x_max":0,"o":"m 354 -19 b 674 221 572 -19 674 90 b 488 481 674 354 592 428 b 639 672 561 522 639 574 b 371 889 639 804 528 889 b 86 650 199 889 86 786 b 233 436 86 551 147 483 b 50 206 124 381 50 310 b 354 -19 50 54 192 -19 z m 376 44 b 229 221 286 44 229 124 b 300 397 229 288 250 347 b 492 175 415 343 492 285 b 376 44 492 92 438 44 z m 368 825 b 483 675 424 825 483 771 b 417 524 483 608 460 550 b 256 696 303 572 256 631 b 368 825 256 771 304 825 z "},"9":{"ha":722,"x_min":0,"x_max":0,"o":"m 347 889 b 39 585 175 889 39 763 b 275 338 39 444 144 338 b 413 381 332 338 389 356 b 404 410 414 392 411 406 b 365 413 392 410 383 410 b 225 663 271 429 225 549 b 328 825 225 746 263 825 b 475 518 444 825 475 624 b 64 -37 475 263 335 29 b 69 -83 51 -47 53 -76 b 486 110 186 -79 371 3 b 678 532 604 218 678 364 b 347 889 678 725 560 889 z "}," ":{"ha":333,"x_min":0,"x_max":0,"o":""},"!":{"ha":353,"x_min":0,"x_max":0,"o":"m 176 897 b 65 838 104 897 65 885 b 88 675 65 815 74 772 l 146 285 b 207 285 163 274 190 274 l 265 675 b 288 838 279 772 288 815 b 176 897 288 885 249 897 z m 176 -19 b 289 93 243 -19 289 29 b 176 208 289 153 243 208 b 64 93 114 208 64 158 b 176 -19 64 25 121 -19 z "},"\"":{"ha":656,"x_min":0,"x_max":0,"o":"m 189 972 b 100 925 131 972 100 969 b 111 846 100 910 104 886 l 163 561 b 215 561 178 550 200 550 l 267 846 b 278 925 274 886 278 910 b 189 972 278 969 247 972 z m 467 972 b 378 925 408 972 378 969 b 389 846 378 910 382 886 l 440 561 b 493 561 456 550 478 550 l 544 846 b 556 925 551 886 556 910 b 467 972 556 969 525 972 z "},"#":{"ha":722,"x_min":0,"x_max":0,"o":"m 458 550 l 404 346 l 269 346 l 325 550 z m 683 550 l 696 640 l 571 640 l 632 867 l 542 867 l 482 640 l 350 640 l 411 867 l 322 867 l 263 640 l 118 640 l 101 550 l 239 550 l 185 346 l 40 346 l 25 257 l 161 257 l 94 4 l 176 4 l 246 257 l 381 257 l 314 4 l 397 4 l 467 257 l 597 257 l 613 346 l 490 346 l 546 550 z "},"$":{"ha":722,"x_min":0,"x_max":0,"o":"m 354 564 b 260 686 293 596 260 633 b 383 807 260 750 301 801 z m 394 351 b 499 200 468 313 499 258 b 361 64 499 125 454 71 z m 469 976 b 403 976 461 990 411 990 l 390 871 b 100 632 211 864 99 771 b 288 400 100 508 192 442 l 332 381 l 294 68 b 97 257 194 89 121 183 b 50 254 85 272 60 269 b 94 56 50 168 68 83 b 286 3 118 39 188 8 l 271 -129 b 338 -129 279 -143 329 -143 l 353 0 b 672 253 551 6 672 106 b 485 504 672 393 563 471 l 417 533 l 449 803 b 590 657 535 781 576 703 b 638 661 601 644 631 649 b 614 842 638 736 625 810 b 457 869 578 850 521 865 z "},"%":{"ha":1203,"x_min":0,"x_max":0,"o":"m 921 -17 b 1144 253 1085 -17 1144 143 b 921 522 1144 364 1085 522 b 697 253 757 522 697 364 b 921 -17 697 143 757 -17 z m 835 254 b 924 467 835 331 846 467 b 1007 254 1000 467 1007 326 b 924 39 1007 182 1000 39 b 835 254 846 39 835 179 z m 283 350 b 507 619 447 350 507 510 b 283 889 507 731 447 889 b 60 619 119 889 60 731 b 283 350 60 510 119 350 z m 197 621 b 286 833 197 697 208 833 b 369 621 363 833 369 693 b 286 406 369 549 363 406 b 197 621 208 406 197 546 z m 372 -56 b 886 875 540 254 713 565 b 824 908 879 899 844 911 b 310 -22 656 599 483 288 b 372 -56 319 -46 347 -61 z "},"&":{"ha":1146,"x_min":0,"x_max":0,"o":"m 435 889 b 203 668 322 889 203 808 b 293 501 203 601 243 540 b 78 229 221 471 78 390 b 375 -19 78 86 190 -19 b 656 117 504 -19 579 44 b 701 40 669 86 692 57 b 874 -19 719 11 776 -19 b 1150 92 1021 -19 1115 50 b 1133 126 1153 104 1144 122 b 1008 89 1113 113 1058 89 b 803 235 888 89 851 171 b 779 275 782 268 779 281 l 776 275 b 796 311 779 288 789 301 b 879 438 811 333 851 396 b 983 576 919 497 953 553 b 1076 618 1000 590 1031 611 l 1114 624 b 1111 672 1129 632 1126 667 b 838 664 1039 669 944 664 l 781 664 b 776 615 765 658 764 624 l 801 611 b 839 586 825 607 839 599 b 804 489 839 574 824 533 b 731 342 781 433 761 394 b 524 536 671 419 597 497 b 651 703 564 561 651 603 b 435 889 651 807 569 889 z m 263 282 b 356 449 263 393 349 449 b 389 429 363 449 372 440 b 596 221 447 392 540 315 b 618 181 613 192 618 185 b 450 93 618 176 554 93 b 263 282 349 93 263 164 z m 521 722 b 461 578 521 642 475 583 b 354 726 450 581 354 628 b 438 828 354 785 390 828 b 521 722 494 828 521 774 z "},"’":{"ha":351,"x_min":0,"x_max":0,"o":"m 158 972 b 63 886 106 972 63 933 b 104 825 63 854 81 832 b 181 739 138 817 181 797 b 63 610 181 674 113 628 b 76 567 47 600 53 569 b 296 803 192 593 296 674 b 158 972 296 924 215 972 z "},"(":{"ha":472,"x_min":0,"x_max":0,"o":"m 251 375 b 458 950 251 576 308 815 b 435 976 458 963 451 975 b 117 375 218 858 117 611 b 435 -226 117 139 218 -108 b 458 -200 451 -225 458 -212 b 251 375 308 -65 251 174 z "},")":{"ha":472,"x_min":0,"x_max":0,"o":"m 221 375 b 14 -200 221 174 164 -65 b 38 -226 14 -212 21 -225 b 356 375 254 -108 356 139 b 38 976 356 611 254 858 b 14 950 21 975 14 963 b 221 375 164 815 221 576 z "},"*":{"ha":563,"x_min":0,"x_max":0,"o":"m 321 749 l 303 933 b 260 933 293 940 271 940 l 242 749 l 65 839 b 47 799 51 832 43 813 l 207 686 l 47 574 b 65 535 43 560 51 540 l 242 624 l 260 440 b 303 440 269 433 294 433 l 321 624 l 494 535 b 514 578 508 542 518 561 l 357 686 l 515 797 b 493 840 518 817 508 836 z "},"+":{"ha":722,"x_min":0,"x_max":0,"o":"m 424 0 l 424 246 l 640 246 l 640 346 l 424 346 l 424 567 l 301 567 l 301 346 l 83 346 l 83 246 l 301 246 l 301 0 z "},",":{"ha":361,"x_min":0,"x_max":0,"o":"m 161 233 b 61 143 106 233 61 193 b 104 81 61 111 81 88 b 185 -10 139 71 185 51 b 61 -144 185 -78 114 -125 b 76 -189 46 -154 51 -186 b 304 54 196 -161 304 -83 b 161 233 304 183 221 233 z "},"-":{"ha":456,"x_min":0,"x_max":0,"o":"m 63 329 b 42 272 51 315 42 299 b 63 217 42 247 51 228 l 396 247 b 414 301 407 261 414 283 b 394 360 414 325 407 346 z "},".":{"ha":361,"x_min":0,"x_max":0,"o":"m 181 -19 b 293 93 247 -19 293 29 b 181 208 293 153 247 208 b 68 93 118 208 68 158 b 181 -19 68 25 125 -19 z "},"/":{"ha":471,"x_min":0,"x_max":0,"o":"m 443 939 l 318 939 l 28 -22 l 153 -22 z "},":":{"ha":361,"x_min":0,"x_max":0,"o":"m 181 -19 b 293 93 247 -19 293 29 b 181 208 293 153 247 208 b 68 93 118 208 68 158 b 181 -19 68 25 125 -19 z m 181 319 b 293 428 247 319 293 365 b 181 547 293 492 247 547 b 68 428 118 547 68 496 b 181 319 68 361 125 319 z "},";":{"ha":361,"x_min":0,"x_max":0,"o":"m 161 233 b 61 143 106 233 61 193 b 104 81 61 111 81 88 b 185 -10 139 71 185 51 b 61 -144 185 -78 114 -125 b 76 -189 46 -154 51 -186 b 304 54 196 -161 304 -83 b 161 233 304 183 221 233 z m 181 319 b 293 428 247 319 293 365 b 181 547 293 492 247 547 b 68 428 118 547 68 496 b 181 319 68 361 125 319 z "},"<":{"ha":722,"x_min":0,"x_max":0,"o":"m 92 328 l 92 246 l 632 0 l 632 114 l 235 286 l 235 289 l 632 460 l 632 575 z "},"=":{"ha":722,"x_min":0,"x_max":0,"o":"m 640 147 l 640 247 l 83 247 l 83 147 z m 640 347 l 640 447 l 83 447 l 83 347 z "},">":{"ha":722,"x_min":0,"x_max":0,"o":"m 92 575 l 92 460 l 489 289 l 489 286 l 92 114 l 92 0 l 632 246 l 632 328 z "},"?":{"ha":461,"x_min":0,"x_max":0,"o":"m 76 446 b 138 282 76 389 114 314 b 183 289 149 271 176 276 b 169 364 174 317 169 343 b 226 424 169 386 189 407 l 318 465 b 406 614 369 489 406 533 b 153 897 406 765 281 897 b 56 811 94 897 56 857 b 132 722 56 749 106 722 b 333 661 279 722 333 703 b 267 611 333 642 308 629 l 201 583 b 76 446 121 549 76 524 z m 182 -19 b 294 93 249 -19 294 29 b 182 208 294 153 249 208 b 69 93 119 208 69 158 b 182 -19 69 25 126 -19 z "},"@":{"ha":1068,"x_min":0,"x_max":0,"o":"m 613 751 b 56 225 318 751 56 549 b 531 -208 56 -71 286 -208 b 801 -144 611 -208 718 -190 b 789 -100 810 -132 803 -106 b 575 -146 744 -118 681 -146 b 188 224 272 -146 188 72 b 613 689 188 465 356 689 b 946 374 797 689 946 565 b 703 113 946 208 815 113 b 683 160 674 113 671 125 b 840 531 701 206 824 489 b 767 550 824 543 796 550 b 744 547 758 550 751 549 l 711 485 b 664 507 704 499 686 507 b 390 335 560 507 453 413 b 285 118 311 233 285 144 b 346 57 285 88 304 57 b 597 218 404 57 526 132 l 600 217 l 571 140 b 558 96 564 121 558 108 b 651 57 558 85 571 57 b 1019 376 886 57 1019 196 b 613 751 1019 574 876 751 z m 526 193 b 443 140 476 147 454 140 b 429 160 435 140 429 146 b 569 418 429 213 496 351 b 638 461 604 449 626 461 b 679 426 660 461 672 444 b 526 193 664 375 582 244 z "},"A":{"ha":867,"x_min":0,"x_max":0,"o":"m 450 314 b 517 289 499 314 510 311 l 554 169 b 581 75 571 118 581 85 b 543 51 581 67 575 57 l 499 44 b 501 -4 483 33 486 4 b 689 0 565 -1 619 0 b 903 -4 761 0 836 -1 b 904 44 915 4 913 38 l 851 53 b 758 176 800 61 788 93 l 569 721 b 507 911 535 819 518 871 b 475 939 501 932 493 939 b 354 856 472 939 421 871 b 300 679 358 815 332 767 l 175 340 b 89 118 138 240 113 174 b 4 49 65 64 38 53 l -33 44 b -29 -4 -43 33 -44 4 b 114 0 35 -4 67 0 b 276 -4 172 -1 228 -1 b 279 44 290 3 288 35 l 238 51 b 188 75 199 58 188 67 b 197 125 188 86 189 97 l 249 286 b 294 314 257 313 261 314 z m 322 388 b 293 429 288 388 281 392 l 328 533 b 385 686 349 597 371 656 b 435 540 397 657 415 600 l 471 428 b 443 388 482 392 475 388 z "},"B":{"ha":882,"x_min":0,"x_max":0,"o":"m 158 200 b 88 53 158 75 150 65 l 47 44 b 47 -4 36 40 36 4 b 263 0 126 -1 194 0 b 406 -6 303 0 356 -6 b 682 29 490 -6 594 -1 b 844 263 769 60 846 135 b 640 493 843 397 750 469 b 621 504 628 496 621 500 b 649 519 621 511 635 517 b 790 693 692 531 790 576 b 694 869 790 775 754 833 b 411 921 633 906 544 921 b 65 908 272 921 171 915 b 60 858 44 907 47 865 l 97 853 b 158 690 156 844 158 831 z m 350 785 b 417 857 350 846 351 857 b 588 676 513 857 588 797 b 424 517 588 593 543 517 b 350 556 351 517 350 519 z m 350 399 b 426 456 350 454 350 456 b 629 250 560 456 629 371 b 472 58 629 138 575 58 b 350 235 364 58 350 126 z "},"C":{"ha":957,"x_min":0,"x_max":0,"o":"m 608 939 b 224 815 464 939 322 897 b 56 447 128 736 56 617 b 232 83 56 275 132 160 b 606 -22 331 10 469 -22 b 888 29 714 -22 813 8 b 940 247 907 61 931 144 b 888 257 932 264 899 268 b 604 42 850 163 772 42 b 278 467 438 42 278 190 b 597 875 278 743 443 875 b 858 676 732 875 821 806 b 911 686 868 664 906 669 b 894 903 899 767 894 878 b 608 939 853 906 750 939 z "},"D":{"ha":1101,"x_min":0,"x_max":0,"o":"m 158 200 b 88 51 158 72 150 61 l 44 44 b 44 -4 33 38 33 4 b 261 0 124 -1 194 0 b 446 -8 311 0 381 -8 b 797 57 589 -8 703 10 b 1046 472 957 136 1046 286 b 764 875 1046 646 946 810 b 440 921 668 910 554 921 b 68 908 293 921 185 915 b 65 860 51 907 51 867 l 92 857 b 158 692 156 850 158 824 z m 357 758 b 367 839 357 801 358 828 b 439 857 375 850 401 857 b 822 458 690 857 822 708 b 500 56 822 269 740 56 b 385 96 450 56 410 68 b 357 251 360 125 357 175 z "},"E":{"ha":824,"x_min":0,"x_max":0,"o":"m 357 799 b 403 853 357 850 357 853 l 514 853 b 650 810 582 853 624 836 b 703 700 668 790 688 749 b 754 706 717 688 749 690 b 736 921 747 799 738 899 b 550 917 718 918 639 917 l 256 917 b 56 921 189 917 121 918 b 53 872 42 913 40 881 l 88 865 b 158 718 150 853 158 844 l 158 200 b 88 54 158 72 150 64 l 22 44 b 22 -4 11 38 11 4 b 261 0 126 -1 194 0 l 442 0 b 763 -4 556 0 689 -1 b 821 218 782 33 815 146 b 769 225 815 235 781 240 b 525 64 693 68 646 64 b 379 100 424 64 397 75 b 357 232 363 124 357 168 l 357 397 b 396 440 357 439 358 440 l 492 440 b 594 363 564 440 581 429 l 601 328 b 653 329 611 315 646 317 b 649 476 650 374 649 424 b 653 624 649 529 650 579 b 601 625 646 636 611 636 l 594 590 b 492 514 581 524 564 514 l 396 514 b 357 556 358 514 357 517 z "},"F":{"ha":761,"x_min":0,"x_max":0,"o":"m 357 796 b 403 853 357 850 357 853 l 511 853 b 647 807 582 853 624 836 b 688 699 661 789 672 756 b 740 704 704 688 735 689 b 738 921 738 797 738 897 b 550 917 718 918 639 917 l 258 917 b 63 921 192 917 122 918 b 60 872 47 915 47 881 l 88 868 b 158 717 150 858 158 846 l 158 200 b 88 51 158 71 150 61 l 42 44 b 42 -4 31 36 31 4 b 258 0 125 -1 194 0 b 479 -4 325 0 393 -1 b 479 44 489 4 489 36 l 428 51 b 357 200 365 60 357 71 l 357 388 b 396 429 357 425 358 429 l 503 429 b 606 351 576 429 592 418 l 613 318 b 665 319 622 306 657 307 b 661 464 663 361 661 413 b 665 613 661 517 663 568 b 613 614 657 625 622 626 l 606 581 b 503 503 592 513 576 503 l 396 503 b 357 544 358 503 357 507 z "},"G":{"ha":1019,"x_min":0,"x_max":0,"o":"m 921 235 b 971 331 921 310 929 324 l 1003 336 b 1003 385 1014 344 1014 376 b 821 381 956 382 888 381 b 586 385 753 381 685 382 b 586 336 571 376 571 344 l 647 328 b 722 235 714 318 722 310 l 722 147 b 626 42 722 57 706 42 b 436 94 575 42 503 50 b 278 472 346 156 278 274 b 606 875 278 692 385 875 b 867 679 735 875 822 810 b 919 682 876 665 914 667 b 900 906 906 767 904 864 b 625 939 856 906 779 939 b 300 865 507 939 394 917 b 56 446 133 772 56 619 b 329 26 56 246 167 92 b 603 -22 428 -12 508 -22 b 849 11 681 -22 800 -4 b 946 32 886 24 922 28 b 950 65 954 36 956 60 b 921 157 924 71 921 99 z "},"H":{"ha":1119,"x_min":0,"x_max":0,"o":"m 704 440 b 763 400 763 440 763 439 l 763 200 b 692 49 763 71 756 57 l 661 44 b 661 -4 650 36 650 4 b 865 0 728 -1 796 0 b 1067 -4 929 0 997 -1 b 1067 44 1078 4 1078 36 l 1033 50 b 961 200 969 61 961 71 l 961 717 b 1033 868 961 846 969 858 l 1061 872 b 1061 921 1072 881 1072 913 b 865 917 997 918 933 917 b 654 921 799 917 731 918 b 654 872 643 913 643 881 l 692 867 b 763 717 756 857 763 846 l 763 556 b 704 514 763 515 763 514 l 415 514 b 357 556 358 514 357 515 l 357 717 b 425 868 357 846 365 860 l 454 872 b 454 921 465 881 465 913 b 261 917 393 918 324 917 b 54 921 194 917 122 918 b 54 872 43 913 43 881 l 88 868 b 158 717 151 860 158 846 l 158 200 b 88 49 158 71 151 57 l 54 44 b 54 -4 43 36 43 4 b 261 0 125 -1 194 0 b 472 -4 324 0 393 -1 b 472 44 483 4 483 36 l 428 50 b 357 200 365 58 357 71 l 357 400 b 415 440 357 439 358 440 z "},"I":{"ha":515,"x_min":0,"x_max":0,"o":"m 357 714 b 429 865 357 844 365 854 l 468 872 b 468 921 479 881 479 913 b 258 917 393 918 324 917 b 47 921 192 917 122 918 b 47 872 36 913 36 881 l 86 865 b 158 714 150 854 158 844 l 158 203 b 86 51 158 72 150 63 l 47 44 b 47 -4 36 36 36 4 b 258 0 122 -1 192 0 b 467 -4 324 0 392 -1 b 468 44 478 4 479 36 l 429 51 b 357 203 365 63 357 72 z "},"J":{"ha":532,"x_min":0,"x_max":0,"o":"m 186 192 b 174 -81 186 44 176 -57 b 129 -194 168 -129 161 -194 b 68 -160 114 -194 92 -178 b -3 -125 44 -142 19 -125 b -42 -143 -18 -125 -31 -132 b -78 -224 -61 -162 -78 -197 b 28 -279 -78 -271 -11 -281 b 353 -57 204 -272 306 -179 b 385 211 376 6 385 101 l 385 714 b 457 865 385 844 393 853 l 493 872 b 493 921 504 881 504 913 b 285 917 421 918 351 917 b 61 921 219 917 150 918 b 61 872 50 913 50 881 l 114 864 b 186 714 178 854 186 844 z "},"K":{"ha":993,"x_min":0,"x_max":0,"o":"m 357 717 b 428 867 357 846 365 858 l 467 872 b 467 921 479 881 479 913 b 257 917 393 918 324 917 b 49 921 188 917 118 918 b 49 872 33 913 33 881 l 88 867 b 158 717 150 858 158 846 l 158 200 b 88 50 158 71 150 58 l 49 44 b 49 -4 38 36 38 4 b 257 0 122 -1 194 0 b 467 -4 324 0 393 -1 b 467 44 478 4 478 35 l 428 50 b 357 200 365 58 357 71 l 357 346 b 390 440 357 421 358 440 b 494 331 421 440 444 407 l 568 218 b 649 94 582 197 640 107 b 660 67 657 82 660 72 b 636 53 660 61 651 57 l 601 44 b 604 -4 586 36 586 1 b 822 0 682 -1 751 0 b 1022 -4 886 0 953 -1 b 1026 44 1035 3 1035 32 l 982 51 b 879 117 943 57 917 67 b 633 479 785 242 703 375 b 583 565 592 542 583 558 b 601 597 583 571 588 582 l 665 669 b 871 847 756 772 815 825 b 990 872 900 860 942 867 b 983 921 1001 883 1000 915 b 815 917 928 918 867 917 b 643 921 765 917 714 918 b 638 872 625 915 622 882 l 669 867 b 693 849 688 864 693 854 b 675 813 693 843 688 831 b 489 576 631 747 563 665 b 382 496 467 549 411 496 b 357 547 365 496 357 501 z "},"L":{"ha":813,"x_min":0,"x_max":0,"o":"m 357 717 b 428 867 357 846 365 857 l 464 872 b 464 921 475 881 475 913 b 258 917 394 918 325 917 b 50 921 192 917 122 918 b 47 872 33 913 33 881 l 88 867 b 158 717 150 858 158 846 l 158 200 b 88 51 158 71 150 60 l 35 44 b 39 -4 24 36 26 4 b 258 0 125 -1 194 0 l 444 0 b 765 -4 558 0 692 -1 b 825 221 785 33 818 149 b 772 229 815 238 783 243 b 525 64 690 68 651 64 b 381 99 424 64 399 75 b 357 231 363 121 357 165 z "},"M":{"ha":1261,"x_min":0,"x_max":0,"o":"m 78 867 b 164 757 133 857 164 836 b 154 476 164 682 160 569 b 132 156 146 344 139 224 b 49 49 124 69 119 61 l 24 44 b 29 -4 11 38 11 1 b 186 0 85 -1 142 0 b 350 -4 239 0 299 -1 b 353 44 361 3 364 35 l 299 53 b 235 150 243 61 235 81 b 238 463 235 233 236 372 b 247 679 239 535 242 589 l 250 679 b 547 -11 328 499 493 161 b 583 -19 556 -17 571 -19 b 611 -10 594 -19 604 -15 b 917 679 703 225 814 457 l 919 679 l 919 521 l 922 160 b 858 50 922 75 922 58 l 817 44 b 821 -4 803 35 804 3 b 1026 0 888 -1 964 0 b 1218 -4 1094 0 1154 -1 b 1221 44 1232 1 1232 33 l 1176 50 b 1114 154 1122 57 1117 90 b 1103 765 1106 329 1103 479 b 1188 865 1103 839 1131 856 l 1228 872 b 1224 921 1239 886 1239 913 b 1064 917 1174 918 1110 917 b 915 921 1022 917 979 915 b 788 593 885 801 854 736 l 717 440 b 639 282 679 358 657 315 b 564 424 619 317 576 396 l 472 619 b 363 921 411 750 363 835 b 226 917 313 917 272 917 b 51 921 158 917 99 918 b 47 872 36 917 36 883 z "},"N":{"ha":1039,"x_min":0,"x_max":0,"o":"m 906 568 b 926 822 906 681 911 785 b 1001 868 939 851 965 863 l 1026 872 b 1026 921 1038 883 1035 913 b 871 917 972 918 922 917 b 685 921 814 917 760 918 b 685 872 676 913 674 883 l 722 867 b 803 822 760 861 790 851 b 824 568 818 785 824 681 l 824 376 b 818 314 824 351 824 328 b 685 467 786 346 746 394 l 568 604 b 339 921 443 753 353 858 b 222 917 310 918 269 917 b 31 921 165 917 96 918 b 25 872 17 917 15 883 l 64 867 b 143 819 113 860 132 843 b 153 701 151 800 153 778 l 153 349 b 133 94 153 236 149 132 b 57 49 122 65 94 56 l 33 44 b 33 -4 22 33 25 4 b 189 0 86 -1 138 0 b 375 -4 244 0 300 -1 b 375 44 383 4 386 33 l 336 50 b 256 94 300 56 268 65 b 235 349 240 132 235 236 l 235 618 b 242 707 235 669 235 693 b 393 529 267 686 313 628 l 714 132 b 826 -19 779 51 825 -19 b 908 13 860 -19 899 -4 b 906 236 906 58 906 146 z "},"O":{"ha":1094,"x_min":0,"x_max":0,"o":"m 551 939 b 56 451 261 939 56 726 b 538 -22 56 161 258 -22 b 1039 463 836 -22 1039 160 b 551 939 1039 744 840 939 z m 817 444 b 564 42 817 219 746 42 b 278 483 338 42 278 314 b 540 875 278 715 369 875 b 817 444 713 875 817 682 z "},"P":{"ha":835,"x_min":0,"x_max":0,"o":"m 158 200 b 88 50 158 71 150 61 l 49 43 b 51 -4 33 36 36 4 b 260 0 126 -1 193 0 b 472 -4 326 0 394 -1 b 472 43 488 4 488 36 l 428 50 b 357 200 365 60 357 71 l 357 786 b 411 857 357 842 360 857 b 589 643 536 857 589 746 b 450 422 589 540 565 458 b 454 385 440 414 443 392 b 499 383 469 383 482 383 b 801 644 572 383 801 417 b 632 885 801 779 717 853 b 378 921 574 907 496 921 b 57 908 257 921 149 915 b 54 861 42 899 42 868 l 97 856 b 158 692 156 849 158 832 z "},"Q":{"ha":1094,"x_min":0,"x_max":0,"o":"m 551 939 b 56 451 261 939 56 726 b 465 -18 56 179 238 1 b 539 -65 499 -21 513 -37 b 1040 -304 668 -199 840 -304 b 1239 -253 1108 -304 1188 -289 b 1226 -219 1243 -242 1239 -225 b 1167 -231 1208 -226 1186 -231 b 1063 -219 1143 -231 1103 -229 b 761 -19 957 -192 850 -103 b 749 13 743 -3 739 7 b 1039 461 928 79 1039 236 b 551 939 1039 746 840 939 z m 540 875 b 817 444 713 875 817 682 b 564 40 817 219 746 40 b 278 483 338 40 278 314 b 540 875 278 715 369 875 z "},"R":{"ha":922,"x_min":0,"x_max":0,"o":"m 158 200 b 88 51 158 72 150 63 l 50 44 b 50 -4 39 38 39 4 b 253 0 122 -1 183 0 b 457 -4 319 0 383 -1 b 457 44 467 4 467 38 l 419 51 b 349 200 357 63 349 72 l 349 371 b 400 401 349 399 351 401 b 474 353 435 401 457 390 b 582 138 506 279 538 211 b 851 -8 643 38 724 -8 b 961 4 894 -8 939 -6 b 956 40 968 13 968 33 b 863 79 935 42 899 50 b 647 426 796 136 739 240 b 654 457 640 442 640 450 b 801 665 718 489 801 542 b 679 871 801 754 760 824 b 407 921 626 903 525 921 b 63 908 275 921 167 915 b 60 860 46 901 46 867 l 97 854 b 158 692 156 846 158 831 z m 349 786 b 408 857 349 853 351 857 b 590 651 517 857 590 776 b 540 501 590 569 564 525 b 435 463 514 475 485 463 b 349 515 353 463 349 467 z "},"S":{"ha":703,"x_min":0,"x_max":0,"o":"m 663 260 b 467 539 663 413 553 493 l 375 588 b 249 746 306 624 249 682 b 390 875 249 815 299 875 b 574 703 490 875 550 774 b 628 707 586 689 621 690 b 603 906 628 800 614 875 b 556 917 586 908 574 911 b 397 939 500 933 443 939 b 75 674 196 939 74 831 b 285 403 75 536 185 453 b 474 182 368 361 474 294 b 324 42 474 113 426 42 b 85 260 206 42 113 169 b 32 256 74 275 42 274 b 76 31 32 161 50 61 b 313 -22 106 14 185 -22 b 663 260 522 -22 663 89 z "},"T":{"ha":896,"x_min":0,"x_max":0,"o":"m 354 200 b 283 51 354 71 346 58 l 221 44 b 221 -4 210 36 210 4 b 457 0 318 -1 390 0 b 679 -4 519 0 589 -1 b 679 44 689 4 689 36 l 624 51 b 553 200 561 60 553 71 l 553 813 b 590 853 553 849 557 853 l 674 853 b 821 699 778 853 797 788 b 872 703 828 688 865 690 b 893 942 869 782 879 894 b 872 951 890 946 881 951 b 854 947 864 951 860 950 b 729 917 842 918 821 917 l 213 917 b 96 946 107 917 103 922 b 76 951 90 950 83 951 b 57 944 69 951 63 949 b 11 708 47 890 40 804 b 63 696 19 690 46 688 b 235 853 104 797 133 853 l 321 853 b 354 813 354 853 354 846 z "},"U":{"ha":1028,"x_min":0,"x_max":0,"o":"m 151 369 b 254 56 151 218 182 115 b 529 -22 329 -6 424 -22 b 804 78 642 -22 743 13 b 893 413 881 163 893 282 l 893 568 b 914 822 893 681 899 786 b 989 868 926 851 953 860 l 1014 874 b 1014 921 1025 885 1022 913 b 858 917 961 918 910 917 b 672 921 801 917 747 918 b 672 874 664 913 661 885 l 710 867 b 790 822 747 860 778 851 b 811 568 806 786 811 681 l 811 400 b 579 54 811 210 757 54 b 350 396 368 54 350 233 l 350 717 b 421 868 350 846 358 857 l 454 874 b 454 921 465 882 465 913 b 251 917 388 918 319 917 b 49 921 185 917 115 918 b 46 874 33 913 35 882 l 81 867 b 151 717 143 854 151 846 z "},"V":{"ha":892,"x_min":0,"x_max":0,"o":"m 732 585 b 847 818 779 697 817 772 b 924 867 865 847 885 860 l 960 874 b 957 921 969 882 968 915 b 828 917 917 918 875 917 b 657 921 775 917 722 918 b 651 874 640 914 640 885 l 692 864 b 729 840 725 856 729 850 b 715 790 729 832 725 817 b 606 500 699 743 640 588 l 554 369 b 510 267 538 328 521 290 b 467 374 500 290 486 322 l 344 686 b 289 839 311 769 289 828 b 324 865 289 851 299 860 l 365 874 b 364 921 374 886 375 913 b 156 917 279 918 219 917 b -33 921 83 917 38 919 b -39 874 -46 914 -50 889 l 17 860 b 121 713 61 849 68 846 l 346 147 b 404 -11 365 100 389 26 b 442 -22 413 -18 425 -22 b 490 -11 463 -22 479 -18 b 631 344 522 67 560 176 z "},"W":{"ha":1333,"x_min":0,"x_max":0,"o":"m 1404 872 b 1400 921 1414 883 1413 914 b 1272 917 1361 918 1321 917 b 1131 921 1231 917 1175 918 b 1126 872 1118 914 1115 885 l 1157 864 b 1183 844 1175 858 1183 854 b 1146 726 1183 829 1156 750 b 947 224 1079 557 1014 385 b 886 360 939 243 922 283 l 821 500 b 810 535 811 522 810 531 b 840 607 810 542 828 582 b 926 764 858 643 893 707 b 1032 863 975 847 985 853 l 1071 871 b 1069 921 1083 881 1081 914 b 928 917 1033 918 982 917 b 792 921 882 917 832 918 b 788 872 779 914 778 882 l 829 863 b 857 843 851 857 857 853 b 819 740 857 835 843 793 l 807 713 b 765 625 793 682 779 654 b 726 710 753 650 739 681 l 685 806 b 672 847 678 821 672 836 b 710 867 672 857 693 863 l 733 872 b 728 921 743 879 744 917 b 568 917 692 918 639 917 b 393 921 507 917 453 918 b 389 872 378 915 375 883 l 403 871 b 497 786 456 865 465 856 l 631 493 b 639 456 636 479 639 464 b 621 394 639 447 631 417 l 603 354 b 536 219 575 292 553 250 b 467 368 519 253 506 282 l 329 675 b 257 847 286 772 257 838 b 292 868 257 857 267 864 l 317 872 b 314 921 331 881 325 915 b 146 917 261 918 207 917 b -35 921 75 917 17 918 b -40 872 -50 914 -51 886 l -6 865 b 86 767 40 856 49 849 l 314 269 b 439 -18 361 165 417 40 b 475 -29 451 -25 460 -29 b 521 -18 496 -29 514 -25 b 579 113 543 28 558 68 l 644 254 b 692 350 663 293 679 326 b 742 243 704 329 722 288 l 800 111 b 853 -11 817 72 838 22 b 890 -22 863 -18 875 -22 b 936 -11 908 -22 928 -18 b 1229 678 1004 169 1161 515 b 1306 832 1267 765 1290 810 b 1363 863 1315 844 1331 856 z "},"X":{"ha":924,"x_min":0,"x_max":0,"o":"m -17 42 b -11 -4 -29 33 -25 3 b 135 0 31 -1 89 0 b 325 -4 193 0 264 -1 b 329 44 340 1 342 35 l 293 49 b 249 67 264 51 249 58 b 261 104 249 75 251 85 b 424 369 307 192 369 290 b 565 150 444 343 544 188 b 606 68 600 92 606 79 b 554 49 606 60 589 53 l 517 44 b 521 -4 503 38 508 1 b 754 0 596 -1 658 0 b 971 -4 867 0 910 -1 b 975 44 985 6 985 35 l 932 50 b 796 150 879 57 844 76 b 574 490 746 225 678 329 b 554 533 560 511 554 526 b 582 581 554 540 568 561 b 789 832 647 669 722 764 b 868 867 814 857 839 863 l 913 872 b 907 921 922 885 921 914 b 746 917 863 918 813 917 b 586 921 681 917 629 918 b 582 872 571 914 571 882 l 626 865 b 654 851 644 863 654 856 b 639 810 654 844 654 835 b 501 600 596 736 553 678 b 379 792 458 663 417 726 b 357 846 363 821 357 833 b 404 867 357 856 382 863 l 435 872 b 429 921 444 883 444 914 b 218 917 386 918 331 917 b 1 921 133 917 46 918 b 0 872 -12 913 -12 883 l 24 868 b 147 793 86 857 115 839 b 346 494 213 700 300 563 b 368 450 364 469 368 456 b 349 407 368 442 361 425 b 176 163 289 318 217 215 b 15 46 131 100 99 57 z "},"Y":{"ha":799,"x_min":0,"x_max":0,"o":"m 510 297 b 560 476 510 376 524 411 l 647 635 b 769 832 714 756 749 806 b 836 865 785 851 811 861 l 872 872 b 867 921 883 882 883 915 b 731 917 826 918 783 917 b 575 921 681 917 631 918 b 574 872 561 914 563 879 l 606 867 b 653 847 639 861 653 856 b 581 686 653 831 633 785 b 464 467 543 615 504 535 b 400 603 447 501 421 557 l 335 751 b 299 849 306 817 299 838 b 332 861 299 850 307 856 l 379 872 b 376 921 392 883 389 915 b 174 917 329 918 258 917 b -22 921 92 917 40 918 b -28 872 -39 917 -40 883 l 19 864 b 108 776 68 856 81 833 l 274 435 b 311 269 310 361 311 339 l 311 200 b 240 51 311 71 303 61 l 193 44 b 193 -4 182 36 182 4 b 411 0 275 -1 344 0 b 636 -4 478 0 546 -1 b 636 44 646 4 646 36 l 581 51 b 510 200 518 60 510 71 z "},"Z":{"ha":853,"x_min":0,"x_max":0,"o":"m 500 853 b 547 844 535 853 547 850 b 533 811 547 836 543 829 b 417 622 508 765 442 661 l 143 206 b 15 19 101 143 36 43 b 26 -4 13 11 17 0 b 167 0 49 -1 93 0 l 517 0 b 807 -4 614 0 690 -1 b 868 229 829 31 860 153 b 814 239 858 244 831 250 b 554 64 738 82 690 64 l 425 64 b 297 82 313 64 297 71 b 472 368 297 99 332 150 l 624 603 b 832 900 733 772 810 876 b 824 921 833 908 831 917 b 661 917 800 918 757 917 l 264 917 b 146 950 161 917 154 922 b 110 949 135 954 115 954 b 56 703 96 875 82 800 b 113 693 64 688 94 682 b 350 853 160 810 189 853 z "},"[":{"ha":472,"x_min":0,"x_max":0,"o":"m 168 -211 b 276 -212 200 -212 231 -212 b 429 -207 353 -212 408 -210 b 431 -164 440 -201 440 -169 l 335 -149 b 282 74 290 -142 282 -121 l 282 671 b 335 893 282 865 290 886 l 431 908 b 429 951 440 914 440 946 b 276 957 408 954 353 957 b 168 956 231 957 200 957 z "},"\\":{"ha":446,"x_min":0,"x_max":0,"o":"m 153 939 l 28 939 l 293 -22 l 418 -22 z "},"]":{"ha":472,"x_min":0,"x_max":0,"o":"m 304 956 b 196 957 272 957 242 957 b 43 951 119 957 64 954 b 42 908 32 946 32 914 l 138 893 b 190 671 182 886 190 865 l 190 74 b 138 -149 190 -121 182 -142 l 42 -164 b 43 -207 32 -169 32 -201 b 196 -212 64 -210 119 -212 b 304 -211 242 -212 272 -212 z "},"^":{"ha":722,"x_min":0,"x_max":0,"o":"m 640 339 l 410 869 l 315 869 l 83 339 l 208 339 l 363 704 l 517 339 z "},"_":{"ha":694,"x_min":0,"x_max":0,"o":"m 694 -104 l 0 -104 l 0 -174 l 694 -174 z "},"‘":{"ha":351,"x_min":0,"x_max":0,"o":"m 193 575 b 289 661 246 575 289 614 b 247 722 289 693 271 715 b 171 808 214 731 171 750 b 289 938 171 874 239 919 b 275 981 304 947 299 978 b 56 744 160 954 56 874 b 193 575 56 624 136 575 z "},"a":{"ha":615,"x_min":0,"x_max":0,"o":"m 525 374 b 347 575 532 517 464 575 b 114 490 249 575 161 528 b 47 383 81 464 47 419 b 79 349 47 364 56 349 b 179 381 104 349 158 365 b 203 425 192 390 200 403 b 275 504 213 485 242 504 b 356 385 335 504 356 438 b 353 338 356 368 354 353 b 319 310 351 326 344 317 b 189 271 281 299 242 288 b 44 126 88 240 44 197 b 200 -19 44 29 119 -19 b 318 25 251 -19 293 7 b 347 40 332 35 340 40 b 369 29 354 40 360 38 b 486 -19 407 -3 438 -19 b 647 56 565 -19 631 33 b 631 88 651 68 643 85 b 578 71 608 75 594 71 b 515 190 550 71 510 96 z m 346 139 b 293 71 344 96 336 71 b 222 154 254 71 222 110 b 339 251 222 219 276 243 b 349 226 349 253 350 249 z "},"b":{"ha":739,"x_min":0,"x_max":0,"o":"m 272 781 b 278 983 272 868 274 926 b 254 993 272 990 263 993 b 40 915 183 963 100 929 b 40 874 31 907 31 882 l 64 860 b 92 772 92 843 92 828 l 92 144 b 88 7 92 72 90 25 b 115 -3 94 0 106 -4 b 163 18 125 7 149 18 b 206 6 172 18 185 14 b 354 -19 232 -6 292 -19 b 696 297 554 -19 696 96 b 436 575 696 456 593 575 b 289 536 376 575 325 556 b 272 571 279 539 272 547 z m 272 408 b 285 472 272 442 275 465 b 340 488 296 481 315 488 b 504 254 436 488 504 393 b 382 44 504 143 472 44 b 300 92 347 44 318 64 b 272 196 279 122 272 160 z "},"c":{"ha":578,"x_min":0,"x_max":0,"o":"m 390 575 b 43 261 203 575 43 458 b 338 -19 43 97 163 -19 b 583 129 469 -19 553 60 b 547 160 583 151 564 161 b 424 92 517 108 475 92 b 225 313 296 92 225 203 b 364 511 225 408 274 511 b 507 407 414 511 468 463 b 529 400 510 403 522 400 b 565 479 546 400 565 438 b 536 551 565 517 554 536 b 390 575 499 565 438 575 z "},"d":{"ha":746,"x_min":0,"x_max":0,"o":"m 647 781 b 651 983 647 868 649 926 b 628 993 646 990 638 993 b 415 915 560 963 475 929 b 415 874 406 907 404 882 l 439 860 b 467 772 467 843 467 828 l 467 594 b 453 568 467 583 463 572 b 374 575 438 572 404 575 b 43 254 190 575 43 450 b 308 -19 43 104 150 -19 b 458 40 360 -19 410 10 b 471 29 464 44 469 40 l 467 -14 b 490 -33 469 -25 481 -33 b 740 17 494 -33 603 8 b 739 76 754 29 754 64 b 679 65 715 68 704 65 b 647 228 653 65 647 97 z m 467 143 b 450 90 467 118 465 100 b 393 74 432 79 413 74 b 238 292 279 74 238 200 b 378 511 238 438 307 511 b 457 460 410 511 440 489 b 467 413 463 449 467 435 z "},"e":{"ha":583,"x_min":0,"x_max":0,"o":"m 517 329 b 567 375 560 329 567 349 b 344 575 567 482 489 575 b 44 264 171 575 44 439 b 333 -19 44 113 146 -19 b 576 139 417 -19 519 21 b 540 171 576 163 556 174 b 411 99 503 107 450 99 b 215 304 282 99 215 200 b 250 329 215 326 218 329 z m 290 390 b 226 411 246 390 226 392 b 335 511 226 456 276 511 b 408 435 382 511 408 481 b 399 403 408 421 406 407 b 342 390 383 393 361 390 z "},"f":{"ha":432,"x_min":0,"x_max":0,"o":"m 457 481 b 475 528 469 489 475 510 b 465 556 475 540 472 551 l 333 556 b 297 594 299 556 297 557 l 297 751 b 356 921 297 881 319 921 b 454 829 372 921 394 906 b 510 804 464 818 481 804 b 590 879 557 804 590 833 b 428 993 590 951 508 993 b 156 814 272 993 196 906 b 117 585 126 746 117 644 b 86 549 117 567 104 558 l 26 518 b 31 481 19 511 22 486 l 82 481 b 117 442 114 481 117 479 l 117 161 b 61 44 117 61 111 50 l 39 42 b 40 -4 28 33 28 4 b 204 0 83 -1 142 0 b 393 -4 269 0 328 -1 b 394 42 406 4 406 33 l 349 46 b 297 161 303 50 297 61 l 297 442 b 333 481 297 479 299 481 z "},"g":{"ha":665,"x_min":0,"x_max":0,"o":"m 524 524 b 317 575 472 551 399 575 b 46 351 136 575 46 467 b 164 172 46 267 94 200 b 153 142 171 160 165 151 b 64 76 144 133 103 101 b 54 47 57 69 54 58 b 140 -64 54 -1 89 -47 b 139 -83 151 -67 156 -74 b 71 -126 124 -92 99 -110 b 26 -196 47 -140 26 -162 b 299 -374 26 -282 99 -374 b 542 -312 379 -374 469 -356 b 667 -103 614 -268 667 -190 b 451 65 667 38 556 65 b 282 63 386 65 329 63 b 211 113 240 63 211 82 b 235 146 211 129 221 140 b 292 142 250 144 269 142 b 576 385 511 142 576 275 b 572 433 576 408 575 421 l 675 433 b 696 489 689 442 696 467 b 683 524 696 504 693 515 z m 226 375 b 311 511 226 469 268 511 b 401 346 361 511 401 458 b 322 204 401 244 365 204 b 226 375 267 204 226 269 z m 385 -78 b 521 -190 461 -78 521 -110 b 375 -300 521 -257 463 -300 b 194 -144 265 -300 194 -239 b 214 -96 194 -126 200 -108 b 292 -78 226 -86 254 -78 z "},"h":{"ha":760,"x_min":0,"x_max":0,"o":"m 111 161 b 60 47 111 64 106 53 l 35 44 b 36 -4 24 36 24 4 b 199 0 83 -1 142 0 b 353 -4 265 0 310 -1 b 354 44 365 4 365 36 l 329 49 b 292 140 297 54 292 64 l 292 389 b 303 440 292 414 294 431 b 381 474 314 456 342 474 b 478 381 449 474 478 429 l 478 140 b 440 49 478 64 472 54 l 415 44 b 417 -4 404 36 404 4 b 567 0 447 -1 507 0 b 735 -4 633 0 692 -1 b 736 44 747 4 747 36 l 714 47 b 658 161 664 53 658 64 l 658 400 b 483 575 658 496 600 575 b 324 519 414 575 354 540 b 301 508 310 511 303 508 b 292 525 294 508 292 513 l 292 781 b 296 983 292 868 293 926 b 272 993 290 990 281 993 b 60 915 199 963 118 929 b 60 874 50 907 50 882 l 83 860 b 111 772 111 843 111 828 z "},"i":{"ha":397,"x_min":0,"x_max":0,"o":"m 297 417 b 301 582 297 479 299 540 b 276 594 296 590 288 594 b 71 514 235 569 136 532 b 71 472 61 506 61 481 l 90 460 b 117 371 117 443 117 426 l 117 161 b 65 47 117 64 111 51 l 39 44 b 40 -4 28 36 28 4 b 207 0 86 -1 144 0 b 374 -4 271 0 325 -1 b 375 44 386 4 386 36 l 349 47 b 297 161 303 51 297 64 z m 211 888 b 107 786 156 888 107 847 b 204 688 107 729 143 688 b 308 789 257 688 308 722 b 211 888 308 844 269 888 z "},"j":{"ha":390,"x_min":0,"x_max":0,"o":"m 299 417 b 303 582 299 479 300 540 b 278 594 297 590 289 594 b 72 514 235 569 138 532 b 72 472 63 506 63 481 l 92 460 b 118 371 118 443 118 426 l 118 44 b 39 -278 118 -125 93 -224 b -29 -328 26 -292 0 -312 b -10 -374 -37 -340 -31 -367 b 269 -150 169 -314 232 -249 b 299 74 290 -97 299 -22 z m 213 888 b 108 786 157 888 108 847 b 206 688 108 729 144 688 b 310 789 258 688 310 722 b 213 888 310 844 271 888 z "},"k":{"ha":739,"x_min":0,"x_max":0,"o":"m 106 161 b 50 47 106 64 100 53 l 24 44 b 25 -4 13 36 13 4 b 194 0 74 -1 131 0 b 361 -4 258 0 317 -1 b 363 44 374 4 374 36 l 340 47 b 286 161 292 53 286 64 l 286 242 b 303 275 286 268 293 275 b 338 254 317 275 328 269 l 436 104 b 460 60 447 88 460 65 b 438 49 460 54 451 51 l 419 44 b 425 -4 408 32 411 3 b 596 0 464 -1 514 0 b 771 -4 676 0 728 -1 b 776 44 785 1 788 35 l 756 49 b 674 81 719 56 693 63 b 492 346 639 113 517 301 b 482 369 485 357 482 365 b 490 388 482 374 483 379 b 583 468 510 407 531 428 b 676 517 621 497 650 511 l 721 526 b 715 575 731 538 729 568 b 453 556 633 563 518 556 l 419 556 b 417 507 406 550 404 519 l 451 501 b 478 488 464 500 478 494 b 444 432 478 479 471 464 l 386 364 b 306 325 358 332 329 325 b 286 344 290 325 286 329 l 286 781 b 290 983 286 868 288 926 b 267 993 285 990 275 993 b 54 915 196 963 111 929 b 54 874 44 907 44 882 l 78 860 b 106 772 106 843 106 828 z "},"l":{"ha":386,"x_min":0,"x_max":0,"o":"m 106 161 b 54 47 106 64 100 51 l 28 44 b 29 -4 17 36 17 4 b 196 0 78 -1 136 0 b 363 -4 258 0 317 -1 b 364 44 375 4 375 36 l 340 47 b 286 161 292 53 286 64 l 286 781 b 290 983 286 868 288 926 b 267 993 285 990 275 993 b 54 915 197 963 114 929 b 54 874 44 907 44 882 l 78 860 b 106 772 106 843 106 828 z "},"m":{"ha":1119,"x_min":0,"x_max":0,"o":"m 117 161 b 65 47 117 64 111 53 l 43 44 b 46 -4 32 36 32 4 b 204 0 88 -1 142 0 b 358 -4 271 0 315 -1 b 360 44 371 4 371 36 l 338 47 b 297 140 303 51 297 64 l 297 389 b 308 440 297 414 300 431 b 383 474 319 456 347 474 b 478 376 450 474 478 429 l 478 140 b 440 47 478 64 472 51 l 418 44 b 419 -4 407 36 407 4 b 567 0 456 -1 511 0 b 717 -4 629 0 674 -1 b 718 44 729 4 729 36 l 696 47 b 658 140 664 51 658 64 l 658 397 b 668 439 658 417 663 431 b 746 474 678 456 707 474 b 839 376 810 474 839 429 l 839 140 b 799 47 839 64 833 51 l 776 44 b 778 -4 765 36 765 4 b 929 0 815 -1 874 0 b 1092 -4 996 0 1049 -1 b 1093 44 1104 4 1104 36 l 1071 47 b 1019 161 1025 53 1019 64 l 1019 400 b 851 575 1019 496 961 575 b 693 521 776 575 724 538 b 649 497 667 507 654 497 b 615 522 640 497 632 503 b 490 575 583 558 540 575 b 331 519 424 575 361 538 b 304 508 322 515 308 508 b 297 519 300 508 297 511 b 301 582 297 529 301 563 b 276 594 296 590 288 594 b 71 514 233 569 135 532 b 71 472 61 506 61 481 l 90 460 b 117 371 117 443 117 426 z "},"n":{"ha":764,"x_min":0,"x_max":0,"o":"m 117 161 b 61 47 117 64 111 53 l 39 44 b 40 -4 28 36 28 4 b 204 0 89 -1 146 0 b 358 -4 271 0 315 -1 b 360 44 371 4 371 36 l 338 47 b 297 140 303 51 297 64 l 297 389 b 308 440 297 414 300 431 b 386 474 319 456 347 474 b 483 375 456 474 483 429 l 483 140 b 446 49 483 64 478 54 l 421 44 b 422 -4 410 36 410 4 b 572 0 463 -1 517 0 b 740 -4 639 0 697 -1 b 742 44 753 4 753 36 l 719 47 b 664 161 669 53 664 64 l 664 400 b 490 575 664 496 606 575 b 331 519 426 575 361 538 b 304 508 322 515 308 508 b 297 519 300 508 297 511 b 301 582 297 529 301 563 b 276 594 296 590 288 594 b 71 514 236 569 136 532 b 71 472 61 506 61 481 l 90 460 b 117 371 117 443 117 426 z "},"o":{"ha":717,"x_min":0,"x_max":0,"o":"m 354 -19 b 674 279 525 -19 674 76 b 363 575 674 475 526 575 b 43 267 199 575 42 465 b 354 -19 44 75 189 -19 z m 354 511 b 474 260 433 511 472 394 b 369 44 475 135 449 44 b 243 297 289 44 243 151 b 354 511 243 449 293 511 z "},"p":{"ha":754,"x_min":0,"x_max":0,"o":"m 107 -193 b 56 -307 107 -290 101 -303 l 28 -310 b 29 -358 17 -318 17 -350 b 194 -354 79 -356 133 -354 b 385 -358 260 -354 315 -356 b 386 -310 397 -350 397 -318 l 339 -306 b 288 -193 293 -301 288 -290 l 288 -56 b 308 -15 288 -26 296 -18 b 371 -19 321 -18 351 -19 b 711 310 574 -19 711 115 b 475 575 711 460 622 575 b 299 519 401 575 340 540 b 288 539 293 521 288 529 b 290 585 288 553 288 568 b 261 601 285 597 271 603 b 61 514 222 575 118 531 b 61 472 51 506 51 481 l 81 460 b 107 371 107 443 107 426 z m 288 379 b 303 460 288 433 296 451 b 361 479 314 474 338 479 b 519 265 453 479 519 401 b 386 44 519 136 472 44 b 319 76 364 44 338 57 b 288 157 299 97 288 126 z "},"q":{"ha":733,"x_min":0,"x_max":0,"o":"m 647 390 b 654 569 647 467 647 513 b 619 583 651 579 636 585 l 611 574 b 569 554 590 556 581 554 b 543 558 563 554 554 556 b 393 575 511 565 453 575 b 43 254 192 575 43 450 b 317 -19 43 106 146 -19 b 454 14 351 -19 388 -17 b 467 -12 465 14 467 3 l 467 -193 b 413 -307 467 -290 461 -303 l 382 -310 b 383 -358 371 -318 371 -350 b 557 -354 436 -356 494 -354 b 744 -358 622 -354 679 -356 b 746 -310 757 -350 757 -318 l 699 -306 b 647 -193 653 -301 647 -290 z m 467 108 b 457 74 467 93 465 79 b 415 64 449 68 436 64 b 236 306 329 64 236 144 b 372 511 236 428 299 511 b 439 481 406 511 426 496 b 467 357 454 461 467 415 z "},"r":{"ha":515,"x_min":0,"x_max":0,"o":"m 117 158 b 65 44 117 61 111 49 l 39 42 b 40 -7 28 33 28 1 b 204 -3 86 -4 147 -3 b 392 -7 269 -3 325 -4 b 393 42 404 1 404 33 l 349 46 b 297 158 303 50 297 61 l 297 372 b 324 456 297 425 304 456 b 376 428 332 456 344 454 b 431 403 394 411 411 403 b 519 493 475 403 519 429 b 443 575 519 546 481 575 b 307 506 385 575 344 529 b 293 522 296 508 293 513 b 299 582 293 535 296 554 b 274 594 293 590 285 594 b 71 511 231 567 135 529 b 71 469 61 503 61 478 l 90 457 b 117 368 117 440 117 424 z "},"s":{"ha":497,"x_min":0,"x_max":0,"o":"m 228 -19 b 465 167 358 -19 464 43 b 313 361 465 257 407 315 b 224 450 250 392 224 418 b 293 511 224 488 253 511 b 401 401 339 511 374 482 b 450 407 410 392 444 392 b 429 546 450 460 443 515 b 281 575 414 557 351 575 b 60 396 161 575 60 517 b 203 221 60 313 119 263 b 294 117 250 197 294 168 b 222 44 294 69 264 44 b 81 183 151 44 99 126 b 33 181 72 196 42 194 b 56 24 31 118 40 51 b 228 -19 93 -6 149 -19 z "},"t":{"ha":449,"x_min":0,"x_max":0,"o":"m 432 481 b 450 529 446 489 450 514 b 439 556 450 542 446 550 l 315 556 b 289 583 290 556 289 557 l 289 688 b 247 694 282 699 257 700 b 144 586 204 633 169 604 b 29 524 111 564 72 539 b 38 481 18 514 22 486 l 81 481 b 107 449 106 481 107 478 l 107 139 b 263 -19 107 47 147 -19 b 463 61 349 -19 424 19 b 443 97 465 78 457 93 b 385 76 426 86 404 76 b 288 240 288 76 288 163 l 288 449 b 307 481 288 479 289 481 z "},"u":{"ha":756,"x_min":0,"x_max":0,"o":"m 654 436 b 658 558 654 488 657 533 b 644 575 657 568 650 575 b 546 553 636 575 594 560 b 401 539 501 547 451 542 b 394 490 385 533 383 500 l 414 488 b 474 413 464 481 474 468 l 474 150 b 458 108 474 136 468 115 b 386 82 447 100 425 82 b 288 207 297 82 288 140 l 288 436 b 292 558 288 486 289 524 b 275 575 290 565 283 575 b 188 551 269 575 229 558 b 53 539 147 544 99 540 b 47 490 39 529 38 503 l 65 485 b 107 394 99 475 107 468 l 107 158 b 269 -19 107 40 154 -19 b 458 47 356 -19 404 13 b 474 33 467 47 474 42 b 469 -17 474 22 472 0 b 486 -33 471 -25 476 -32 b 743 17 490 -33 607 11 b 747 76 761 24 760 74 b 692 65 731 71 710 65 b 654 183 658 65 654 101 z "},"v":{"ha":635,"x_min":0,"x_max":0,"o":"m 22 504 b 99 417 57 496 65 485 b 288 -10 186 232 215 165 b 321 -19 296 -15 308 -19 b 353 -10 335 -19 346 -15 b 551 431 417 139 479 288 b 632 507 579 483 590 500 l 656 511 b 653 560 665 519 668 553 b 546 556 622 558 590 556 b 432 560 506 556 476 557 b 431 511 418 553 418 519 l 450 507 b 483 490 474 501 483 497 b 475 456 483 482 481 469 b 381 228 446 371 411 297 b 293 443 351 294 321 367 b 281 492 286 464 281 483 b 304 506 281 500 288 501 l 326 511 b 324 560 335 518 336 553 b 169 556 272 558 221 556 b -3 560 96 556 49 557 b -7 511 -21 554 -19 521 z "},"w":{"ha":947,"x_min":0,"x_max":0,"o":"m 154 556 b -6 560 96 556 51 557 b -10 511 -19 553 -19 522 l 15 504 b 72 451 39 497 53 492 b 275 -10 140 307 208 147 b 307 -19 283 -18 293 -19 b 339 -10 321 -19 331 -18 b 490 317 371 60 454 244 b 633 -10 532 228 604 65 b 665 -19 642 -18 651 -19 b 697 -10 679 -19 689 -18 b 883 432 756 138 819 290 b 961 507 906 483 915 497 l 981 511 b 976 560 992 524 989 554 b 869 556 946 557 910 556 b 756 560 835 556 801 557 b 750 511 742 554 742 521 l 774 506 b 808 486 797 500 808 493 b 796 432 808 476 804 457 b 718 219 774 368 751 300 b 624 443 688 286 649 376 b 613 486 615 467 613 475 b 664 507 613 493 632 500 l 685 511 b 681 560 694 517 696 558 b 435 556 592 557 522 556 z m 449 426 b 444 385 449 415 449 403 b 371 219 438 357 390 257 b 272 438 347 264 292 389 b 260 483 264 458 260 475 b 331 504 260 499 286 504 b 397 499 356 504 378 503 b 449 426 425 493 449 449 z "},"x":{"ha":636,"x_min":0,"x_max":0,"o":"m 621 511 b 618 560 633 519 632 556 b 513 556 583 557 547 556 b 386 560 463 556 426 557 b 382 511 372 554 369 519 l 397 507 b 419 494 411 503 419 500 b 410 469 419 488 418 482 b 350 383 388 436 364 403 b 293 468 331 411 311 438 b 281 497 283 485 281 492 b 301 507 281 501 290 506 l 318 511 b 315 560 333 519 332 554 b 167 556 265 557 217 556 b -1 560 90 556 53 557 b -6 511 -15 556 -15 518 l 24 504 b 108 443 54 497 81 486 l 183 328 b 228 254 215 278 228 260 b 215 224 228 247 224 238 b 101 78 196 194 122 99 b 36 50 89 64 60 54 l 1 44 b 4 -4 -12 33 -8 3 b 113 0 47 -1 81 0 b 238 -4 156 0 197 -1 b 240 44 249 1 251 36 l 218 49 b 193 63 199 53 193 56 b 210 103 193 71 199 83 b 267 194 228 133 247 165 b 326 103 289 163 307 133 b 343 65 338 85 343 71 b 319 50 343 60 339 54 l 289 44 b 293 -4 278 35 281 1 b 478 0 357 -1 422 0 b 646 -4 531 0 585 -1 b 650 44 661 1 661 35 l 635 46 b 511 136 588 50 560 64 l 417 276 b 388 331 404 294 388 322 b 414 372 388 338 397 350 b 518 483 446 413 499 471 b 601 508 540 497 561 503 z "},"y":{"ha":651,"x_min":0,"x_max":0,"o":"m 17 507 b 100 408 61 500 74 475 l 233 72 b 260 -29 256 15 260 -11 b 240 -87 260 -46 249 -71 b 200 -164 226 -117 215 -143 b 132 -193 186 -182 165 -193 l 99 -193 b 19 -265 50 -193 19 -224 b 108 -349 19 -303 33 -350 b 228 -257 160 -347 199 -319 b 439 181 278 -154 390 81 l 513 332 b 594 478 543 396 578 456 b 658 508 607 494 631 506 l 685 511 b 682 560 697 519 696 554 b 574 556 646 557 610 556 b 439 560 511 556 469 557 b 435 511 424 556 422 521 l 463 506 b 493 486 479 503 493 496 b 442 346 493 471 471 413 l 417 289 b 374 197 403 258 389 226 b 311 356 357 232 326 317 b 269 479 285 426 269 463 b 311 506 269 492 272 497 l 339 511 b 335 560 350 521 349 554 b 179 556 283 557 231 556 b -4 560 106 556 46 557 b -8 511 -18 554 -18 521 z "},"z":{"ha":576,"x_min":0,"x_max":0,"o":"m 310 0 b 532 -4 374 0 418 -1 b 585 176 550 22 581 124 b 535 183 578 190 546 194 b 493 108 517 147 503 122 b 363 61 469 71 422 61 l 329 61 b 274 69 289 61 274 63 b 299 126 274 79 282 97 l 447 379 b 546 542 492 454 519 506 b 538 560 547 547 543 557 b 422 556 521 557 482 556 l 172 556 b 94 582 101 556 99 560 b 65 582 89 589 72 589 b 22 399 51 547 31 454 b 72 388 29 383 60 376 b 117 468 86 429 106 457 b 215 494 135 489 165 494 l 258 494 b 297 488 289 494 297 492 b 282 447 297 481 293 468 l 153 218 b 31 18 114 149 53 51 b 40 -4 28 8 32 -1 b 175 0 63 -1 100 0 z "},"{":{"ha":472,"x_min":0,"x_max":0,"o":"m 332 225 b 228 369 332 301 300 351 l 228 375 b 332 519 300 393 332 443 b 306 804 332 615 306 710 b 422 925 306 846 319 907 b 419 964 431 933 428 960 b 185 782 301 964 185 946 b 207 499 185 690 207 586 b 85 390 207 456 210 399 b 85 354 75 383 75 365 b 207 246 201 346 207 285 b 185 -37 207 158 185 54 b 419 -219 185 -201 293 -219 b 422 -181 428 -215 431 -189 b 306 -60 319 -162 306 -110 b 332 225 306 35 332 129 z "},"|":{"ha":344,"x_min":0,"x_max":0,"o":"m 233 1042 l 111 1042 l 111 -347 l 233 -347 z "},"}":{"ha":472,"x_min":0,"x_max":0,"o":"m 140 225 b 167 -60 140 129 167 35 b 50 -181 167 -110 153 -162 b 53 -219 42 -189 44 -215 b 288 -37 179 -219 288 -201 b 265 246 288 54 265 158 b 388 354 265 285 271 346 b 388 390 397 365 397 383 b 265 499 263 399 265 456 b 288 782 265 586 288 690 b 53 964 288 946 171 964 b 50 925 44 960 42 933 b 167 804 153 907 167 846 b 140 519 167 710 140 615 b 244 375 140 443 172 393 l 244 369 b 140 225 172 351 140 301 z "},"~":{"ha":722,"x_min":0,"x_max":0,"o":"m 272 346 b 147 304 217 346 179 342 b 78 154 114 263 82 188 b 153 136 86 129 132 124 b 271 246 181 204 211 246 l 463 246 b 568 282 511 246 542 251 b 644 428 599 315 631 376 b 567 449 629 454 589 463 b 449 346 540 378 515 346 z "},"¡":{"ha":353,"x_min":0,"x_max":0,"o":"m 176 -369 b 288 -310 249 -369 288 -357 b 265 -147 288 -287 279 -244 l 207 243 b 146 243 190 254 163 254 l 88 -147 b 65 -310 74 -244 65 -287 b 176 -369 65 -357 104 -369 z m 176 547 b 64 435 121 547 64 503 b 176 319 64 369 114 319 b 289 435 243 319 289 375 b 176 547 289 499 243 547 z "},"¢":{"ha":722,"x_min":0,"x_max":0,"o":"m 372 261 b 268 460 304 292 268 363 b 421 672 268 572 325 668 z m 508 850 b 442 850 494 861 456 861 l 428 732 b 78 421 251 728 78 635 b 358 150 78 274 181 161 l 340 6 b 407 6 357 -6 393 -6 l 425 150 b 647 296 558 160 617 236 b 610 322 649 314 631 325 b 458 242 565 264 524 242 b 436 244 451 242 443 242 l 486 658 b 490 657 489 658 489 657 b 568 575 511 642 544 600 b 590 567 574 569 583 567 b 628 642 608 567 628 594 b 599 711 628 675 611 701 b 494 729 571 721 535 728 z "},"£":{"ha":722,"x_min":0,"x_max":0,"o":"m 379 472 b 350 493 354 472 351 475 b 342 636 344 547 342 586 b 406 811 342 767 382 811 b 514 757 426 811 454 806 b 547 743 528 744 535 743 b 597 822 563 743 597 781 b 581 868 597 843 592 858 b 490 889 563 881 531 889 b 149 536 301 889 149 749 b 150 485 149 521 149 499 b 129 472 151 474 150 472 l 18 472 b 11 410 0 454 0 421 l 131 410 b 154 393 153 404 154 411 b 53 96 154 249 124 153 b -17 6 15 67 -17 33 b 10 -19 -17 -11 -10 -19 b 101 18 25 -19 97 -1 b 153 71 104 38 118 71 b 310 4 199 71 254 39 b 471 -56 378 -39 421 -56 b 693 139 590 -56 693 57 b 624 225 693 203 654 225 b 585 151 596 225 564 204 b 569 76 607 96 610 76 b 438 117 536 76 483 93 b 300 169 381 146 332 165 b 204 171 250 178 226 174 l 203 174 b 350 390 289 215 350 268 b 381 410 350 408 356 410 l 550 410 b 557 472 563 425 569 458 z "},"⁄":{"ha":139,"x_min":0,"x_max":0,"o":"m 360 875 b 294 908 353 899 315 911 l -219 -22 b -154 -56 -210 -46 -179 -61 z "},"¥":{"ha":722,"x_min":0,"x_max":0,"o":"m 451 340 l 451 446 l 660 446 b 660 508 675 460 675 496 l 469 508 l 600 717 b 708 822 650 796 663 810 l 739 831 b 738 876 750 839 751 871 b 615 872 690 874 646 872 b 482 876 578 872 538 874 b 476 831 461 869 461 840 l 501 824 b 542 797 528 817 542 808 b 492 689 542 783 513 729 b 414 549 463 632 419 561 b 319 719 379 610 353 654 b 288 797 308 742 288 783 b 315 821 288 808 294 815 l 353 831 b 351 876 364 842 368 872 b 188 872 317 874 267 872 b -10 876 117 872 54 874 b -14 831 -24 869 -25 840 l 11 826 b 106 744 61 818 82 785 l 239 508 l 57 508 b 57 446 43 496 43 460 l 265 446 l 265 340 l 57 340 b 57 278 43 328 43 292 l 265 278 l 265 161 b 214 46 265 61 260 50 l 164 42 b 165 -4 153 33 153 4 b 360 0 238 -1 297 0 b 547 -4 419 0 478 -1 b 549 42 560 4 560 33 l 503 46 b 451 161 457 50 451 61 l 451 278 l 660 278 b 660 340 675 292 675 328 z "},"ƒ":{"ha":722,"x_min":0,"x_max":0,"o":"m 111 593 b 97 531 94 585 88 544 l 219 531 b 125 -28 190 367 164 189 b 92 -90 118 -68 111 -90 b 0 -21 67 -90 42 -65 b -40 6 -14 -6 -29 6 b -72 -74 -57 6 -72 -31 b 31 -169 -72 -128 -42 -169 b 203 -101 94 -169 158 -143 b 375 329 286 -26 328 51 b 411 531 388 403 400 474 l 565 531 b 579 593 586 547 590 585 l 422 593 b 519 894 451 757 488 894 b 578 838 538 894 560 869 b 613 813 588 821 597 813 b 694 903 650 813 694 853 b 575 968 694 933 663 968 b 290 783 425 968 325 854 b 229 593 261 725 244 669 z "},"§":{"ha":729,"x_min":0,"x_max":0,"o":"m 444 939 b 56 542 242 939 56 742 b 243 215 56 406 124 310 b 433 -28 335 143 433 42 b 371 -96 433 -72 404 -96 b 279 -60 338 -96 315 -85 b 203 -28 243 -35 219 -28 b 136 -90 160 -28 136 -57 b 260 -172 136 -143 183 -172 b 674 250 500 -172 674 61 b 504 578 674 406 610 500 b 303 804 326 708 303 756 b 361 869 303 839 335 869 b 454 821 376 869 394 865 b 511 799 471 808 492 799 b 583 858 543 799 583 815 b 444 939 583 888 558 939 z m 344 333 b 149 629 151 493 149 574 b 219 769 149 685 182 740 b 403 463 213 644 250 583 b 581 178 525 365 581 282 b 511 6 581 111 561 58 l 508 8 b 344 333 522 132 474 226 z "},"¤":{"ha":722,"x_min":0,"x_max":0,"o":"m 361 625 b 533 435 453 625 533 547 b 361 244 533 322 453 244 b 189 435 269 244 189 321 b 361 625 189 547 268 625 z m 361 732 b 196 682 296 732 238 713 l 144 750 b 54 667 106 746 63 714 l 118 608 b 61 435 85 569 61 504 b 118 261 61 365 85 300 l 54 203 b 144 119 63 156 106 124 l 196 188 b 361 138 238 157 296 138 b 526 188 426 138 485 157 l 578 119 b 668 203 617 124 660 156 l 604 261 b 661 435 638 300 661 365 b 604 608 661 504 638 569 l 668 667 b 578 750 660 714 617 746 l 526 682 b 361 732 485 713 426 732 z "},"'":{"ha":351,"x_min":0,"x_max":0,"o":"m 176 972 b 88 925 118 972 88 969 b 99 846 88 910 92 886 l 150 561 b 203 561 165 550 188 550 l 254 846 b 265 925 261 886 265 910 b 176 972 265 969 235 972 z "},"“":{"ha":656,"x_min":0,"x_max":0,"o":"m 193 575 b 289 661 246 575 289 614 b 247 722 289 693 271 715 b 171 808 214 731 171 750 b 289 938 171 874 239 919 b 275 981 304 947 299 978 b 56 744 160 954 56 874 b 193 575 56 624 136 575 z m 497 575 b 593 661 550 575 593 614 b 551 722 593 693 575 715 b 475 808 518 731 475 750 b 593 938 475 874 543 919 b 579 981 608 947 603 978 b 360 744 464 954 360 874 b 497 575 360 624 440 575 z "},"«":{"ha":600,"x_min":0,"x_max":0,"o":"m 303 533 b 272 554 297 546 283 551 b 61 315 204 474 135 394 b 61 265 46 297 46 283 b 272 24 135 185 204 104 b 303 44 286 22 297 33 l 197 271 b 197 311 192 283 190 296 z m 550 533 b 519 554 544 546 531 551 b 308 315 451 474 382 394 b 308 265 293 297 293 283 b 519 24 382 185 451 104 b 550 44 533 22 544 33 l 444 271 b 444 311 439 283 438 296 z "},"‹":{"ha":354,"x_min":0,"x_max":0,"o":"m 304 533 b 274 554 299 546 285 551 b 63 315 206 474 136 394 b 63 265 47 297 47 283 b 274 24 136 185 206 104 b 304 44 288 22 299 33 l 199 271 b 199 311 193 283 192 296 z "},"›":{"ha":354,"x_min":0,"x_max":0,"o":"m 156 311 b 156 271 163 296 161 283 l 50 44 b 81 24 56 33 67 22 b 292 265 149 104 218 185 b 292 315 307 283 307 297 b 81 554 218 394 149 474 b 50 533 69 551 56 546 z "},"ﬁ":{"ha":786,"x_min":0,"x_max":0,"o":"m 117 161 b 65 44 117 61 111 50 l 43 42 b 44 -4 32 33 32 4 b 204 0 89 -1 142 0 b 365 -4 269 0 325 -1 b 367 42 378 4 378 33 l 349 44 b 297 161 303 51 297 61 l 297 444 b 333 481 297 479 300 481 l 433 481 b 506 360 501 481 506 468 l 506 161 b 464 44 506 61 500 49 l 442 42 b 443 -4 431 33 431 4 b 596 0 488 -1 536 0 b 758 -4 657 0 714 -1 b 760 42 771 4 771 33 l 738 44 b 686 161 692 50 686 61 l 686 386 b 693 546 686 443 689 501 b 669 567 692 560 681 567 b 440 556 633 558 540 556 l 333 556 b 297 590 300 556 297 554 l 297 668 b 397 924 297 875 351 924 b 483 861 431 924 456 908 b 521 789 496 840 510 807 b 583 760 532 771 557 760 b 682 850 635 760 682 793 b 451 993 682 929 592 993 b 160 811 294 993 207 913 b 117 585 128 743 117 654 b 86 549 117 567 104 558 l 26 518 b 31 481 19 511 22 486 l 82 481 b 117 442 114 481 117 479 z "},"ﬂ":{"ha":786,"x_min":0,"x_max":0,"o":"m 82 481 b 117 442 114 481 117 479 l 117 161 b 65 47 117 64 111 53 l 43 44 b 44 -4 32 36 32 4 b 204 0 89 -1 147 0 b 365 -4 269 0 325 -1 b 367 42 378 4 378 33 l 349 44 b 297 161 303 51 297 61 l 297 442 b 333 481 297 479 299 481 l 468 481 b 506 446 501 481 506 481 l 506 161 b 464 44 506 61 500 49 l 442 42 b 443 -4 431 33 431 4 b 596 0 488 -1 536 0 b 758 -4 656 0 714 -1 b 760 44 771 4 771 36 l 738 47 b 686 161 692 53 686 64 l 686 781 b 690 983 686 868 688 926 b 667 993 685 990 675 993 b 575 951 638 976 608 963 b 426 993 543 974 500 993 b 158 822 296 993 204 919 b 117 585 129 760 117 665 b 86 549 117 567 104 558 l 26 518 b 31 481 19 511 22 486 z m 333 556 b 297 594 299 556 297 557 l 297 626 b 413 926 297 867 358 926 b 506 814 475 926 506 857 l 506 590 b 468 556 506 556 501 556 z "},"–":{"ha":694,"x_min":0,"x_max":0,"o":"m 0 336 l 0 240 l 694 240 l 694 336 z "},"†":{"ha":681,"x_min":0,"x_max":0,"o":"m 381 -176 l 381 0 b 438 364 381 168 410 271 b 382 583 394 417 382 481 b 547 539 454 583 494 539 b 625 615 590 539 625 567 b 547 690 625 661 590 690 b 382 646 494 690 454 646 b 435 842 388 757 435 785 b 340 939 435 897 400 939 b 246 842 281 939 246 897 b 299 646 246 785 293 757 b 135 690 226 646 186 690 b 56 615 90 690 56 661 b 135 539 56 567 90 539 b 299 583 186 539 226 583 b 243 364 299 481 286 417 b 300 0 271 271 300 168 l 300 -176 z "},"‡":{"ha":683,"x_min":0,"x_max":0,"o":"m 342 939 b 251 849 268 939 251 885 b 301 657 251 792 296 763 b 132 700 222 657 174 700 b 56 626 89 700 56 669 b 132 551 56 582 89 551 b 301 594 174 551 222 594 b 243 399 301 504 286 442 b 301 192 286 360 301 297 b 132 235 222 192 174 235 b 56 157 89 235 56 204 b 132 86 56 117 89 86 b 301 129 174 86 222 129 b 251 -83 301 24 251 -10 b 342 -172 251 -129 281 -172 b 432 -83 404 -172 432 -129 b 382 129 432 -10 382 24 b 553 86 461 129 510 86 b 628 157 596 86 628 117 b 553 235 628 204 596 235 b 382 192 510 235 461 192 b 440 399 382 297 397 360 b 382 594 397 442 382 504 b 553 551 461 594 510 551 b 628 626 596 551 628 582 b 553 700 628 669 596 700 b 382 657 510 700 461 657 b 432 849 388 763 432 792 b 342 939 432 885 415 939 z "},"·":{"ha":361,"x_min":0,"x_max":0,"o":"m 181 175 b 293 288 247 175 293 224 b 181 403 293 347 247 403 b 68 288 118 403 68 353 b 181 175 68 219 125 175 z "},"¶":{"ha":681,"x_min":0,"x_max":0,"o":"m 517 622 b 590 711 517 697 519 699 l 638 719 b 636 763 649 729 649 756 b 471 771 614 767 563 771 b 189 710 368 771 269 756 b 56 471 111 665 56 583 b 407 189 56 303 206 189 b 443 139 433 189 443 178 l 443 -24 b 349 -224 443 -190 389 -224 b 292 -169 317 -224 292 -204 b 311 -118 292 -147 307 -128 b 214 -71 306 -94 268 -69 b 168 -156 193 -78 168 -110 b 317 -278 168 -243 247 -278 b 431 -249 357 -278 401 -271 b 517 31 499 -197 517 -101 z "},"•":{"ha":549,"x_min":0,"x_max":0,"o":"m 274 683 b 58 467 153 683 58 588 b 274 249 58 343 156 249 b 490 467 393 249 490 344 b 274 683 490 588 393 683 z "},"‚":{"ha":351,"x_min":0,"x_max":0,"o":"m 158 236 b 63 150 106 236 63 197 b 104 89 63 118 81 96 b 181 3 138 81 181 61 b 63 -126 181 -62 113 -108 b 76 -169 47 -136 53 -167 b 296 64 192 -143 296 -68 b 158 236 296 188 215 236 z "},"„":{"ha":656,"x_min":0,"x_max":0,"o":"m 158 236 b 63 150 106 236 63 197 b 104 89 63 118 81 96 b 181 3 138 81 181 61 b 63 -126 181 -62 113 -108 b 76 -169 47 -136 53 -167 b 296 64 192 -143 296 -68 b 158 236 296 188 215 236 z m 463 236 b 367 150 410 236 367 197 b 408 89 367 118 385 96 b 485 3 442 81 485 61 b 367 -126 485 -62 417 -108 b 381 -169 351 -136 357 -167 b 600 64 496 -143 600 -68 b 463 236 600 188 519 236 z "},"”":{"ha":656,"x_min":0,"x_max":0,"o":"m 158 972 b 63 886 106 972 63 933 b 104 825 63 854 81 832 b 181 739 138 817 181 797 b 63 610 181 674 113 628 b 76 567 47 600 53 569 b 296 803 192 593 296 674 b 158 972 296 924 215 972 z m 463 972 b 367 886 410 972 367 933 b 408 825 367 854 385 832 b 485 739 442 817 485 797 b 367 610 485 674 417 628 b 381 567 351 600 357 569 b 600 803 496 593 600 674 b 463 972 600 924 519 972 z "},"»":{"ha":600,"x_min":0,"x_max":0,"o":"m 156 311 b 156 271 163 296 161 283 l 50 44 b 81 24 56 33 67 22 b 292 265 149 104 218 185 b 292 315 307 283 307 297 b 81 554 218 394 149 474 b 50 533 69 551 56 546 z m 403 311 b 403 271 410 296 408 283 l 297 44 b 328 24 303 33 314 22 b 539 265 396 104 465 185 b 539 315 554 283 554 297 b 328 554 465 394 396 474 b 297 533 317 551 303 546 z "},"…":{"ha":1389,"x_min":0,"x_max":0,"o":"m 694 -19 b 807 93 761 -19 807 29 b 694 208 807 153 761 208 b 582 93 632 208 582 158 b 694 -19 582 25 639 -19 z m 1157 -19 b 1269 93 1224 -19 1269 29 b 1157 208 1269 153 1224 208 b 1044 93 1094 208 1044 158 b 1157 -19 1044 25 1101 -19 z m 232 -19 b 344 93 299 -19 344 29 b 232 208 344 153 299 208 b 119 93 169 208 119 158 b 232 -19 119 25 176 -19 z "},"‰":{"ha":1650,"x_min":0,"x_max":0,"o":"m 861 -17 b 1079 239 1022 -17 1079 135 b 861 496 1079 346 1022 496 b 643 239 700 496 643 346 b 861 -17 643 135 700 -17 z m 946 240 b 864 39 946 172 935 39 b 776 240 792 39 776 169 b 864 440 776 314 792 440 b 946 240 935 440 946 310 z m 268 376 b 486 632 429 376 486 528 b 268 889 486 738 429 889 b 50 632 106 889 50 738 b 268 376 50 528 106 376 z m 353 633 b 269 432 353 565 342 432 b 183 633 197 432 183 563 b 269 833 183 706 197 833 b 353 633 342 833 353 701 z m 1375 -17 b 1593 239 1536 -17 1593 135 b 1375 496 1593 346 1536 496 b 1157 239 1214 496 1157 346 b 1375 -17 1157 135 1214 -17 z m 1460 240 b 1378 39 1460 172 1449 39 b 1290 240 1306 39 1290 169 b 1378 440 1290 314 1306 440 b 1460 240 1449 440 1460 310 z m 333 -56 b 847 875 501 254 674 565 b 785 908 840 899 806 911 b 271 -22 617 599 444 288 b 333 -56 281 -46 308 -61 z "},"¿":{"ha":461,"x_min":0,"x_max":0,"o":"m 308 -369 b 406 -283 367 -369 406 -329 b 329 -194 406 -221 356 -194 b 128 -133 182 -194 128 -175 b 194 -83 128 -114 153 -101 l 260 -56 b 385 82 340 -21 385 4 b 324 246 385 139 347 214 b 278 239 313 257 285 251 b 292 164 288 211 292 185 b 235 104 292 142 272 121 l 143 63 b 56 -86 92 39 56 -6 b 308 -369 56 -237 181 -369 z m 279 547 b 167 432 217 547 167 497 b 279 319 167 364 224 319 b 392 432 346 319 392 368 b 279 547 392 492 346 547 z "},"`":{"ha":528,"x_min":0,"x_max":0,"o":"m 257 910 b 214 951 242 942 228 951 b 160 929 199 951 183 946 b 122 879 135 910 122 894 b 153 828 122 864 135 846 l 349 635 b 383 657 368 632 381 640 z "},"´":{"ha":528,"x_min":0,"x_max":0,"o":"m 133 657 b 168 635 136 640 149 632 l 364 828 b 394 879 382 846 394 864 b 357 929 394 894 382 910 b 303 951 333 946 318 951 b 260 910 289 951 275 942 z "},"ˆ":{"ha":528,"x_min":0,"x_max":0,"o":"m 85 657 b 124 632 92 640 110 633 l 235 754 b 264 779 250 771 260 779 b 292 753 268 779 275 771 l 403 632 b 443 657 418 633 436 640 l 296 922 b 264 940 288 938 281 940 b 232 922 247 940 240 938 z "},"˜":{"ha":528,"x_min":0,"x_max":0,"o":"m 319 715 b 403 754 363 715 383 725 b 449 874 424 786 440 829 b 407 881 443 882 418 885 b 299 815 385 824 354 815 l 221 815 b 136 776 183 815 160 806 b 79 656 114 749 88 682 b 122 647 85 644 114 642 b 242 715 147 690 179 715 z "},"¯":{"ha":528,"x_min":0,"x_max":0,"o":"m 439 696 b 439 794 457 718 457 772 l 88 794 b 88 696 71 772 71 718 z "},"˘":{"ha":528,"x_min":0,"x_max":0,"o":"m 264 678 b 432 892 378 678 438 756 b 390 892 422 899 399 899 b 264 789 376 824 325 789 b 138 892 203 789 151 831 b 96 892 129 899 106 899 b 264 678 90 756 150 678 z "},"˙":{"ha":528,"x_min":0,"x_max":0,"o":"m 265 683 b 350 772 314 683 350 718 b 265 854 350 815 314 854 b 178 765 215 854 178 817 b 265 683 179 711 217 683 z "},"¨":{"ha":528,"x_min":0,"x_max":0,"o":"m 140 676 b 225 765 189 676 225 711 b 140 847 225 808 189 847 b 53 758 90 847 53 810 b 140 676 54 704 92 676 z m 390 676 b 475 765 439 676 475 711 b 390 847 475 808 439 847 b 303 758 340 847 303 810 b 390 676 304 704 342 676 z "},"˚":{"ha":528,"x_min":0,"x_max":0,"o":"m 264 638 b 414 775 358 638 414 706 b 264 911 414 844 358 911 b 114 775 171 911 114 844 b 264 638 114 706 171 638 z m 264 690 b 197 775 221 690 197 729 b 264 863 197 821 221 860 b 331 775 307 860 331 821 b 264 690 331 729 307 690 z "},"¸":{"ha":528,"x_min":0,"x_max":0,"o":"m 301 0 l 201 -147 l 206 -158 b 311 -258 256 -179 311 -214 b 275 -293 311 -281 290 -293 b 181 -242 244 -293 219 -242 b 136 -287 154 -242 136 -262 b 243 -349 136 -326 176 -349 b 419 -219 333 -349 419 -296 b 335 -101 419 -165 386 -129 b 322 -72 314 -90 311 -86 l 375 0 z "},"˝":{"ha":528,"x_min":0,"x_max":0,"o":"m 99 657 b 138 635 101 640 118 632 l 290 826 b 318 879 306 846 318 864 b 281 929 318 894 306 910 b 226 951 257 946 242 951 b 188 908 213 951 199 942 z m 342 657 b 382 635 344 640 363 632 l 533 826 b 561 879 549 846 561 864 b 524 929 561 894 549 910 b 469 951 500 946 485 951 b 431 908 456 951 442 942 z "},"˛":{"ha":528,"x_min":0,"x_max":0,"o":"m 297 21 b 121 -229 182 -67 121 -154 b 260 -354 121 -287 153 -354 b 407 -278 314 -354 371 -332 b 393 -251 407 -267 403 -254 b 324 -272 372 -267 351 -272 b 240 -190 272 -272 240 -237 b 365 21 240 -128 292 -53 z "},"ˇ":{"ha":528,"x_min":0,"x_max":0,"o":"m 443 917 b 404 942 436 933 418 940 l 293 819 b 264 794 278 803 268 794 b 236 821 260 794 253 803 l 125 942 b 85 917 110 940 92 933 l 232 651 b 264 633 240 636 247 633 b 296 651 281 633 288 636 z "},"—":{"ha":1389,"x_min":0,"x_max":0,"o":"m 0 336 l 0 240 l 1389 240 l 1389 336 z "},"Æ":{"ha":1168,"x_min":0,"x_max":0,"o":"m 510 200 b 439 54 510 72 501 64 l 374 44 b 374 -4 363 38 363 4 b 606 0 478 -1 546 0 l 786 0 b 961 -1 843 0 906 -1 b 1107 -4 1018 -3 1071 -3 b 1165 218 1126 33 1160 146 b 1114 225 1160 235 1125 240 b 869 64 1038 68 990 64 b 724 100 768 64 742 75 b 701 232 707 124 701 168 l 701 397 b 740 440 701 439 703 440 l 836 440 b 939 363 908 440 925 429 l 946 328 b 997 329 956 315 990 317 b 993 476 994 374 993 424 b 997 624 993 529 994 579 b 946 625 990 636 956 636 l 939 590 b 836 514 925 524 908 514 l 740 514 b 701 556 703 514 701 517 l 701 799 b 747 853 701 850 701 853 l 858 853 b 994 810 926 853 968 836 b 1047 700 1013 790 1032 749 b 1099 706 1061 688 1093 690 b 1081 921 1092 799 1082 899 b 894 917 1063 918 983 917 l 536 917 b 414 918 496 917 454 917 b 296 921 374 918 333 919 b 292 872 276 914 279 882 l 356 861 b 385 839 372 858 385 850 b 343 736 385 825 364 778 b 43 138 236 524 146 332 b -60 50 8 72 -19 56 l -97 44 b -96 -4 -110 36 -108 4 b 47 0 -46 -1 -10 0 b 219 -4 110 0 172 -1 b 221 44 235 1 236 35 l 168 53 b 133 74 142 57 133 64 b 144 114 133 82 136 93 b 281 414 169 179 214 272 b 333 440 290 436 299 440 l 474 440 b 510 394 507 440 510 435 z m 354 514 b 335 536 332 514 325 515 l 443 753 b 499 853 474 815 488 839 l 506 853 b 510 789 508 846 510 825 l 510 567 b 474 514 510 519 507 514 z "},"ª":{"ha":519,"x_min":0,"x_max":0,"o":"m 272 750 b 88 688 197 750 122 717 b 44 617 51 656 44 633 b 79 593 44 604 57 593 b 161 614 113 593 144 604 b 183 657 174 624 181 638 b 231 701 188 686 203 701 b 292 618 278 701 292 658 l 292 604 b 261 578 290 594 286 585 b 121 536 229 569 188 558 b 44 439 64 518 44 481 b 176 333 44 394 78 333 b 261 357 208 333 243 347 b 290 374 278 368 286 374 b 313 360 294 374 304 368 b 399 333 333 340 368 333 b 511 378 435 333 489 353 b 499 407 518 394 510 406 b 461 397 486 401 475 397 b 421 467 436 397 418 418 l 428 615 b 272 750 432 714 381 750 z m 183 453 b 239 525 183 496 210 513 b 278 532 253 531 267 532 b 289 506 286 532 290 522 l 285 438 b 239 399 283 417 271 399 b 183 453 207 399 183 426 z "},"Ł":{"ha":821,"x_min":0,"x_max":0,"o":"m 558 565 b 529 628 563 589 550 624 l 365 526 l 365 717 b 436 867 365 846 374 857 l 472 872 b 472 921 483 881 483 913 b 267 917 401 918 333 917 b 56 921 197 917 128 918 b 56 872 42 913 42 881 l 96 867 b 167 717 158 858 167 846 l 167 404 l 28 318 b 53 251 22 292 39 261 l 167 322 l 167 200 b 96 51 167 71 158 60 l 43 44 b 47 -4 32 36 35 4 b 267 0 133 -1 203 0 l 453 0 b 774 -4 567 0 700 -1 b 833 221 793 33 826 149 b 781 229 824 238 792 243 b 533 64 699 68 660 64 b 389 99 432 64 407 75 b 365 231 371 121 365 165 l 365 446 z "},"Ø":{"ha":1094,"x_min":0,"x_max":0,"o":"m 328 218 b 278 483 290 303 278 404 b 540 875 278 715 369 875 b 724 778 615 875 678 839 z m 764 707 b 817 444 799 636 817 544 b 564 42 817 219 746 42 b 368 146 475 42 411 83 z m 921 928 b 858 968 914 950 883 969 l 799 885 b 551 939 729 919 646 939 b 56 451 261 939 56 726 b 226 75 56 288 121 157 l 163 -15 b 222 -60 168 -40 200 -61 l 290 36 b 538 -22 361 -3 446 -22 b 1039 461 836 -22 1039 160 b 863 846 1039 629 974 764 z "},"Œ":{"ha":1414,"x_min":0,"x_max":0,"o":"m 903 917 b 633 925 818 917 735 925 b 56 439 254 925 56 713 b 599 -8 56 183 242 -8 b 893 0 692 -8 783 0 l 1032 0 b 1353 -4 1146 0 1279 -1 b 1411 218 1372 33 1406 146 b 1360 225 1406 235 1371 240 b 1115 64 1283 68 1236 64 b 969 100 1014 64 988 75 b 947 232 953 124 947 168 l 947 397 b 986 440 947 439 949 440 l 1082 440 b 1185 363 1154 440 1171 429 l 1192 328 b 1243 329 1201 315 1236 317 b 1239 476 1240 374 1239 424 b 1243 624 1239 529 1240 579 b 1192 625 1236 636 1201 636 l 1185 590 b 1082 514 1171 524 1154 514 l 986 514 b 947 556 949 514 947 517 l 947 799 b 993 853 947 850 947 853 l 1104 853 b 1240 810 1172 853 1214 836 b 1293 700 1258 790 1278 749 b 1344 706 1307 688 1339 690 b 1326 921 1338 799 1328 899 b 1140 917 1308 918 1229 917 z m 749 168 b 628 56 749 74 708 56 b 279 457 388 56 279 263 b 615 861 279 678 393 861 b 706 847 650 861 681 857 b 749 729 736 835 749 806 z "},"º":{"ha":561,"x_min":0,"x_max":0,"o":"m 285 750 b 47 532 158 750 47 674 b 278 333 47 403 149 333 b 515 544 410 333 515 404 b 285 750 515 669 421 750 z m 357 514 b 288 383 357 444 335 383 b 206 563 236 383 206 453 b 279 700 206 657 239 700 b 357 514 332 700 357 619 z "},"æ":{"ha":871,"x_min":0,"x_max":0,"o":"m 346 142 b 289 74 346 97 325 74 b 218 154 256 74 218 101 b 272 235 218 194 240 221 b 332 253 293 244 317 251 b 346 233 342 253 346 247 z m 614 -19 b 864 138 714 -19 813 19 b 829 165 861 157 846 165 b 700 88 790 101 739 88 b 514 269 579 88 514 163 b 538 304 514 297 518 299 l 811 378 b 858 428 844 386 858 399 b 656 575 858 496 781 575 b 468 514 589 575 522 558 b 329 575 435 560 388 575 b 115 492 250 575 164 531 b 47 382 79 461 47 418 b 79 349 47 364 58 349 b 178 381 101 349 157 365 b 201 425 190 390 199 403 b 272 504 211 485 239 504 b 346 365 346 504 346 425 l 346 350 b 328 314 346 325 343 318 l 183 272 b 44 129 88 244 44 197 b 194 -19 44 36 125 -19 b 382 64 269 -19 317 19 b 401 74 392 69 396 74 b 417 63 407 74 413 68 b 614 -19 451 15 519 -19 z m 689 435 b 660 401 689 415 683 408 l 546 371 b 518 399 522 364 518 371 b 618 511 518 450 558 511 b 689 435 660 511 689 479 z "},"ı":{"ha":397,"x_min":0,"x_max":0,"o":"m 297 417 b 301 582 297 479 299 540 b 276 594 296 590 288 594 b 71 514 235 569 136 532 b 71 472 61 506 61 481 l 90 460 b 117 371 117 443 117 426 l 117 161 b 65 47 117 64 111 51 l 39 44 b 40 -4 28 36 28 4 b 207 0 86 -1 144 0 b 374 -4 271 0 325 -1 b 375 44 386 4 386 36 l 349 47 b 297 161 303 51 297 64 z "},"ł":{"ha":397,"x_min":0,"x_max":0,"o":"m 440 567 b 413 628 447 590 435 618 l 294 543 l 294 781 b 299 983 294 868 296 926 b 275 993 293 990 283 993 b 63 915 206 963 124 929 b 63 874 53 907 53 882 l 86 860 b 114 758 114 843 114 828 l 114 408 l -19 310 b 7 249 -29 286 -12 256 l 114 326 l 114 161 b 63 47 114 64 108 51 l 36 44 b 38 -4 25 36 25 4 b 204 0 86 -1 144 0 b 371 -4 267 0 325 -1 b 372 44 383 4 383 36 l 349 47 b 294 161 300 53 294 64 l 294 461 z "},"ø":{"ha":717,"x_min":0,"x_max":0,"o":"m 254 179 b 239 297 243 217 239 256 b 354 511 239 449 289 511 b 440 446 393 511 422 486 z m 464 376 b 478 260 474 339 478 300 b 369 44 479 135 453 44 b 278 111 329 44 296 69 z m 204 13 b 354 -19 250 -11 303 -19 b 674 279 525 -19 674 76 b 563 513 674 386 631 464 l 608 574 b 560 610 603 594 582 608 l 511 543 b 363 575 469 565 413 575 b 43 267 199 575 42 465 b 153 42 44 164 86 89 l 100 -29 b 147 -65 106 -49 121 -61 z "},"œ":{"ha":1028,"x_min":0,"x_max":0,"o":"m 483 260 b 378 44 485 132 458 44 b 250 297 296 44 250 149 b 363 511 250 449 300 511 b 483 260 443 511 482 394 z m 967 329 b 1017 375 1010 329 1017 349 b 789 575 1017 481 942 575 b 578 474 708 575 625 532 b 361 575 538 535 456 575 b 43 268 200 575 42 467 b 349 -19 44 76 189 -19 b 569 71 439 -19 525 18 b 781 -19 613 21 686 -19 b 1021 139 868 -19 968 21 b 988 171 1021 163 1003 171 b 856 99 947 107 894 99 b 654 301 725 99 654 194 b 692 329 654 326 657 329 z m 731 390 b 665 411 685 390 665 392 b 782 511 665 453 721 511 b 858 435 826 511 858 481 b 849 403 858 421 856 407 b 792 390 833 393 811 390 z "},"ß":{"ha":796,"x_min":0,"x_max":0,"o":"m 297 588 b 463 929 297 803 358 929 b 583 760 528 929 583 864 b 501 592 583 685 543 636 b 417 425 460 546 417 504 b 536 240 417 349 474 293 b 619 107 586 197 619 150 b 569 44 619 67 596 44 b 432 143 513 44 460 143 b 392 72 403 143 392 104 b 525 -19 392 -1 467 -19 b 772 190 678 -19 772 67 b 668 385 772 269 724 333 b 567 519 617 433 567 469 b 629 621 567 553 590 589 l 651 639 b 740 794 704 682 740 713 b 481 993 740 890 664 993 b 153 785 311 993 201 892 b 117 585 129 735 117 658 b 86 549 117 567 104 558 l 26 518 b 31 481 19 511 22 486 l 82 481 b 117 442 113 481 117 479 l 117 161 b 61 47 117 64 111 53 l 39 44 b 42 -4 28 36 28 4 b 204 0 85 -1 143 0 b 354 -4 269 0 328 -1 b 356 44 367 4 367 36 l 349 46 b 297 161 303 56 297 64 z "},"¹":{"ha":556,"x_min":0,"x_max":0,"o":"m 208 579 b 167 485 208 508 210 490 l 125 479 b 128 442 117 471 118 447 b 286 444 179 443 235 444 b 446 442 339 444 394 443 b 449 479 456 447 457 471 l 407 485 b 365 579 364 490 365 508 l 365 857 b 369 979 365 903 368 956 b 353 990 368 986 363 990 b 121 921 299 961 203 932 b 121 882 110 914 110 889 l 164 876 b 208 801 204 871 208 850 z "},"¬":{"ha":722,"x_min":0,"x_max":0,"o":"m 518 93 l 640 93 l 640 447 l 83 447 l 83 347 l 518 347 z "},"µ":{"ha":744,"x_min":0,"x_max":0,"o":"m 649 436 b 653 558 649 488 651 533 b 639 575 651 568 644 575 b 540 553 631 575 589 560 b 396 539 496 547 446 542 b 389 490 379 533 378 500 l 408 488 b 468 413 458 481 468 468 l 468 150 b 453 108 468 136 463 115 b 381 82 442 100 419 82 b 282 207 292 82 282 140 l 282 436 b 286 558 282 486 283 524 b 269 575 285 565 278 575 b 182 551 264 575 224 558 b 47 539 142 544 93 540 b 42 490 33 529 32 503 l 60 485 b 101 394 93 475 101 468 l 101 -324 b 135 -374 101 -360 111 -374 b 269 -272 200 -374 269 -317 b 201 -76 269 -233 201 -167 l 201 -33 b 215 -3 201 -14 207 -4 b 264 -19 226 -11 250 -19 b 453 47 350 -19 399 13 b 468 33 461 47 468 42 b 464 -17 468 22 467 0 b 481 -33 465 -25 471 -32 b 738 17 485 -33 601 11 b 742 76 756 24 754 74 b 686 65 725 71 704 65 b 649 183 653 65 649 101 z "},"™":{"ha":853,"x_min":0,"x_max":0,"o":"m 158 728 b 133 663 158 686 156 667 l 111 658 b 113 631 107 651 107 633 b 193 632 138 632 158 632 b 293 631 231 632 263 632 b 294 658 299 632 300 654 l 272 663 b 247 724 249 667 247 682 l 247 863 b 258 879 247 878 247 879 l 276 879 b 331 828 313 879 324 861 b 357 831 333 818 354 818 b 364 933 356 863 358 908 b 343 933 361 940 347 940 b 301 917 326 917 321 917 l 125 917 b 82 933 97 917 94 918 b 61 933 79 940 64 940 b 42 835 56 914 50 886 b 69 831 43 824 65 821 b 132 879 82 865 101 879 l 143 879 b 158 863 158 879 158 878 z m 721 697 b 704 664 721 675 721 668 l 683 658 b 683 631 678 656 679 633 b 760 632 704 632 724 632 b 844 631 806 632 825 632 b 844 658 853 633 853 656 l 824 664 b 804 704 810 668 807 672 b 800 854 801 743 800 815 b 826 888 800 875 803 883 l 840 890 b 839 918 847 893 847 917 b 769 917 822 917 789 917 b 703 918 758 917 746 917 b 671 836 693 885 683 863 l 647 785 b 631 768 639 771 633 768 b 614 789 626 768 621 775 l 588 840 b 556 918 574 867 556 903 b 464 917 506 917 488 917 b 408 918 447 917 432 918 b 407 890 397 917 396 894 l 418 888 b 451 849 440 885 451 875 b 439 693 451 806 444 744 b 404 660 438 674 431 664 l 396 658 b 397 631 393 653 393 633 b 463 632 413 632 439 632 b 528 631 494 632 514 632 b 528 658 531 638 531 654 l 515 660 b 488 700 493 663 489 669 b 488 785 488 721 486 760 b 493 857 490 835 492 854 b 525 792 496 856 511 824 l 557 715 b 589 632 565 694 583 654 b 624 631 601 624 615 628 b 663 728 633 661 643 682 l 689 789 b 715 849 701 818 714 849 b 718 833 718 847 718 842 z "},"Ð":{"ha":1115,"x_min":0,"x_max":0,"o":"m 167 200 b 96 51 167 72 158 61 l 53 44 b 53 -4 42 38 42 4 b 269 0 132 -1 203 0 b 454 -8 319 0 389 -8 b 806 57 597 -8 711 10 b 1054 472 965 136 1054 286 b 772 875 1054 646 954 810 b 449 921 676 910 563 921 b 76 908 301 921 193 915 b 74 860 60 907 60 867 l 100 857 b 167 692 164 850 167 824 l 167 514 l 50 514 b 50 440 36 493 36 457 l 167 440 z m 365 758 b 375 839 365 801 367 828 b 447 857 383 850 410 857 b 831 458 699 857 831 708 b 508 56 831 269 749 56 b 393 96 458 56 418 68 b 365 251 368 125 365 175 l 365 440 l 551 440 b 551 514 565 457 567 499 l 365 514 z "},"½":{"ha":1167,"x_min":0,"x_max":0,"o":"m 856 875 b 790 908 849 899 811 911 l 276 -22 b 342 -56 286 -46 317 -61 z m 179 478 b 138 383 179 407 181 389 l 96 378 b 99 340 88 369 89 346 b 257 343 150 342 206 343 b 417 340 310 343 365 342 b 419 378 426 346 428 369 l 378 383 b 336 478 335 389 336 407 l 336 756 b 340 878 336 801 339 854 b 324 889 339 885 333 889 b 92 819 269 860 174 831 b 92 781 81 813 81 788 l 135 775 b 179 700 175 769 179 749 z m 907 0 b 1065 -3 989 0 1028 -1 b 1119 146 1083 25 1111 100 b 1088 151 1113 153 1099 156 b 971 104 1064 107 1035 104 l 885 104 b 874 128 867 104 860 115 l 908 157 l 951 189 b 1088 390 1060 269 1088 332 b 900 546 1088 479 1022 546 b 685 407 815 546 732 500 b 724 383 685 385 710 374 b 836 465 751 433 790 465 b 918 369 888 465 918 426 b 814 150 918 285 864 203 b 674 24 739 74 706 49 b 683 -3 671 15 674 3 b 774 0 699 -1 722 0 z "},"±":{"ha":722,"x_min":0,"x_max":0,"o":"m 424 139 l 424 343 l 640 343 l 640 443 l 424 443 l 424 636 l 301 636 l 301 443 l 83 443 l 83 343 l 301 343 l 301 139 z m 640 0 l 640 100 l 83 100 l 83 0 z "},"Þ":{"ha":825,"x_min":0,"x_max":0,"o":"m 357 596 b 419 667 357 653 363 667 b 569 474 522 667 569 561 b 443 267 569 364 547 301 b 447 231 433 258 433 238 b 474 229 458 231 465 229 b 785 475 629 229 785 300 b 625 703 785 600 713 672 b 450 731 581 719 517 731 l 357 731 b 428 865 357 846 365 854 l 467 872 b 467 921 481 881 481 913 b 260 917 396 918 326 917 b 53 921 193 917 121 918 b 49 872 36 913 36 881 l 88 865 b 158 717 150 854 158 846 l 158 200 b 88 51 158 71 150 63 l 49 44 b 49 -4 38 36 38 4 b 260 0 125 -1 194 0 b 474 -4 326 0 393 -1 b 474 44 485 4 485 36 l 428 51 b 357 200 365 61 357 71 z "},"¼":{"ha":1167,"x_min":0,"x_max":0,"o":"m 844 106 b 788 36 844 47 844 39 l 760 35 b 763 -3 751 28 751 3 b 910 0 803 -1 857 0 b 1065 -3 963 0 1011 -1 b 1067 35 1076 4 1076 28 l 1049 36 b 999 106 1001 40 999 51 l 999 125 b 1019 150 999 149 1000 150 l 1081 150 b 1081 203 1096 158 1096 197 l 1019 203 b 999 226 1000 203 999 206 l 999 372 b 983 386 999 381 994 386 b 869 361 968 386 897 369 b 844 331 856 357 844 350 l 844 226 b 824 203 844 206 843 203 l 722 203 b 701 218 697 203 694 210 l 974 561 b 969 592 988 579 985 592 l 929 592 b 901 575 917 592 910 585 l 601 182 b 611 150 599 169 601 156 l 824 150 b 844 125 843 150 844 149 z m 872 875 b 807 908 865 899 828 911 l 293 -22 b 358 -56 303 -46 333 -61 z m 194 478 b 153 383 194 407 196 389 l 111 378 b 114 340 103 369 104 346 b 272 343 165 342 221 343 b 432 340 325 343 381 342 b 435 378 442 346 443 369 l 393 383 b 351 478 350 389 351 407 l 351 756 b 356 878 351 801 354 854 b 339 889 354 885 349 889 b 107 819 285 860 189 831 b 107 781 96 813 96 788 l 150 775 b 194 700 190 769 194 749 z "},"÷":{"ha":722,"x_min":0,"x_max":0,"o":"m 363 14 b 444 99 406 14 444 51 b 363 182 444 144 406 182 b 278 99 315 182 278 144 b 363 14 278 51 315 14 z m 363 410 b 444 494 406 410 444 447 b 363 578 444 540 406 578 b 278 494 315 578 278 540 b 363 410 278 447 315 410 z m 640 246 l 640 346 l 83 346 l 83 246 z "},"¦":{"ha":344,"x_min":0,"x_max":0,"o":"m 233 938 l 111 938 l 111 451 l 233 451 z m 233 243 l 111 243 l 111 -243 l 233 -243 z "},"°":{"ha":519,"x_min":0,"x_max":0,"o":"m 260 889 b 56 692 149 889 56 811 b 260 494 56 567 149 494 b 464 692 371 494 464 567 b 260 889 464 811 371 889 z m 368 692 b 260 556 368 611 329 556 b 151 692 197 556 151 611 b 260 828 151 771 197 828 b 368 692 322 828 368 771 z "},"þ":{"ha":740,"x_min":0,"x_max":0,"o":"m 101 -193 b 50 -307 101 -290 96 -303 l 22 -310 b 24 -358 11 -318 11 -350 b 189 -354 74 -356 128 -354 b 379 -358 254 -354 310 -356 b 381 -310 392 -350 392 -318 l 333 -306 b 282 -193 288 -301 282 -290 l 282 -56 b 303 -15 282 -26 290 -18 b 365 -19 315 -18 346 -19 b 706 310 568 -19 706 115 b 469 575 706 460 617 575 b 293 519 393 575 332 540 b 282 532 288 521 282 529 l 282 753 b 286 956 282 840 283 899 b 263 965 281 963 271 965 b 50 888 190 935 107 901 b 50 846 40 879 40 854 l 74 832 b 101 744 101 815 101 800 z m 282 379 b 297 460 282 433 290 451 b 356 479 308 474 332 479 b 514 265 447 479 514 401 b 381 44 514 136 467 44 b 314 76 358 44 332 57 b 282 157 293 97 282 126 z "},"¾":{"ha":1167,"x_min":0,"x_max":0,"o":"m 893 106 b 836 36 893 47 893 39 l 808 35 b 811 -3 800 28 800 3 b 958 0 851 -1 906 0 b 1114 -3 1011 0 1060 -1 b 1115 35 1125 4 1125 28 l 1097 36 b 1047 106 1050 40 1047 51 l 1047 125 b 1068 150 1047 149 1049 150 l 1129 150 b 1129 203 1144 158 1144 197 l 1068 203 b 1047 226 1049 203 1047 206 l 1047 372 b 1032 386 1047 381 1043 386 b 918 361 1017 386 946 369 b 893 331 904 357 893 350 l 893 226 b 872 203 893 206 892 203 l 771 203 b 750 218 746 203 743 210 l 1022 561 b 1018 592 1036 579 1033 592 l 978 592 b 950 575 965 592 958 585 l 650 182 b 660 150 647 169 650 156 l 872 150 b 893 125 892 150 893 149 z m 907 875 b 842 908 900 899 863 911 l 328 -22 b 393 -56 338 -46 368 -61 z m 165 289 b 381 354 215 289 304 306 b 496 529 461 404 496 461 b 350 665 496 622 421 657 b 339 678 339 667 329 674 b 446 786 428 714 446 746 b 294 889 446 844 385 889 b 97 771 215 889 136 846 b 132 747 96 754 115 740 b 235 817 165 797 204 817 b 297 761 275 817 297 793 b 124 622 297 685 179 643 b 146 572 113 607 119 578 b 239 607 171 594 201 607 b 329 490 292 607 329 563 b 225 344 329 386 264 343 b 185 368 207 344 196 351 b 119 419 174 383 154 419 b 60 363 75 419 60 386 b 165 289 60 310 118 289 z "},"²":{"ha":556,"x_min":0,"x_max":0,"o":"m 292 444 b 450 442 374 444 413 443 b 504 590 468 469 496 544 b 472 596 497 597 483 600 b 356 549 449 551 419 549 l 269 549 b 258 572 251 549 244 560 l 293 601 l 336 633 b 472 835 444 714 472 776 b 285 990 472 924 407 990 b 69 851 200 990 117 944 b 108 828 69 829 94 818 b 221 910 136 878 175 910 b 303 814 272 910 303 871 b 199 594 303 729 249 647 b 58 468 124 518 90 493 b 68 442 56 460 58 447 b 158 444 83 443 107 444 z "},"®":{"ha":481,"x_min":0,"x_max":0,"o":"m 171 703 b 153 671 171 679 171 675 l 146 669 b 149 654 143 668 143 656 b 196 656 163 654 178 656 b 246 654 215 656 229 654 b 246 669 249 656 249 668 l 240 671 b 221 703 221 674 221 681 l 221 725 b 228 732 221 728 222 732 b 242 724 233 732 239 729 b 265 685 250 710 257 697 b 326 653 281 663 300 653 b 350 654 335 653 342 653 b 350 665 353 656 353 665 b 335 674 344 667 342 669 b 293 735 324 682 310 703 b 293 746 290 742 290 744 b 324 789 307 751 324 767 b 240 840 324 833 276 840 b 149 838 213 840 183 839 b 146 821 143 836 143 826 l 153 821 b 171 790 167 819 171 810 z m 221 807 b 239 819 221 817 222 819 b 265 781 254 819 265 806 b 238 750 265 769 260 750 b 221 761 222 750 221 750 z m 240 940 b 42 746 131 940 42 853 b 240 551 42 639 131 551 b 439 746 350 551 439 639 b 240 940 439 853 350 940 z m 240 907 b 392 746 324 907 392 836 b 240 586 392 657 324 586 b 89 746 158 586 89 657 b 240 907 89 836 158 907 z "},"−":{"ha":722,"x_min":0,"x_max":0,"o":"m 640 246 l 640 346 l 83 346 l 83 246 z "},"ð":{"ha":717,"x_min":0,"x_max":0,"o":"m 682 875 b 656 940 689 896 678 931 l 469 851 b 325 949 425 893 376 925 b 118 993 276 972 199 993 b 117 947 97 986 103 954 b 231 901 160 942 203 918 b 351 792 274 875 317 836 l 169 704 b 192 638 161 685 165 649 l 392 735 b 465 558 431 674 458 619 b 372 575 443 568 414 575 b 43 267 199 575 42 465 b 343 -19 44 75 186 -19 b 675 392 525 -19 675 82 b 592 703 675 474 656 593 b 522 799 569 740 544 772 z m 374 511 b 447 479 399 511 425 500 b 481 385 464 463 479 436 b 457 131 482 272 475 188 b 368 44 439 74 408 44 b 243 276 286 44 243 142 b 374 511 243 449 304 511 z "},"×":{"ha":722,"x_min":0,"x_max":0,"o":"m 636 488 l 564 561 l 361 356 l 158 558 l 88 483 l 288 282 l 88 81 l 158 6 l 360 210 l 564 6 l 636 81 l 433 283 z "},"³":{"ha":556,"x_min":0,"x_max":0,"o":"m 161 390 b 376 456 211 390 300 407 b 492 631 457 506 492 563 b 346 767 492 724 417 758 b 335 779 335 768 325 775 b 442 888 424 815 442 847 b 290 990 442 946 381 990 b 93 872 211 990 132 947 b 128 849 92 856 111 842 b 231 918 161 899 200 918 b 293 863 271 918 293 894 b 119 724 293 786 175 744 b 142 674 108 708 115 679 b 235 708 167 696 197 708 b 325 592 288 708 325 664 b 221 446 325 488 260 444 b 181 469 203 446 192 453 b 115 521 169 485 150 521 b 56 464 71 521 56 488 b 161 390 56 411 114 390 z "},"©":{"ha":1083,"x_min":0,"x_max":0,"o":"m 586 207 b 743 244 624 207 699 215 b 779 368 760 272 775 324 b 743 371 771 378 751 379 b 600 256 703 296 658 256 b 444 464 524 256 444 317 b 592 671 444 622 531 671 b 722 549 633 671 693 647 b 760 553 731 542 753 543 b 747 696 756 601 751 653 b 586 719 717 701 663 719 b 296 457 404 719 296 606 b 586 207 296 361 350 207 z m 542 -22 b 1028 458 810 -22 1028 193 b 542 939 1028 724 810 939 b 56 458 274 939 56 724 b 542 -22 56 193 274 -22 z m 933 460 b 542 43 933 228 756 43 b 150 460 328 43 150 228 b 542 874 150 692 328 874 b 933 460 756 874 933 692 z "},"Á":{"ha":867,"x_min":0,"x_max":0,"o":"m 450 314 b 517 289 499 314 510 311 l 554 169 b 581 75 571 118 581 85 b 543 51 581 67 575 57 l 499 44 b 501 -4 483 33 486 4 b 689 0 565 -1 619 0 b 903 -4 761 0 836 -1 b 904 44 915 4 913 38 l 851 53 b 758 176 800 61 788 93 l 569 721 b 507 911 535 819 518 871 b 475 939 501 932 493 939 b 354 856 472 939 421 871 b 300 679 358 815 332 767 l 175 340 b 89 118 138 240 113 174 b 4 49 65 64 38 53 l -33 44 b -29 -4 -43 33 -44 4 b 114 0 35 -4 67 0 b 276 -4 172 -1 228 -1 b 279 44 290 3 288 35 l 238 51 b 188 75 199 58 188 67 b 197 125 188 86 189 97 l 249 286 b 294 314 257 313 261 314 z m 322 388 b 293 429 288 388 281 392 l 328 533 b 385 686 349 597 371 656 b 435 540 397 657 415 600 l 471 428 b 443 388 482 392 475 388 z m 346 1015 b 361 981 342 1000 350 985 l 633 1069 b 678 1104 661 1078 675 1093 b 664 1164 681 1114 681 1135 b 617 1207 647 1196 631 1207 b 571 1183 607 1207 593 1200 z "},"Â":{"ha":867,"x_min":0,"x_max":0,"o":"m 450 314 b 517 289 499 314 510 311 l 554 169 b 581 75 571 118 581 85 b 543 51 581 67 575 57 l 499 44 b 501 -4 483 33 486 4 b 689 0 565 -1 619 0 b 903 -4 761 0 836 -1 b 904 44 915 4 913 38 l 851 53 b 758 176 800 61 788 93 l 569 721 b 507 911 535 819 518 871 b 475 939 501 932 493 939 b 354 856 472 939 421 871 b 300 679 358 815 332 767 l 175 340 b 89 118 138 240 113 174 b 4 49 65 64 38 53 l -33 44 b -29 -4 -43 33 -44 4 b 114 0 35 -4 67 0 b 276 -4 172 -1 228 -1 b 279 44 290 3 288 35 l 238 51 b 188 75 199 58 188 67 b 197 125 188 86 189 97 l 249 286 b 294 314 257 313 261 314 z m 322 388 b 293 429 288 388 281 392 l 328 533 b 385 686 349 597 371 656 b 435 540 397 657 415 600 l 471 428 b 443 388 482 392 475 388 z m 638 981 b 656 1014 647 982 661 999 l 479 1179 b 414 1179 460 1197 433 1199 l 238 1014 b 257 981 232 999 244 981 l 424 1056 b 469 1056 439 1063 454 1063 z "},"Ä":{"ha":867,"x_min":0,"x_max":0,"o":"m 450 314 b 517 289 499 314 510 311 l 554 169 b 581 75 571 118 581 85 b 543 51 581 67 575 57 l 499 44 b 501 -4 483 33 486 4 b 689 0 565 -1 619 0 b 903 -4 761 0 836 -1 b 904 44 915 4 913 38 l 851 53 b 758 176 800 61 788 93 l 569 721 b 507 911 535 819 518 871 b 475 939 501 932 493 939 b 354 856 472 939 421 871 b 300 679 358 815 332 767 l 175 340 b 89 118 138 240 113 174 b 4 49 65 64 38 53 l -33 44 b -29 -4 -43 33 -44 4 b 114 0 35 -4 67 0 b 276 -4 172 -1 228 -1 b 279 44 290 3 288 35 l 238 51 b 188 75 199 58 188 67 b 197 125 188 86 189 97 l 249 286 b 294 314 257 313 261 314 z m 322 388 b 293 429 288 388 281 392 l 328 533 b 385 686 349 597 371 656 b 435 540 397 657 415 600 l 471 428 b 443 388 482 392 475 388 z m 289 989 b 372 1076 338 989 372 1024 b 289 1158 372 1119 338 1158 b 204 1069 240 1158 204 1121 b 289 989 206 1017 242 989 z m 579 989 b 663 1076 628 989 663 1024 b 579 1158 663 1119 628 1158 b 494 1069 531 1158 494 1121 b 579 989 496 1017 532 989 z "},"À":{"ha":867,"x_min":0,"x_max":0,"o":"m 450 314 b 517 289 499 314 510 311 l 554 169 b 581 75 571 118 581 85 b 543 51 581 67 575 57 l 499 44 b 501 -4 483 33 486 4 b 689 0 565 -1 619 0 b 903 -4 761 0 836 -1 b 904 44 915 4 913 38 l 851 53 b 758 176 800 61 788 93 l 569 721 b 507 911 535 819 518 871 b 475 939 501 932 493 939 b 354 856 472 939 421 871 b 300 679 358 815 332 767 l 175 340 b 89 118 138 240 113 174 b 4 49 65 64 38 53 l -33 44 b -29 -4 -43 33 -44 4 b 114 0 35 -4 67 0 b 276 -4 172 -1 228 -1 b 279 44 290 3 288 35 l 238 51 b 188 75 199 58 188 67 b 197 125 188 86 189 97 l 249 286 b 294 314 257 313 261 314 z m 322 388 b 293 429 288 388 281 392 l 328 533 b 385 686 349 597 371 656 b 435 540 397 657 415 600 l 471 428 b 443 388 482 392 475 388 z m 322 1186 b 276 1207 300 1201 286 1207 b 229 1164 263 1207 246 1196 b 215 1104 213 1135 213 1114 b 260 1069 218 1093 232 1078 l 532 981 b 547 1022 543 990 551 1011 z "},"Å":{"ha":867,"x_min":0,"x_max":0,"o":"m 450 314 b 517 289 499 314 510 311 l 554 169 b 581 75 571 118 581 85 b 543 51 581 67 575 57 l 499 44 b 501 -4 483 33 486 4 b 689 0 565 -1 619 0 b 903 -4 761 0 836 -1 b 904 44 915 4 913 38 l 851 53 b 758 176 800 61 788 93 l 569 721 b 507 911 535 819 518 871 b 475 939 501 932 493 939 b 354 856 472 939 421 871 b 300 679 358 815 332 767 l 175 340 b 89 118 138 240 113 174 b 4 49 65 64 38 53 l -33 44 b -29 -4 -43 33 -44 4 b 114 0 35 -4 67 0 b 276 -4 172 -1 228 -1 b 279 44 290 3 288 35 l 238 51 b 188 75 199 58 188 67 b 197 125 188 86 189 97 l 249 286 b 294 314 257 313 261 314 z m 322 388 b 293 429 288 388 281 392 l 328 533 b 385 686 349 597 371 656 b 435 540 397 657 415 600 l 471 428 b 443 388 482 392 475 388 z m 433 957 b 576 1094 522 957 576 1025 b 433 1231 576 1164 522 1231 b 290 1094 344 1231 290 1164 b 433 957 290 1025 344 957 z m 433 1010 b 371 1094 393 1010 371 1049 b 433 1182 371 1140 393 1179 b 496 1094 474 1179 496 1140 b 433 1010 496 1049 474 1010 z "},"Ã":{"ha":867,"x_min":0,"x_max":0,"o":"m 450 314 b 517 289 499 314 510 311 l 554 169 b 581 75 571 118 581 85 b 543 51 581 67 575 57 l 499 44 b 501 -4 483 33 486 4 b 689 0 565 -1 619 0 b 903 -4 761 0 836 -1 b 904 44 915 4 913 38 l 851 53 b 758 176 800 61 788 93 l 569 721 b 507 911 535 819 518 871 b 475 939 501 932 493 939 b 354 856 472 939 421 871 b 300 679 358 815 332 767 l 175 340 b 89 118 138 240 113 174 b 4 49 65 64 38 53 l -33 44 b -29 -4 -43 33 -44 4 b 114 0 35 -4 67 0 b 276 -4 172 -1 228 -1 b 279 44 290 3 288 35 l 238 51 b 188 75 199 58 188 67 b 197 125 188 86 189 97 l 249 286 b 294 314 257 313 261 314 z m 322 388 b 293 429 288 388 281 392 l 328 533 b 385 686 349 597 371 656 b 435 540 397 657 415 600 l 471 428 b 443 388 482 392 475 388 z m 501 1026 b 597 1069 551 1026 574 1038 b 650 1200 621 1104 640 1151 b 600 1208 644 1210 619 1213 b 492 1136 575 1146 540 1136 l 401 1136 b 304 1093 358 1136 331 1125 b 238 953 278 1063 247 989 b 289 943 244 940 274 938 b 426 1026 325 1007 354 1026 z "},"Ç":{"ha":957,"x_min":0,"x_max":0,"o":"m 479 -147 l 483 -158 b 589 -258 533 -179 589 -214 b 553 -293 589 -281 568 -293 b 458 -242 522 -293 497 -242 b 414 -287 432 -242 414 -262 b 521 -349 414 -326 454 -349 b 697 -219 611 -349 697 -296 b 613 -101 697 -165 664 -129 b 600 -72 592 -90 590 -86 l 636 -21 b 888 29 733 -17 819 10 b 940 247 907 61 931 144 b 888 257 932 264 899 268 b 604 42 850 163 772 42 b 278 467 438 42 278 190 b 597 875 278 743 443 875 b 858 676 732 875 821 806 b 911 686 868 664 906 669 b 894 903 899 767 894 878 b 608 939 853 906 750 939 b 224 815 464 939 322 897 b 56 447 128 736 56 617 b 232 83 56 275 132 160 b 564 -21 321 17 442 -15 z "},"É":{"ha":824,"x_min":0,"x_max":0,"o":"m 357 799 b 403 853 357 850 357 853 l 514 853 b 650 810 582 853 624 836 b 703 700 668 790 688 749 b 754 706 717 688 749 690 b 736 921 747 799 738 899 b 550 917 718 918 639 917 l 256 917 b 56 921 189 917 121 918 b 53 872 42 913 40 881 l 88 865 b 158 718 150 853 158 844 l 158 200 b 88 54 158 72 150 64 l 22 44 b 22 -4 11 38 11 4 b 261 0 126 -1 194 0 l 442 0 b 763 -4 556 0 689 -1 b 821 218 782 33 815 146 b 769 225 815 235 781 240 b 525 64 693 68 646 64 b 379 100 424 64 397 75 b 357 232 363 124 357 168 l 357 397 b 396 440 357 439 358 440 l 492 440 b 594 363 564 440 581 429 l 601 328 b 653 329 611 315 646 317 b 649 476 650 374 649 424 b 653 624 649 529 650 579 b 601 625 646 636 611 636 l 594 590 b 492 514 581 524 564 514 l 396 514 b 357 556 358 514 357 517 z m 353 1015 b 368 981 349 1000 357 985 l 640 1069 b 685 1104 668 1078 682 1093 b 671 1164 688 1114 688 1135 b 624 1207 654 1196 638 1207 b 578 1183 614 1207 600 1200 z "},"Ê":{"ha":824,"x_min":0,"x_max":0,"o":"m 357 799 b 403 853 357 850 357 853 l 514 853 b 650 810 582 853 624 836 b 703 700 668 790 688 749 b 754 706 717 688 749 690 b 736 921 747 799 738 899 b 550 917 718 918 639 917 l 256 917 b 56 921 189 917 121 918 b 53 872 42 913 40 881 l 88 865 b 158 718 150 853 158 844 l 158 200 b 88 54 158 72 150 64 l 22 44 b 22 -4 11 38 11 4 b 261 0 126 -1 194 0 l 442 0 b 763 -4 556 0 689 -1 b 821 218 782 33 815 146 b 769 225 815 235 781 240 b 525 64 693 68 646 64 b 379 100 424 64 397 75 b 357 232 363 124 357 168 l 357 397 b 396 440 357 439 358 440 l 492 440 b 594 363 564 440 581 429 l 601 328 b 653 329 611 315 646 317 b 649 476 650 374 649 424 b 653 624 649 529 650 579 b 601 625 646 636 611 636 l 594 590 b 492 514 581 524 564 514 l 396 514 b 357 556 358 514 357 517 z m 599 981 b 615 1013 608 982 621 997 l 447 1169 b 386 1169 429 1188 406 1188 l 218 1013 b 236 981 213 997 224 981 l 394 1049 b 439 1047 410 1056 424 1054 z "},"Ë":{"ha":824,"x_min":0,"x_max":0,"o":"m 357 799 b 403 853 357 850 357 853 l 514 853 b 650 810 582 853 624 836 b 703 700 668 790 688 749 b 754 706 717 688 749 690 b 736 921 747 799 738 899 b 550 917 718 918 639 917 l 256 917 b 56 921 189 917 121 918 b 53 872 42 913 40 881 l 88 865 b 158 718 150 853 158 844 l 158 200 b 88 54 158 72 150 64 l 22 44 b 22 -4 11 38 11 4 b 261 0 126 -1 194 0 l 442 0 b 763 -4 556 0 689 -1 b 821 218 782 33 815 146 b 769 225 815 235 781 240 b 525 64 693 68 646 64 b 379 100 424 64 397 75 b 357 232 363 124 357 168 l 357 397 b 396 440 357 439 358 440 l 492 440 b 594 363 564 440 581 429 l 601 328 b 653 329 611 315 646 317 b 649 476 650 374 649 424 b 653 624 649 529 650 579 b 601 625 646 636 611 636 l 594 590 b 492 514 581 524 564 514 l 396 514 b 357 556 358 514 357 517 z m 288 989 b 371 1076 336 989 371 1024 b 288 1158 371 1119 336 1158 b 203 1069 239 1158 203 1121 b 288 989 204 1017 240 989 z m 578 989 b 661 1076 626 989 661 1024 b 578 1158 661 1119 626 1158 b 493 1069 529 1158 493 1121 b 578 989 494 1017 531 989 z "},"È":{"ha":824,"x_min":0,"x_max":0,"o":"m 357 799 b 403 853 357 850 357 853 l 514 853 b 650 810 582 853 624 836 b 703 700 668 790 688 749 b 754 706 717 688 749 690 b 736 921 747 799 738 899 b 550 917 718 918 639 917 l 256 917 b 56 921 189 917 121 918 b 53 872 42 913 40 881 l 88 865 b 158 718 150 853 158 844 l 158 200 b 88 54 158 72 150 64 l 22 44 b 22 -4 11 38 11 4 b 261 0 126 -1 194 0 l 442 0 b 763 -4 556 0 689 -1 b 821 218 782 33 815 146 b 769 225 815 235 781 240 b 525 64 693 68 646 64 b 379 100 424 64 397 75 b 357 232 363 124 357 168 l 357 397 b 396 440 357 439 358 440 l 492 440 b 594 363 564 440 581 429 l 601 328 b 653 329 611 315 646 317 b 649 476 650 374 649 424 b 653 624 649 529 650 579 b 601 625 646 636 611 636 l 594 590 b 492 514 581 524 564 514 l 396 514 b 357 556 358 514 357 517 z m 288 1186 b 242 1207 265 1201 251 1207 b 194 1164 228 1207 211 1196 b 181 1104 178 1135 178 1114 b 225 1069 183 1093 197 1078 l 497 981 b 513 1022 508 990 517 1011 z "},"Í":{"ha":515,"x_min":0,"x_max":0,"o":"m 357 714 b 429 865 357 844 365 854 l 468 872 b 468 921 479 881 479 913 b 258 917 393 918 324 917 b 47 921 192 917 122 918 b 47 872 36 913 36 881 l 86 865 b 158 714 150 854 158 844 l 158 203 b 86 51 158 72 150 63 l 47 44 b 47 -4 36 36 36 4 b 258 0 122 -1 192 0 b 467 -4 324 0 392 -1 b 468 44 478 4 479 36 l 429 51 b 357 203 365 63 357 72 z m 157 1015 b 172 981 153 1000 161 985 l 444 1069 b 489 1104 472 1078 486 1093 b 475 1169 492 1114 492 1135 b 428 1213 458 1201 442 1213 b 382 1189 418 1213 404 1206 z "},"Î":{"ha":515,"x_min":0,"x_max":0,"o":"m 357 714 b 429 865 357 844 365 854 l 468 872 b 468 921 479 881 479 913 b 258 917 393 918 324 917 b 47 921 192 917 122 918 b 47 872 36 913 36 881 l 86 865 b 158 714 150 854 158 844 l 158 203 b 86 51 158 72 150 63 l 47 44 b 47 -4 36 36 36 4 b 258 0 122 -1 192 0 b 467 -4 324 0 392 -1 b 468 44 478 4 479 36 l 429 51 b 357 203 365 63 357 72 z m 456 981 b 474 1014 465 982 479 999 l 297 1179 b 232 1179 278 1197 251 1199 l 56 1014 b 75 981 50 999 63 981 l 242 1054 b 288 1054 257 1061 272 1061 z "},"Ï":{"ha":515,"x_min":0,"x_max":0,"o":"m 357 714 b 429 865 357 844 365 854 l 468 872 b 468 921 479 881 479 913 b 258 917 393 918 324 917 b 47 921 192 917 122 918 b 47 872 36 913 36 881 l 86 865 b 158 714 150 854 158 844 l 158 203 b 86 51 158 72 150 63 l 47 44 b 47 -4 36 36 36 4 b 258 0 122 -1 192 0 b 467 -4 324 0 392 -1 b 468 44 478 4 479 36 l 429 51 b 357 203 365 63 357 72 z m 114 989 b 197 1076 163 989 197 1024 b 114 1158 197 1119 163 1158 b 29 1069 65 1158 29 1121 b 114 989 31 1017 67 989 z m 404 989 b 488 1076 453 989 488 1024 b 404 1158 488 1119 453 1158 b 319 1069 356 1158 319 1121 b 404 989 321 1017 357 989 z "},"Ì":{"ha":515,"x_min":0,"x_max":0,"o":"m 357 714 b 429 865 357 844 365 854 l 468 872 b 468 921 479 881 479 913 b 258 917 393 918 324 917 b 47 921 192 917 122 918 b 47 872 36 913 36 881 l 86 865 b 158 714 150 854 158 844 l 158 203 b 86 51 158 72 150 63 l 47 44 b 47 -4 36 36 36 4 b 258 0 122 -1 192 0 b 467 -4 324 0 392 -1 b 468 44 478 4 479 36 l 429 51 b 357 203 365 63 357 72 z m 138 1192 b 93 1214 117 1208 103 1214 b 40 1163 79 1214 63 1196 b 25 1104 22 1135 22 1114 b 69 1069 28 1093 42 1078 l 342 981 b 357 1022 353 990 361 1011 z "},"Ñ":{"ha":1039,"x_min":0,"x_max":0,"o":"m 906 568 b 926 822 906 681 911 785 b 1001 868 939 851 965 863 l 1026 872 b 1026 921 1038 883 1035 913 b 871 917 972 918 922 917 b 685 921 814 917 760 918 b 685 872 676 913 674 883 l 722 867 b 803 822 760 861 790 851 b 824 568 818 785 824 681 l 824 376 b 818 314 824 351 824 328 b 685 467 786 346 746 394 l 568 604 b 339 921 443 753 353 858 b 222 917 310 918 269 917 b 31 921 165 917 96 918 b 25 872 17 917 15 883 l 64 867 b 143 819 113 860 132 843 b 153 701 151 800 153 778 l 153 349 b 133 94 153 236 149 132 b 57 49 122 65 94 56 l 33 44 b 33 -4 22 33 25 4 b 189 0 86 -1 138 0 b 375 -4 244 0 300 -1 b 375 44 383 4 386 33 l 336 50 b 256 94 300 56 268 65 b 235 349 240 132 235 236 l 235 618 b 242 707 235 669 235 693 b 393 529 267 686 313 628 l 714 132 b 826 -19 779 51 825 -19 b 908 13 860 -19 899 -4 b 906 236 906 58 906 146 z m 615 1036 b 707 1076 664 1036 685 1046 b 758 1201 731 1110 747 1156 b 710 1208 751 1210 729 1213 b 607 1140 686 1150 653 1140 l 521 1140 b 428 1100 481 1140 454 1131 b 365 967 404 1071 375 1001 b 414 958 372 954 400 951 b 544 1036 449 1017 476 1036 z "},"Ó":{"ha":1094,"x_min":0,"x_max":0,"o":"m 551 939 b 56 451 261 939 56 726 b 538 -22 56 161 258 -22 b 1039 463 836 -22 1039 160 b 551 939 1039 744 840 939 z m 817 444 b 564 42 817 219 746 42 b 278 483 338 42 278 314 b 540 875 278 715 369 875 b 817 444 713 875 817 682 z m 446 1015 b 461 981 442 1000 450 985 l 733 1069 b 778 1104 761 1078 775 1093 b 764 1164 781 1114 781 1135 b 717 1207 747 1196 731 1207 b 671 1183 707 1207 693 1200 z "},"Ô":{"ha":1094,"x_min":0,"x_max":0,"o":"m 551 939 b 56 451 261 939 56 726 b 538 -22 56 161 258 -22 b 1039 463 836 -22 1039 160 b 551 939 1039 744 840 939 z m 817 444 b 564 42 817 219 746 42 b 278 483 338 42 278 314 b 540 875 278 715 369 875 b 817 444 713 875 817 682 z m 746 981 b 764 1014 756 982 769 999 l 588 1179 b 522 1179 568 1197 542 1199 l 346 1014 b 365 981 340 999 353 981 l 532 1051 b 578 1050 547 1060 563 1058 z "},"Ö":{"ha":1094,"x_min":0,"x_max":0,"o":"m 551 939 b 56 451 261 939 56 726 b 538 -22 56 161 258 -22 b 1039 463 836 -22 1039 160 b 551 939 1039 744 840 939 z m 817 444 b 564 42 817 219 746 42 b 278 483 338 42 278 314 b 540 875 278 715 369 875 b 817 444 713 875 817 682 z m 403 989 b 486 1076 451 989 486 1024 b 403 1158 486 1119 451 1158 b 318 1069 354 1158 318 1121 b 403 989 319 1017 356 989 z m 693 989 b 776 1076 742 989 776 1024 b 693 1158 776 1119 742 1158 b 608 1069 644 1158 608 1121 b 693 989 610 1017 646 989 z "},"Ò":{"ha":1094,"x_min":0,"x_max":0,"o":"m 551 939 b 56 451 261 939 56 726 b 538 -22 56 161 258 -22 b 1039 463 836 -22 1039 160 b 551 939 1039 744 840 939 z m 817 444 b 564 42 817 219 746 42 b 278 483 338 42 278 314 b 540 875 278 715 369 875 b 817 444 713 875 817 682 z m 436 1186 b 390 1207 414 1201 400 1207 b 343 1164 376 1207 360 1196 b 329 1104 326 1135 326 1114 b 374 1069 332 1093 346 1078 l 646 981 b 661 1022 657 990 665 1011 z "},"Õ":{"ha":1094,"x_min":0,"x_max":0,"o":"m 551 939 b 56 451 261 939 56 726 b 538 -22 56 161 258 -22 b 1039 463 836 -22 1039 160 b 551 939 1039 744 840 939 z m 817 444 b 564 42 817 219 746 42 b 278 483 338 42 278 314 b 540 875 278 715 369 875 b 817 444 713 875 817 682 z m 601 1036 b 694 1076 650 1036 674 1046 b 744 1203 718 1111 735 1156 b 697 1210 739 1211 715 1214 b 593 1142 674 1150 640 1142 l 507 1142 b 414 1100 467 1142 440 1131 b 351 967 389 1071 360 1001 b 400 957 357 954 385 951 b 531 1036 435 1017 463 1036 z "},"Š":{"ha":703,"x_min":0,"x_max":0,"o":"m 663 260 b 467 539 663 413 553 493 l 375 588 b 249 746 306 624 249 682 b 390 875 249 815 299 875 b 574 703 490 875 550 774 b 628 707 586 689 621 690 b 603 906 628 800 614 875 b 556 917 586 908 574 911 b 397 939 500 933 443 939 b 75 674 196 939 74 831 b 285 403 75 536 185 453 b 474 182 368 361 474 294 b 324 42 474 113 426 42 b 85 260 206 42 113 169 b 32 256 74 275 42 274 b 76 31 32 161 50 61 b 313 -22 106 14 185 -22 b 663 260 522 -22 663 89 z m 167 1196 b 150 1160 157 1194 147 1176 l 328 997 b 389 997 347 979 368 979 l 568 1160 b 550 1196 571 1176 563 1196 l 383 1125 b 335 1126 364 1117 353 1119 z "},"Ú":{"ha":1028,"x_min":0,"x_max":0,"o":"m 151 369 b 254 56 151 218 182 115 b 529 -22 329 -6 424 -22 b 804 78 642 -22 743 13 b 893 413 881 163 893 282 l 893 568 b 914 822 893 681 899 786 b 989 868 926 851 953 860 l 1014 874 b 1014 921 1025 885 1022 913 b 858 917 961 918 910 917 b 672 921 801 917 747 918 b 672 874 664 913 661 885 l 710 867 b 790 822 747 860 778 851 b 811 568 806 786 811 681 l 811 400 b 579 54 811 210 757 54 b 350 396 368 54 350 233 l 350 717 b 421 868 350 846 358 857 l 454 874 b 454 921 465 882 465 913 b 251 917 388 918 319 917 b 49 921 185 917 115 918 b 46 874 33 913 35 882 l 81 867 b 151 717 143 854 151 846 z m 468 1015 b 483 981 464 1000 472 985 l 756 1069 b 800 1104 783 1078 797 1093 b 786 1164 803 1114 803 1135 b 739 1207 769 1196 753 1207 b 693 1183 729 1207 715 1200 z "},"Û":{"ha":1028,"x_min":0,"x_max":0,"o":"m 151 369 b 254 56 151 218 182 115 b 529 -22 329 -6 424 -22 b 804 78 642 -22 743 13 b 893 413 881 163 893 282 l 893 568 b 914 822 893 681 899 786 b 989 868 926 851 953 860 l 1014 874 b 1014 921 1025 885 1022 913 b 858 917 961 918 910 917 b 672 921 801 917 747 918 b 672 874 664 913 661 885 l 710 867 b 790 822 747 860 778 851 b 811 568 806 786 811 681 l 811 400 b 579 54 811 210 757 54 b 350 396 368 54 350 233 l 350 717 b 421 868 350 846 358 857 l 454 874 b 454 921 465 882 465 913 b 251 917 388 918 319 917 b 49 921 185 917 115 918 b 46 874 33 913 35 882 l 81 867 b 151 717 143 854 151 846 z m 711 981 b 728 1013 721 982 733 997 l 560 1169 b 499 1169 542 1188 518 1188 l 331 1013 b 349 981 325 997 336 981 l 507 1047 b 551 1047 522 1056 536 1054 z "},"Ü":{"ha":1028,"x_min":0,"x_max":0,"o":"m 151 369 b 254 56 151 218 182 115 b 529 -22 329 -6 424 -22 b 804 78 642 -22 743 13 b 893 413 881 163 893 282 l 893 568 b 914 822 893 681 899 786 b 989 868 926 851 953 860 l 1014 874 b 1014 921 1025 885 1022 913 b 858 917 961 918 910 917 b 672 921 801 917 747 918 b 672 874 664 913 661 885 l 710 867 b 790 822 747 860 778 851 b 811 568 806 786 811 681 l 811 400 b 579 54 811 210 757 54 b 350 396 368 54 350 233 l 350 717 b 421 868 350 846 358 857 l 454 874 b 454 921 465 882 465 913 b 251 917 388 918 319 917 b 49 921 185 917 115 918 b 46 874 33 913 35 882 l 81 867 b 151 717 143 854 151 846 z m 397 989 b 481 1076 446 989 481 1024 b 397 1158 481 1119 446 1158 b 313 1069 349 1158 313 1121 b 397 989 314 1017 350 989 z m 688 989 b 771 1076 736 989 771 1024 b 688 1158 771 1119 736 1158 b 603 1069 639 1158 603 1121 b 688 989 604 1017 640 989 z "},"Ù":{"ha":1028,"x_min":0,"x_max":0,"o":"m 151 369 b 254 56 151 218 182 115 b 529 -22 329 -6 424 -22 b 804 78 642 -22 743 13 b 893 413 881 163 893 282 l 893 568 b 914 822 893 681 899 786 b 989 868 926 851 953 860 l 1014 874 b 1014 921 1025 885 1022 913 b 858 917 961 918 910 917 b 672 921 801 917 747 918 b 672 874 664 913 661 885 l 710 867 b 790 822 747 860 778 851 b 811 568 806 786 811 681 l 811 400 b 579 54 811 210 757 54 b 350 396 368 54 350 233 l 350 717 b 421 868 350 846 358 857 l 454 874 b 454 921 465 882 465 913 b 251 917 388 918 319 917 b 49 921 185 917 115 918 b 46 874 33 913 35 882 l 81 867 b 151 717 143 854 151 846 z m 403 1186 b 357 1207 381 1201 367 1207 b 310 1164 343 1207 326 1196 b 296 1104 293 1135 293 1114 b 340 1069 299 1093 313 1078 l 613 981 b 628 1022 624 990 632 1011 z "},"Ý":{"ha":799,"x_min":0,"x_max":0,"o":"m 510 297 b 560 476 510 376 524 411 l 647 635 b 769 832 714 756 749 806 b 836 865 785 851 811 861 l 872 872 b 867 921 883 882 883 915 b 731 917 826 918 783 917 b 575 921 681 917 631 918 b 574 872 561 914 563 879 l 606 867 b 653 847 639 861 653 856 b 581 686 653 831 633 785 b 464 467 543 615 504 535 b 400 603 447 501 421 557 l 335 751 b 299 849 306 817 299 838 b 332 861 299 850 307 856 l 379 872 b 376 921 392 883 389 915 b 174 917 329 918 258 917 b -22 921 92 917 40 918 b -28 872 -39 917 -40 883 l 19 864 b 108 776 68 856 81 833 l 274 435 b 311 269 310 361 311 339 l 311 200 b 240 51 311 71 303 61 l 193 44 b 193 -4 182 36 182 4 b 411 0 275 -1 344 0 b 636 -4 478 0 546 -1 b 636 44 646 4 646 36 l 581 51 b 510 200 518 60 510 71 z m 340 1015 b 356 981 336 1000 344 985 l 628 1069 b 672 1104 656 1078 669 1093 b 658 1164 675 1114 675 1135 b 611 1207 642 1196 625 1207 b 565 1183 601 1207 588 1200 z "},"Ÿ":{"ha":799,"x_min":0,"x_max":0,"o":"m 510 297 b 560 476 510 376 524 411 l 647 635 b 769 832 714 756 749 806 b 836 865 785 851 811 861 l 872 872 b 867 921 883 882 883 915 b 731 917 826 918 783 917 b 575 921 681 917 631 918 b 574 872 561 914 563 879 l 606 867 b 653 847 639 861 653 856 b 581 686 653 831 633 785 b 464 467 543 615 504 535 b 400 603 447 501 421 557 l 335 751 b 299 849 306 817 299 838 b 332 861 299 850 307 856 l 379 872 b 376 921 392 883 389 915 b 174 917 329 918 258 917 b -22 921 92 917 40 918 b -28 872 -39 917 -40 883 l 19 864 b 108 776 68 856 81 833 l 274 435 b 311 269 310 361 311 339 l 311 200 b 240 51 311 71 303 61 l 193 44 b 193 -4 182 36 182 4 b 411 0 275 -1 344 0 b 636 -4 478 0 546 -1 b 636 44 646 4 646 36 l 581 51 b 510 200 518 60 510 71 z m 304 989 b 392 1081 356 989 392 1025 b 304 1167 392 1126 356 1167 b 215 1074 253 1167 215 1128 b 304 989 217 1018 254 989 z m 601 989 b 689 1081 653 989 689 1025 b 601 1167 689 1126 653 1167 b 513 1074 550 1167 513 1128 b 601 989 514 1018 551 989 z "},"Ž":{"ha":853,"x_min":0,"x_max":0,"o":"m 500 853 b 547 844 535 853 547 850 b 533 811 547 836 543 829 b 417 622 508 765 442 661 l 143 206 b 15 19 101 143 36 43 b 26 -4 13 11 17 0 b 167 0 49 -1 93 0 l 517 0 b 807 -4 614 0 690 -1 b 868 229 829 31 860 153 b 814 239 858 244 831 250 b 554 64 738 82 690 64 l 425 64 b 297 82 313 64 297 71 b 472 368 297 99 332 150 l 624 603 b 832 900 733 772 810 876 b 824 921 833 908 831 917 b 661 917 800 918 757 917 l 264 917 b 146 950 161 917 154 922 b 110 949 135 954 115 954 b 56 703 96 875 82 800 b 113 693 64 688 94 682 b 350 853 160 810 189 853 z m 286 1196 b 269 1160 276 1194 267 1176 l 447 997 b 508 997 467 979 488 979 l 688 1160 b 669 1196 690 1176 682 1196 l 503 1125 b 454 1126 483 1117 472 1119 z "},"á":{"ha":615,"x_min":0,"x_max":0,"o":"m 525 374 b 347 575 532 517 464 575 b 114 490 249 575 161 528 b 47 383 81 464 47 419 b 79 349 47 364 56 349 b 179 381 104 349 158 365 b 203 425 192 390 200 403 b 275 504 213 485 242 504 b 356 385 335 504 356 438 b 353 338 356 368 354 353 b 319 310 351 326 344 317 b 189 271 281 299 242 288 b 44 126 88 240 44 197 b 200 -19 44 29 119 -19 b 318 25 251 -19 293 7 b 347 40 332 35 340 40 b 369 29 354 40 360 38 b 486 -19 407 -3 438 -19 b 647 56 565 -19 631 33 b 631 88 651 68 643 85 b 578 71 608 75 594 71 b 515 190 550 71 510 96 z m 346 139 b 293 71 344 96 336 71 b 222 154 254 71 222 110 b 339 251 222 219 276 243 b 349 226 349 253 350 249 z m 258 643 b 293 621 261 626 274 618 l 489 814 b 519 865 507 832 519 850 b 482 915 519 881 507 896 b 428 938 458 932 443 938 b 385 896 414 938 400 928 z "},"â":{"ha":615,"x_min":0,"x_max":0,"o":"m 525 374 b 347 575 532 517 464 575 b 114 490 249 575 161 528 b 47 383 81 464 47 419 b 79 349 47 364 56 349 b 179 381 104 349 158 365 b 203 425 192 390 200 403 b 275 504 213 485 242 504 b 356 385 335 504 356 438 b 353 338 356 368 354 353 b 319 310 351 326 344 317 b 189 271 281 299 242 288 b 44 126 88 240 44 197 b 200 -19 44 29 119 -19 b 318 25 251 -19 293 7 b 347 40 332 35 340 40 b 369 29 354 40 360 38 b 486 -19 407 -3 438 -19 b 647 56 565 -19 631 33 b 631 88 651 68 643 85 b 578 71 608 75 594 71 b 515 190 550 71 510 96 z m 346 139 b 293 71 344 96 336 71 b 222 154 254 71 222 110 b 339 251 222 219 276 243 b 349 226 349 253 350 249 z m 129 650 b 168 625 136 633 154 626 l 279 754 b 308 779 294 771 304 779 b 336 753 313 779 321 771 l 447 625 b 488 650 463 626 481 633 l 340 915 b 308 933 332 931 325 933 b 276 915 292 933 285 931 z "},"ä":{"ha":615,"x_min":0,"x_max":0,"o":"m 525 374 b 347 575 532 517 464 575 b 114 490 249 575 161 528 b 47 383 81 464 47 419 b 79 349 47 364 56 349 b 179 381 104 349 158 365 b 203 425 192 390 200 403 b 275 504 213 485 242 504 b 356 385 335 504 356 438 b 353 338 356 368 354 353 b 319 310 351 326 344 317 b 189 271 281 299 242 288 b 44 126 88 240 44 197 b 200 -19 44 29 119 -19 b 318 25 251 -19 293 7 b 347 40 332 35 340 40 b 369 29 354 40 360 38 b 486 -19 407 -3 438 -19 b 647 56 565 -19 631 33 b 631 88 651 68 643 85 b 578 71 608 75 594 71 b 515 190 550 71 510 96 z m 346 139 b 293 71 344 96 336 71 b 222 154 254 71 222 110 b 339 251 222 219 276 243 b 349 226 349 253 350 249 z m 185 669 b 269 758 233 669 269 704 b 185 840 269 801 233 840 b 97 751 135 840 97 803 b 185 669 99 697 136 669 z m 435 669 b 519 758 483 669 519 704 b 435 840 519 801 483 840 b 347 751 385 840 347 803 b 435 669 349 697 386 669 z "},"à":{"ha":615,"x_min":0,"x_max":0,"o":"m 525 374 b 347 575 532 517 464 575 b 114 490 249 575 161 528 b 47 383 81 464 47 419 b 79 349 47 364 56 349 b 179 381 104 349 158 365 b 203 425 192 390 200 403 b 275 504 213 485 242 504 b 356 385 335 504 356 438 b 353 338 356 368 354 353 b 319 310 351 326 344 317 b 189 271 281 299 242 288 b 44 126 88 240 44 197 b 200 -19 44 29 119 -19 b 318 25 251 -19 293 7 b 347 40 332 35 340 40 b 369 29 354 40 360 38 b 486 -19 407 -3 438 -19 b 647 56 565 -19 631 33 b 631 88 651 68 643 85 b 578 71 608 75 594 71 b 515 190 550 71 510 96 z m 346 139 b 293 71 344 96 336 71 b 222 154 254 71 222 110 b 339 251 222 219 276 243 b 349 226 349 253 350 249 z m 265 907 b 222 949 250 939 236 949 b 168 926 207 949 192 943 b 131 876 143 907 131 892 b 161 825 131 861 143 843 l 357 632 b 392 654 376 629 389 638 z "},"å":{"ha":615,"x_min":0,"x_max":0,"o":"m 525 374 b 347 575 532 517 464 575 b 114 490 249 575 161 528 b 47 383 81 464 47 419 b 79 349 47 364 56 349 b 179 381 104 349 158 365 b 203 425 192 390 200 403 b 275 504 213 485 242 504 b 356 385 335 504 356 438 b 353 338 356 368 354 353 b 319 310 351 326 344 317 b 189 271 281 299 242 288 b 44 126 88 240 44 197 b 200 -19 44 29 119 -19 b 318 25 251 -19 293 7 b 347 40 332 35 340 40 b 369 29 354 40 360 38 b 486 -19 407 -3 438 -19 b 647 56 565 -19 631 33 b 631 88 651 68 643 85 b 578 71 608 75 594 71 b 515 190 550 71 510 96 z m 346 139 b 293 71 344 96 336 71 b 222 154 254 71 222 110 b 339 251 222 219 276 243 b 349 226 349 253 350 249 z m 308 636 b 458 774 403 636 458 704 b 308 910 458 843 403 910 b 158 774 215 910 158 843 b 308 636 158 704 215 636 z m 308 689 b 242 774 265 689 242 728 b 308 861 242 819 265 858 b 375 774 351 858 375 819 b 308 689 375 728 351 689 z "},"ã":{"ha":615,"x_min":0,"x_max":0,"o":"m 525 374 b 347 575 532 517 464 575 b 114 490 249 575 161 528 b 47 383 81 464 47 419 b 79 349 47 364 56 349 b 179 381 104 349 158 365 b 203 425 192 390 200 403 b 275 504 213 485 242 504 b 356 385 335 504 356 438 b 353 338 356 368 354 353 b 319 310 351 326 344 317 b 189 271 281 299 242 288 b 44 126 88 240 44 197 b 200 -19 44 29 119 -19 b 318 25 251 -19 293 7 b 347 40 332 35 340 40 b 369 29 354 40 360 38 b 486 -19 407 -3 438 -19 b 647 56 565 -19 631 33 b 631 88 651 68 643 85 b 578 71 608 75 594 71 b 515 190 550 71 510 96 z m 346 139 b 293 71 344 96 336 71 b 222 154 254 71 222 110 b 339 251 222 219 276 243 b 349 226 349 253 350 249 z m 364 708 b 447 747 407 708 428 718 b 493 867 468 779 485 822 b 451 874 488 875 463 878 b 343 808 429 817 399 808 l 265 808 b 181 769 228 808 204 799 b 124 649 158 742 132 675 b 167 640 129 638 158 635 b 286 708 192 683 224 708 z "},"ç":{"ha":578,"x_min":0,"x_max":0,"o":"m 213 -147 l 217 -158 b 322 -258 267 -179 322 -214 b 286 -293 322 -281 301 -293 b 192 -242 256 -293 231 -242 b 147 -287 165 -242 147 -262 b 254 -349 147 -326 188 -349 b 431 -219 344 -349 431 -296 b 346 -101 431 -165 397 -129 b 333 -72 325 -90 322 -86 l 374 -17 b 583 129 485 -4 556 67 b 547 160 583 151 564 161 b 424 92 517 108 475 92 b 225 313 296 92 225 203 b 364 511 225 408 274 511 b 507 407 414 511 468 463 b 529 400 510 403 522 400 b 565 479 546 400 565 438 b 536 551 565 517 554 536 b 390 575 499 565 438 575 b 43 261 203 575 43 458 b 301 -17 43 108 146 -3 z "},"é":{"ha":583,"x_min":0,"x_max":0,"o":"m 517 329 b 567 375 560 329 567 349 b 344 575 567 482 489 575 b 44 264 171 575 44 439 b 333 -19 44 113 146 -19 b 576 139 417 -19 519 21 b 540 171 576 163 556 174 b 411 99 503 107 450 99 b 215 304 282 99 215 200 b 250 329 215 326 218 329 z m 290 390 b 226 411 246 390 226 392 b 335 511 226 456 276 511 b 408 435 382 511 408 481 b 399 403 408 421 406 407 b 342 390 383 393 361 390 z m 276 651 b 311 629 279 635 292 626 l 507 822 b 538 874 525 840 538 858 b 500 924 538 889 525 904 b 446 946 476 940 461 946 b 403 904 432 946 418 936 z "},"ê":{"ha":583,"x_min":0,"x_max":0,"o":"m 517 329 b 567 375 560 329 567 349 b 344 575 567 482 489 575 b 44 264 171 575 44 439 b 333 -19 44 113 146 -19 b 576 139 417 -19 519 21 b 540 171 576 163 556 174 b 411 99 503 107 450 99 b 215 304 282 99 215 200 b 250 329 215 326 218 329 z m 290 390 b 226 411 246 390 226 392 b 335 511 226 456 276 511 b 408 435 382 511 408 481 b 399 403 408 421 406 407 b 342 390 383 393 361 390 z m 143 643 b 182 618 150 626 168 619 l 293 747 b 322 772 308 764 318 772 b 350 746 326 772 335 764 l 461 618 b 501 643 476 619 494 626 l 354 908 b 322 926 346 924 339 926 b 290 908 306 926 299 924 z "},"ë":{"ha":583,"x_min":0,"x_max":0,"o":"m 517 329 b 567 375 560 329 567 349 b 344 575 567 482 489 575 b 44 264 171 575 44 439 b 333 -19 44 113 146 -19 b 576 139 417 -19 519 21 b 540 171 576 163 556 174 b 411 99 503 107 450 99 b 215 304 282 99 215 200 b 250 329 215 326 218 329 z m 290 390 b 226 411 246 390 226 392 b 335 511 226 456 276 511 b 408 435 382 511 408 481 b 399 403 408 421 406 407 b 342 390 383 393 361 390 z m 196 669 b 281 758 244 669 281 704 b 196 840 281 801 244 840 b 108 751 146 840 108 803 b 196 669 110 697 147 669 z m 446 669 b 531 758 494 669 531 704 b 446 840 531 801 494 840 b 358 751 396 840 358 803 b 446 669 360 697 397 669 z "},"è":{"ha":583,"x_min":0,"x_max":0,"o":"m 517 329 b 567 375 560 329 567 349 b 344 575 567 482 489 575 b 44 264 171 575 44 439 b 333 -19 44 113 146 -19 b 576 139 417 -19 519 21 b 540 171 576 163 556 174 b 411 99 503 107 450 99 b 215 304 282 99 215 200 b 250 329 215 326 218 329 z m 290 390 b 226 411 246 390 226 392 b 335 511 226 456 276 511 b 408 435 382 511 408 481 b 399 403 408 421 406 407 b 342 390 383 393 361 390 z m 276 910 b 233 951 261 942 247 951 b 179 929 218 951 203 946 b 142 879 154 910 142 894 b 172 828 142 864 154 846 l 368 635 b 403 657 388 632 400 640 z "},"í":{"ha":397,"x_min":0,"x_max":0,"o":"m 297 417 b 301 582 297 479 299 540 b 276 594 296 590 288 594 b 71 514 235 569 136 532 b 71 472 61 506 61 481 l 90 460 b 117 371 117 443 117 426 l 117 161 b 65 47 117 64 111 51 l 39 44 b 40 -4 28 36 28 4 b 207 0 86 -1 144 0 b 374 -4 271 0 325 -1 b 375 44 386 4 386 36 l 349 47 b 297 161 303 51 297 64 z m 133 653 b 168 631 136 636 149 628 l 364 824 b 394 875 382 842 394 860 b 357 925 394 890 382 906 b 303 947 333 942 318 947 b 260 906 289 947 275 938 z "},"î":{"ha":397,"x_min":0,"x_max":0,"o":"m 297 417 b 301 582 297 479 299 540 b 276 594 296 590 288 594 b 71 514 235 569 136 532 b 71 472 61 506 61 481 l 90 460 b 117 371 117 443 117 426 l 117 161 b 65 47 117 64 111 51 l 39 44 b 40 -4 28 36 28 4 b 207 0 86 -1 144 0 b 374 -4 271 0 325 -1 b 375 44 386 4 386 36 l 349 47 b 297 161 303 51 297 64 z m 19 657 b 58 632 26 640 44 633 l 169 761 b 199 786 185 778 194 786 b 226 760 203 786 211 778 l 338 632 b 378 657 353 633 371 640 l 231 922 b 199 940 222 938 215 940 b 167 922 182 940 175 938 z "},"ï":{"ha":397,"x_min":0,"x_max":0,"o":"m 297 417 b 301 582 297 479 299 540 b 276 594 296 590 288 594 b 71 514 235 569 136 532 b 71 472 61 506 61 481 l 90 460 b 117 371 117 443 117 426 l 117 161 b 65 47 117 64 111 51 l 39 44 b 40 -4 28 36 28 4 b 207 0 86 -1 144 0 b 374 -4 271 0 325 -1 b 375 44 386 4 386 36 l 349 47 b 297 161 303 51 297 64 z m 75 669 b 160 758 124 669 160 704 b 75 840 160 801 124 840 b -12 751 25 840 -12 803 b 75 669 -11 697 26 669 z m 325 669 b 410 758 374 669 410 704 b 325 840 410 801 374 840 b 238 751 275 840 238 803 b 325 669 239 697 276 669 z "},"ì":{"ha":397,"x_min":0,"x_max":0,"o":"m 297 417 b 301 582 297 479 299 540 b 276 594 296 590 288 594 b 71 514 235 569 136 532 b 71 472 61 506 61 481 l 90 460 b 117 371 117 443 117 426 l 117 161 b 65 47 117 64 111 51 l 39 44 b 40 -4 28 36 28 4 b 207 0 86 -1 144 0 b 374 -4 271 0 325 -1 b 375 44 386 4 386 36 l 349 47 b 297 161 303 51 297 64 z m 154 910 b 111 951 139 942 125 951 b 57 929 96 951 81 946 b 19 879 32 910 19 894 b 50 828 19 864 32 846 l 246 635 b 281 657 265 632 278 640 z "},"ñ":{"ha":764,"x_min":0,"x_max":0,"o":"m 117 161 b 61 47 117 64 111 53 l 39 44 b 40 -4 28 36 28 4 b 204 0 89 -1 146 0 b 358 -4 271 0 315 -1 b 360 44 371 4 371 36 l 338 47 b 297 140 303 51 297 64 l 297 389 b 308 440 297 414 300 431 b 386 474 319 456 347 474 b 483 375 456 474 483 429 l 483 140 b 446 49 483 64 478 54 l 421 44 b 422 -4 410 36 410 4 b 572 0 463 -1 517 0 b 740 -4 639 0 697 -1 b 742 44 753 4 753 36 l 719 47 b 664 161 669 53 664 64 l 664 400 b 490 575 664 496 606 575 b 331 519 426 575 361 538 b 304 508 322 515 308 508 b 297 519 300 508 297 511 b 301 582 297 529 301 563 b 276 594 296 590 288 594 b 71 514 236 569 136 532 b 71 472 61 506 61 481 l 90 460 b 117 371 117 443 117 426 z m 442 722 b 529 763 486 722 508 732 b 576 889 551 797 568 842 b 533 896 571 897 544 900 b 419 828 510 836 478 828 l 338 828 b 249 786 299 828 274 817 b 189 660 225 757 197 688 b 235 651 194 647 225 644 b 360 722 261 696 294 722 z "},"ó":{"ha":717,"x_min":0,"x_max":0,"o":"m 354 -19 b 674 279 525 -19 674 76 b 363 575 674 475 526 575 b 43 267 199 575 42 465 b 354 -19 44 75 189 -19 z m 354 511 b 474 260 433 511 472 394 b 369 44 475 135 449 44 b 243 297 289 44 243 151 b 354 511 243 449 293 511 z m 283 650 b 318 628 286 633 299 625 l 514 821 b 544 872 532 839 544 857 b 507 922 544 888 532 903 b 453 944 483 939 468 944 b 410 903 439 944 425 935 z "},"ô":{"ha":717,"x_min":0,"x_max":0,"o":"m 354 -19 b 674 279 525 -19 674 76 b 363 575 674 475 526 575 b 43 267 199 575 42 465 b 354 -19 44 75 189 -19 z m 354 511 b 474 260 433 511 472 394 b 369 44 475 135 449 44 b 243 297 289 44 243 151 b 354 511 243 449 293 511 z m 179 643 b 218 618 186 626 204 619 l 329 747 b 358 772 344 764 354 772 b 386 746 363 772 371 764 l 497 618 b 538 643 513 619 531 626 l 390 908 b 358 926 382 924 375 926 b 326 908 342 926 335 924 z "},"ö":{"ha":717,"x_min":0,"x_max":0,"o":"m 354 -19 b 674 279 525 -19 674 76 b 363 575 674 475 526 575 b 43 267 199 575 42 465 b 354 -19 44 75 189 -19 z m 354 511 b 474 260 433 511 472 394 b 369 44 475 135 449 44 b 243 297 289 44 243 151 b 354 511 243 449 293 511 z m 235 669 b 319 758 283 669 319 704 b 235 840 319 801 283 840 b 147 751 185 840 147 803 b 235 669 149 697 186 669 z m 485 669 b 569 758 533 669 569 704 b 485 840 569 801 533 840 b 397 751 435 840 397 803 b 485 669 399 697 436 669 z "},"ò":{"ha":717,"x_min":0,"x_max":0,"o":"m 354 -19 b 674 279 525 -19 674 76 b 363 575 674 475 526 575 b 43 267 199 575 42 465 b 354 -19 44 75 189 -19 z m 354 511 b 474 260 433 511 472 394 b 369 44 475 135 449 44 b 243 297 289 44 243 151 b 354 511 243 449 293 511 z m 289 901 b 246 943 274 933 260 943 b 192 921 231 943 215 938 b 154 871 167 901 154 886 b 185 819 154 856 167 838 l 381 626 b 415 649 400 624 413 632 z "},"õ":{"ha":717,"x_min":0,"x_max":0,"o":"m 354 -19 b 674 279 525 -19 674 76 b 363 575 674 475 526 575 b 43 267 199 575 42 465 b 354 -19 44 75 189 -19 z m 354 511 b 474 260 433 511 472 394 b 369 44 475 135 449 44 b 243 297 289 44 243 151 b 354 511 243 449 293 511 z m 414 708 b 497 747 457 708 478 718 b 543 867 518 779 535 822 b 501 874 538 875 513 878 b 393 808 479 817 449 808 l 315 808 b 231 769 278 808 254 799 b 174 649 208 742 182 675 b 217 640 179 638 208 635 b 336 708 242 683 274 708 z "},"š":{"ha":497,"x_min":0,"x_max":0,"o":"m 228 -19 b 465 167 358 -19 464 43 b 313 361 465 257 407 315 b 224 450 250 392 224 418 b 293 511 224 488 253 511 b 401 401 339 511 374 482 b 450 407 410 392 444 392 b 429 546 450 460 443 515 b 281 575 414 557 351 575 b 60 396 161 575 60 517 b 203 221 60 313 119 263 b 294 117 250 197 294 168 b 222 44 294 69 264 44 b 81 183 151 44 99 126 b 33 181 72 196 42 194 b 56 24 31 118 40 51 b 228 -19 93 -6 149 -19 z m 454 917 b 415 942 447 933 429 940 l 304 813 b 275 788 289 796 279 788 b 247 814 271 788 263 796 l 136 942 b 96 917 121 940 103 933 l 243 651 b 275 633 251 636 258 633 b 307 651 292 633 299 636 z "},"ú":{"ha":756,"x_min":0,"x_max":0,"o":"m 654 436 b 658 558 654 488 657 533 b 644 575 657 568 650 575 b 546 553 636 575 594 560 b 401 539 501 547 451 542 b 394 490 385 533 383 500 l 414 488 b 474 413 464 481 474 468 l 474 150 b 458 108 474 136 468 115 b 386 82 447 100 425 82 b 288 207 297 82 288 140 l 288 436 b 292 558 288 486 289 524 b 275 575 290 565 283 575 b 188 551 269 575 229 558 b 53 539 147 544 99 540 b 47 490 39 529 38 503 l 65 485 b 107 394 99 475 107 468 l 107 158 b 269 -19 107 40 154 -19 b 458 47 356 -19 404 13 b 474 33 467 47 474 42 b 469 -17 474 22 472 0 b 486 -33 471 -25 476 -32 b 743 17 490 -33 607 11 b 747 76 761 24 760 74 b 692 65 731 71 710 65 b 654 183 658 65 654 101 z m 313 657 b 347 635 315 640 328 632 l 543 828 b 574 879 561 846 574 864 b 536 929 574 894 561 910 b 482 951 513 946 497 951 b 439 910 468 951 454 942 z "},"û":{"ha":756,"x_min":0,"x_max":0,"o":"m 654 436 b 658 558 654 488 657 533 b 644 575 657 568 650 575 b 546 553 636 575 594 560 b 401 539 501 547 451 542 b 394 490 385 533 383 500 l 414 488 b 474 413 464 481 474 468 l 474 150 b 458 108 474 136 468 115 b 386 82 447 100 425 82 b 288 207 297 82 288 140 l 288 436 b 292 558 288 486 289 524 b 275 575 290 565 283 575 b 188 551 269 575 229 558 b 53 539 147 544 99 540 b 47 490 39 529 38 503 l 65 485 b 107 394 99 475 107 468 l 107 158 b 269 -19 107 40 154 -19 b 458 47 356 -19 404 13 b 474 33 467 47 474 42 b 469 -17 474 22 472 0 b 486 -33 471 -25 476 -32 b 743 17 490 -33 607 11 b 747 76 761 24 760 74 b 692 65 731 71 710 65 b 654 183 658 65 654 101 z m 199 656 b 238 631 206 639 224 632 l 349 760 b 378 785 364 776 374 785 b 406 758 382 785 390 776 l 517 631 b 557 656 532 632 550 639 l 410 921 b 378 939 401 936 394 939 b 346 921 361 939 354 936 z "},"ü":{"ha":756,"x_min":0,"x_max":0,"o":"m 654 436 b 658 558 654 488 657 533 b 644 575 657 568 650 575 b 546 553 636 575 594 560 b 401 539 501 547 451 542 b 394 490 385 533 383 500 l 414 488 b 474 413 464 481 474 468 l 474 150 b 458 108 474 136 468 115 b 386 82 447 100 425 82 b 288 207 297 82 288 140 l 288 436 b 292 558 288 486 289 524 b 275 575 290 565 283 575 b 188 551 269 575 229 558 b 53 539 147 544 99 540 b 47 490 39 529 38 503 l 65 485 b 107 394 99 475 107 468 l 107 158 b 269 -19 107 40 154 -19 b 458 47 356 -19 404 13 b 474 33 467 47 474 42 b 469 -17 474 22 472 0 b 486 -33 471 -25 476 -32 b 743 17 490 -33 607 11 b 747 76 761 24 760 74 b 692 65 731 71 710 65 b 654 183 658 65 654 101 z m 254 669 b 339 758 303 669 339 704 b 254 840 339 801 303 840 b 167 751 204 840 167 803 b 254 669 168 697 206 669 z m 504 669 b 589 758 553 669 589 704 b 504 840 589 801 553 840 b 417 751 454 840 417 803 b 504 669 418 697 456 669 z "},"ù":{"ha":756,"x_min":0,"x_max":0,"o":"m 654 436 b 658 558 654 488 657 533 b 644 575 657 568 650 575 b 546 553 636 575 594 560 b 401 539 501 547 451 542 b 394 490 385 533 383 500 l 414 488 b 474 413 464 481 474 468 l 474 150 b 458 108 474 136 468 115 b 386 82 447 100 425 82 b 288 207 297 82 288 140 l 288 436 b 292 558 288 486 289 524 b 275 575 290 565 283 575 b 188 551 269 575 229 558 b 53 539 147 544 99 540 b 47 490 39 529 38 503 l 65 485 b 107 394 99 475 107 468 l 107 158 b 269 -19 107 40 154 -19 b 458 47 356 -19 404 13 b 474 33 467 47 474 42 b 469 -17 474 22 472 0 b 486 -33 471 -25 476 -32 b 743 17 490 -33 607 11 b 747 76 761 24 760 74 b 692 65 731 71 710 65 b 654 183 658 65 654 101 z m 329 894 b 286 936 314 926 300 936 b 232 914 271 936 256 931 b 194 864 207 894 194 879 b 225 813 194 849 207 831 l 421 619 b 456 642 440 617 453 625 z "},"ý":{"ha":651,"x_min":0,"x_max":0,"o":"m 17 507 b 100 408 61 500 74 475 l 233 72 b 260 -29 256 15 260 -11 b 240 -87 260 -46 249 -71 b 200 -164 226 -117 215 -143 b 132 -193 186 -182 165 -193 l 99 -193 b 19 -265 50 -193 19 -224 b 108 -349 19 -303 33 -350 b 228 -257 160 -347 199 -319 b 439 181 278 -154 390 81 l 513 332 b 594 478 543 396 578 456 b 658 508 607 494 631 506 l 685 511 b 682 560 697 519 696 554 b 574 556 646 557 610 556 b 439 560 511 556 469 557 b 435 511 424 556 422 521 l 463 506 b 493 486 479 503 493 496 b 442 346 493 471 471 413 l 417 289 b 374 197 403 258 389 226 b 311 356 357 232 326 317 b 269 479 285 426 269 463 b 311 506 269 492 272 497 l 339 511 b 335 560 350 521 349 554 b 179 556 283 557 231 556 b -4 560 106 556 46 557 b -8 511 -18 554 -18 521 z m 303 649 b 338 626 306 632 318 624 l 533 819 b 564 871 551 838 564 856 b 526 921 564 886 551 901 b 472 943 503 938 488 943 b 429 901 458 943 444 933 z "},"ÿ":{"ha":651,"x_min":0,"x_max":0,"o":"m 17 507 b 100 408 61 500 74 475 l 233 72 b 260 -29 256 15 260 -11 b 240 -87 260 -46 249 -71 b 200 -164 226 -117 215 -143 b 132 -193 186 -182 165 -193 l 99 -193 b 19 -265 50 -193 19 -224 b 108 -349 19 -303 33 -350 b 228 -257 160 -347 199 -319 b 439 181 278 -154 390 81 l 513 332 b 594 478 543 396 578 456 b 658 508 607 494 631 506 l 685 511 b 682 560 697 519 696 554 b 574 556 646 557 610 556 b 439 560 511 556 469 557 b 435 511 424 556 422 521 l 463 506 b 493 486 479 503 493 496 b 442 346 493 471 471 413 l 417 289 b 374 197 403 258 389 226 b 311 356 357 232 326 317 b 269 479 285 426 269 463 b 311 506 269 492 272 497 l 339 511 b 335 560 350 521 349 554 b 179 556 283 557 231 556 b -4 560 106 556 46 557 b -8 511 -18 554 -18 521 z m 224 683 b 308 772 272 683 308 718 b 224 854 308 815 272 854 b 136 765 174 854 136 817 b 224 683 138 711 175 683 z m 482 683 b 567 772 531 683 567 718 b 482 854 567 815 531 854 b 394 765 432 854 394 817 b 482 683 396 711 433 683 z "},"ž":{"ha":576,"x_min":0,"x_max":0,"o":"m 310 0 b 532 -4 374 0 418 -1 b 585 176 550 22 581 124 b 535 183 578 190 546 194 b 493 108 517 147 503 122 b 363 61 469 71 422 61 l 329 61 b 274 69 289 61 274 63 b 299 126 274 79 282 97 l 447 379 b 546 542 492 454 519 506 b 538 560 547 547 543 557 b 422 556 521 557 482 556 l 172 556 b 94 582 101 556 99 560 b 65 582 89 589 72 589 b 22 399 51 547 31 454 b 72 388 29 383 60 376 b 117 468 86 429 106 457 b 215 494 135 489 165 494 l 258 494 b 297 488 289 494 297 492 b 282 447 297 481 293 468 l 153 218 b 31 18 114 149 53 51 b 40 -4 28 8 32 -1 b 175 0 63 -1 100 0 z m 476 917 b 438 942 469 933 451 940 l 326 813 b 297 788 311 796 301 788 b 269 814 293 788 285 796 l 158 942 b 118 917 143 940 125 933 l 265 651 b 297 633 274 636 281 633 b 329 651 314 633 321 636 z "},"":{"ha":640,"x_min":0,"x_max":0,"o":"m 308 396 b 215 474 253 413 215 438 b 332 553 215 517 244 551 z m 343 228 b 435 129 410 206 435 171 b 314 42 435 78 386 44 z m 393 547 b 514 419 467 529 497 474 b 561 421 524 407 554 407 b 536 585 563 508 547 563 b 403 611 493 593 453 606 l 415 692 b 354 692 408 706 361 706 l 342 614 b 74 428 171 611 74 542 b 278 247 74 325 164 269 l 285 246 l 254 47 b 94 208 165 69 114 147 b 47 207 86 222 58 221 b 85 29 47 121 61 50 b 244 -17 107 17 167 -11 l 228 -118 b 289 -118 235 -128 281 -128 l 304 -18 b 593 175 488 -14 593 57 b 382 375 593 286 496 344 l 367 379 z "},"":{"ha":556,"x_min":0,"x_max":0,"o":"m 299 649 b 374 565 336 635 374 611 b 274 490 374 521 336 490 z m 268 796 b 189 863 221 810 189 832 b 289 932 189 900 217 931 z m 342 924 b 439 822 406 903 433 846 b 479 824 449 810 474 811 b 463 963 481 893 472 940 b 351 981 422 967 392 978 l 361 1049 b 307 1049 354 1061 314 1061 l 297 983 b 71 819 151 979 71 919 b 247 664 71 739 143 692 l 221 496 b 93 633 147 517 106 582 b 50 628 81 646 56 642 b 82 481 50 569 61 508 b 213 442 97 467 151 447 l 199 351 b 251 351 206 342 244 342 l 265 438 b 506 606 414 440 506 500 b 329 776 506 693 431 747 l 319 779 z "},"⁽":{"ha":333,"x_min":0,"x_max":0,"o":"m 50 706 b 286 344 50 549 136 413 b 306 372 297 346 310 358 b 185 706 246 440 185 551 b 306 1039 185 860 246 971 b 286 1067 310 1053 297 1065 b 50 706 136 999 50 863 z "},"⁾":{"ha":333,"x_min":0,"x_max":0,"o":"m 283 706 b 47 1067 283 863 197 999 b 28 1039 36 1065 24 1053 b 149 706 88 971 149 860 b 28 372 149 551 88 440 b 47 344 24 358 36 346 b 283 706 197 413 283 549 z "},"‥":{"ha":694,"x_min":0,"x_max":0,"o":"m 174 -19 b 286 93 240 -19 286 29 b 174 208 286 153 240 208 b 61 93 111 208 61 158 b 174 -19 61 25 118 -19 z m 521 -19 b 633 93 588 -19 633 29 b 521 208 633 153 588 208 b 408 93 458 208 408 158 b 521 -19 408 25 465 -19 z "},"․":{"ha":694,"x_min":0,"x_max":0,"o":"m 347 -19 b 460 93 414 -19 460 29 b 347 208 460 153 414 208 b 235 93 285 208 235 158 b 347 -19 235 25 292 -19 z "},"":{"ha":750,"x_min":0,"x_max":0,"o":"m 375 614 b 50 297 179 614 50 476 b 375 -19 50 118 179 -19 b 700 297 571 -19 700 118 b 375 614 700 476 571 614 z m 204 297 b 375 511 204 428 276 511 b 546 297 474 511 546 428 b 375 83 546 167 474 83 b 204 297 276 83 204 167 z "},"":{"ha":539,"x_min":0,"x_max":0,"o":"m 178 179 b 107 49 178 75 165 56 l 50 42 b 53 -4 39 32 39 1 b 267 0 104 -1 169 0 b 483 -4 363 0 432 -1 b 486 42 497 1 497 32 l 429 49 b 358 179 371 56 358 75 l 358 415 b 429 547 358 519 371 540 l 472 553 b 469 599 483 563 483 593 b 267 594 422 596 353 594 b 67 599 183 594 118 596 b 64 553 53 593 53 563 l 107 547 b 178 415 165 540 178 519 z "},"":{"ha":675,"x_min":0,"x_max":0,"o":"m 340 126 b 311 143 326 126 313 131 b 532 424 401 222 532 304 b 315 614 532 533 454 614 b 38 415 193 614 92 538 b 79 386 39 394 61 381 b 225 499 125 465 174 499 b 331 376 290 499 331 451 b 226 172 331 296 281 224 b 47 28 153 103 104 63 b 57 -4 43 17 47 1 b 210 0 81 -1 157 0 l 426 0 b 599 -4 465 0 526 -1 b 685 192 622 46 651 124 b 638 201 674 204 653 210 b 454 126 596 129 542 126 z "},"":{"ha":578,"x_min":0,"x_max":0,"o":"m 329 24 b 178 -167 329 -129 257 -167 b 76 -153 135 -167 94 -153 b 43 -196 56 -153 43 -171 b 110 -261 43 -226 64 -261 b 358 -164 175 -261 276 -224 b 514 103 451 -96 514 -4 b 374 283 514 188 464 261 b 350 299 358 288 350 293 b 369 319 350 304 351 311 b 486 457 456 361 486 414 b 299 614 486 551 413 614 b 54 453 178 614 97 536 b 97 418 54 429 75 413 b 215 513 144 493 181 513 b 296 425 265 513 296 472 b 90 228 296 311 182 265 b 119 161 79 197 94 158 b 210 206 147 185 182 206 b 269 185 228 206 253 197 b 329 24 304 156 329 99 z "},"":{"ha":725,"x_min":0,"x_max":0,"o":"m 688 18 b 708 68 703 25 708 53 b 693 101 708 82 703 94 l 576 101 b 544 140 544 101 544 103 l 544 588 b 506 614 536 603 519 614 b 475 608 493 614 482 610 b 110 160 446 575 156 213 l 25 61 b 39 18 22 44 28 26 l 349 18 b 379 -25 379 18 379 14 l 379 -246 b 457 -258 386 -254 419 -258 b 544 -246 499 -258 539 -254 l 544 -25 b 576 18 544 14 544 18 z m 193 101 b 176 126 174 101 168 115 l 376 379 l 379 379 l 379 140 b 349 101 379 103 379 101 z "},"":{"ha":568,"x_min":0,"x_max":0,"o":"m 415 449 b 533 600 492 457 522 565 b 511 618 535 610 525 618 b 435 599 494 607 467 601 l 290 583 b 200 567 254 579 219 574 b 76 315 151 550 76 393 b 179 186 76 240 149 203 b 308 8 251 149 308 93 b 81 -226 308 -131 160 -200 b 97 -275 68 -240 74 -271 b 469 68 233 -244 469 -142 b 264 336 469 176 414 268 b 167 401 185 372 167 389 b 228 429 167 418 178 424 z "},"":{"ha":726,"x_min":0,"x_max":0,"o":"m 714 888 b 63 292 403 865 63 642 b 363 -19 63 101 171 -19 b 676 272 529 -19 676 88 b 478 499 676 407 592 499 b 332 451 433 499 386 486 b 339 413 322 440 328 419 b 358 415 346 414 350 415 b 494 190 449 415 494 304 b 393 44 494 81 446 44 b 258 275 318 44 258 133 b 444 693 258 440 319 583 b 719 850 539 778 636 815 b 714 888 725 858 724 882 z "},"":{"ha":700,"x_min":0,"x_max":0,"o":"m 236 594 b 96 599 183 594 125 596 b 25 390 83 546 57 457 b 67 369 29 376 50 363 b 215 450 106 435 125 450 l 451 450 b 489 429 478 450 489 444 b 449 335 489 410 474 376 l 106 -235 b 161 -275 113 -257 139 -275 b 179 -274 169 -275 175 -276 l 501 269 b 692 576 589 418 651 521 b 682 599 693 585 689 596 b 479 594 661 593 561 594 z "},"":{"ha":663,"x_min":0,"x_max":0,"o":"m 340 863 b 71 626 176 863 71 758 b 217 413 71 528 136 460 b 58 192 124 360 58 290 b 321 -19 58 49 179 -19 b 604 207 511 -19 604 81 b 450 446 604 314 543 385 b 601 646 529 489 601 553 b 340 863 601 781 503 863 z m 293 358 b 431 158 361 319 431 257 b 333 44 431 86 390 44 b 224 189 272 44 224 106 b 293 358 224 253 242 313 z m 443 663 b 386 496 443 596 424 538 b 236 678 290 546 236 608 b 338 799 236 751 282 799 b 443 663 404 799 443 735 z "},"":{"ha":710,"x_min":0,"x_max":0,"o":"m 58 -275 b 454 -122 228 -265 363 -201 b 647 303 592 -1 647 160 b 361 614 647 486 551 614 b 54 333 190 614 54 500 b 269 121 54 208 136 121 b 381 157 313 121 356 142 b 376 193 385 168 385 185 b 321 203 357 192 339 190 b 243 392 264 239 243 325 b 344 550 243 483 281 550 b 454 329 406 550 454 467 b 253 -137 454 60 319 -82 b 51 -233 207 -176 139 -210 b 58 -275 44 -243 46 -268 z "},"":{"ha":278,"x_min":0,"x_max":0,"o":"m 246 482 b 124 633 246 592 175 633 b 39 558 76 633 39 600 b 75 504 39 531 56 510 b 143 428 104 494 143 479 b 39 313 143 369 83 329 b 51 275 25 304 31 278 b 246 482 153 299 246 365 z "},"":{"ha":1042,"x_min":0,"x_max":0,"o":"m 0 336 l 0 240 l 1042 240 l 1042 336 z "},"":{"ha":278,"x_min":0,"x_max":0,"o":"m 139 428 b 229 519 193 428 229 467 b 139 613 229 569 193 613 b 49 519 88 613 49 574 b 139 428 49 463 93 428 z "},"":{"ha":519,"x_min":0,"x_max":0,"o":"m 272 844 b 88 782 197 844 122 811 b 44 711 51 750 44 728 b 79 688 44 699 57 688 b 161 708 113 688 144 699 b 183 751 174 718 181 732 b 231 796 188 781 203 796 b 292 713 278 796 292 753 l 292 699 b 261 672 290 689 286 679 b 121 631 229 664 188 653 b 44 533 64 613 44 575 b 176 428 44 489 78 428 b 261 451 208 428 243 442 b 290 468 278 463 286 468 b 313 454 294 468 304 463 b 399 428 333 435 368 428 b 511 472 435 428 489 447 b 499 501 518 489 510 500 b 461 492 486 496 475 492 b 421 561 436 492 418 513 l 428 710 b 272 844 432 808 381 844 z m 183 547 b 239 619 183 590 210 607 b 278 626 253 625 267 626 b 289 600 286 626 290 617 l 285 532 b 239 493 283 511 271 493 b 183 547 207 493 183 521 z "},"":{"ha":599,"x_min":0,"x_max":0,"o":"m 239 939 b 242 1081 239 1000 239 1040 b 224 1088 238 1085 231 1088 b 50 1033 163 1065 99 1043 b 50 999 43 1026 43 1006 l 69 989 b 90 926 90 979 90 965 l 90 543 b 88 449 90 492 89 461 b 113 439 94 442 104 439 b 146 454 121 446 139 454 b 179 444 154 454 163 451 b 290 428 206 435 247 428 b 551 644 443 428 551 508 b 351 844 551 758 474 844 b 247 817 313 844 274 831 b 239 842 240 819 239 825 z m 239 724 b 249 767 239 754 242 763 b 281 778 257 775 269 778 b 394 619 343 778 394 713 b 310 478 394 539 371 478 b 258 510 290 478 271 492 b 239 586 244 532 239 561 z "},"":{"ha":556,"x_min":0,"x_max":0,"o":"m 289 564 b 213 724 240 592 213 647 b 335 897 213 796 244 897 b 344 896 339 897 343 897 z m 396 878 b 397 881 396 879 396 881 b 467 815 424 863 444 836 b 482 811 469 814 476 811 b 515 867 497 811 515 836 b 488 931 515 897 499 922 b 407 946 467 938 436 943 l 422 1035 b 368 1035 411 1047 378 1047 l 353 949 b 53 692 199 947 53 863 b 272 467 53 571 139 482 l 254 358 b 307 358 263 343 297 343 l 325 465 b 532 593 432 468 499 528 b 501 615 532 607 517 617 b 374 542 479 575 426 542 b 339 546 361 542 350 543 z "},"":{"ha":600,"x_min":0,"x_max":0,"o":"m 510 939 b 514 1082 510 1000 511 1042 b 496 1088 510 1086 503 1088 b 322 1033 440 1067 375 1043 b 322 999 314 1028 313 1004 l 340 992 b 361 933 361 983 361 972 l 361 858 b 350 840 361 847 357 842 b 299 844 339 843 313 844 b 47 621 158 844 47 756 b 246 428 47 514 128 428 b 304 440 267 428 286 433 b 354 469 322 449 339 460 b 364 463 358 472 363 469 l 361 432 b 379 418 363 424 371 418 b 581 453 382 418 472 447 b 581 500 592 463 592 492 b 535 493 563 494 554 493 b 510 600 515 493 510 515 z m 361 546 b 350 507 361 528 360 515 b 313 497 340 501 328 497 b 207 646 239 497 207 582 b 299 794 207 743 257 794 b 353 758 325 794 340 779 b 361 725 357 750 361 740 z "},"":{"ha":500,"x_min":0,"x_max":0,"o":"m 414 660 b 456 693 450 660 456 675 b 271 844 456 774 385 844 b 50 625 142 844 50 744 b 254 428 50 533 107 429 b 457 568 326 428 415 460 b 426 585 453 583 440 588 b 315 532 396 543 363 532 b 169 646 208 532 169 606 b 192 660 169 657 174 660 z m 206 710 b 176 724 183 710 176 713 b 258 794 176 742 206 794 b 317 740 294 794 317 771 b 308 717 317 732 314 722 b 269 710 303 713 286 710 z "},"":{"ha":350,"x_min":0,"x_max":0,"o":"m 179 1088 b 90 1000 131 1088 90 1049 b 174 914 90 954 122 914 b 261 1001 217 914 261 944 b 179 1088 261 1047 228 1088 z m 253 728 b 256 844 253 769 254 817 b 238 858 256 856 247 860 b 65 804 188 839 122 818 b 65 769 57 797 57 776 l 81 761 b 104 703 104 749 104 736 l 104 557 b 64 478 104 493 100 483 l 44 475 b 46 435 32 469 35 439 b 174 438 88 436 131 438 b 311 435 214 438 257 436 b 313 475 322 439 325 468 l 293 478 b 253 557 257 483 253 493 z "},"":{"ha":343,"x_min":0,"x_max":0,"o":"m 97 556 b 57 478 97 493 93 482 l 35 475 b 36 435 21 468 24 442 b 164 438 81 436 119 438 b 308 435 204 438 254 436 b 310 475 321 439 322 468 l 286 478 b 246 556 250 482 246 493 l 246 935 b 249 1076 246 978 246 1040 b 229 1088 246 1085 238 1089 b 58 1040 183 1072 114 1050 b 58 1006 49 1035 49 1013 l 69 999 b 97 915 96 982 97 976 z "},"":{"ha":904,"x_min":0,"x_max":0,"o":"m 807 711 b 668 844 807 789 764 844 b 531 797 613 844 563 818 l 511 785 b 389 844 489 822 451 844 b 260 794 336 844 299 819 b 250 804 253 796 250 797 b 253 847 250 813 251 829 b 235 858 251 854 246 858 b 58 804 193 840 119 817 b 57 771 49 797 49 778 l 69 764 b 97 697 97 749 97 736 l 97 557 b 63 478 97 494 93 482 l 39 475 b 42 435 29 468 29 439 b 161 438 89 438 126 438 b 276 435 201 438 239 438 b 283 475 288 439 293 469 l 263 478 b 246 529 250 479 246 494 l 246 683 b 258 749 246 719 247 738 b 314 771 271 761 288 771 b 378 690 354 771 378 738 l 378 529 b 358 478 378 494 372 481 l 343 475 b 347 435 332 468 333 439 b 457 438 385 438 422 438 b 572 435 497 438 533 438 b 574 475 583 442 585 465 l 554 479 b 526 557 531 485 526 494 l 526 683 b 540 747 526 715 528 735 b 593 771 551 761 568 771 b 658 690 635 771 658 738 l 658 529 b 639 478 658 494 653 481 l 624 475 b 628 435 613 468 614 439 b 738 438 665 438 703 438 b 864 435 778 438 814 438 b 865 475 874 439 875 471 l 840 478 b 807 557 811 481 807 494 z "},"ⁿ":{"ha":624,"x_min":0,"x_max":0,"o":"m 246 683 b 258 749 246 719 247 738 b 313 771 271 761 288 771 b 378 690 354 771 378 738 l 378 529 b 358 478 378 494 372 481 l 343 475 b 347 435 332 468 333 439 b 457 438 385 438 422 438 b 583 435 497 438 533 438 b 585 475 593 439 594 471 l 560 478 b 526 557 531 481 526 494 l 526 711 b 388 844 526 789 483 844 b 256 794 332 844 294 819 b 246 804 249 796 246 797 b 249 847 246 813 247 829 b 231 858 247 854 242 858 b 58 804 189 840 115 817 b 57 771 49 797 49 778 l 69 764 b 97 697 97 749 97 736 l 97 557 b 63 478 97 494 93 482 l 39 475 b 42 435 29 468 29 439 b 161 438 89 438 126 438 b 276 435 201 438 239 438 b 278 475 289 439 290 469 l 263 478 b 246 529 250 481 246 494 z "},"":{"ha":561,"x_min":0,"x_max":0,"o":"m 285 844 b 47 626 158 844 47 768 b 278 428 47 497 149 428 b 515 639 410 428 515 499 b 285 844 515 764 421 844 z m 357 608 b 288 478 357 539 335 478 b 206 657 236 478 206 547 b 279 794 206 751 239 794 b 357 608 332 794 357 714 z "},"":{"ha":431,"x_min":0,"x_max":0,"o":"m 97 556 b 57 478 97 493 93 483 l 38 475 b 39 435 28 471 29 439 b 164 438 88 436 129 438 b 328 435 213 438 268 436 b 329 475 338 439 339 469 l 288 479 b 246 561 250 483 246 493 l 246 688 b 261 750 246 728 249 750 b 319 724 269 750 282 749 b 361 713 331 717 340 713 b 424 781 386 713 424 733 b 360 844 424 819 399 844 b 253 792 319 844 286 814 b 242 804 246 792 242 797 b 244 849 242 813 243 831 b 229 858 242 856 236 858 b 58 804 197 840 139 818 b 57 775 53 800 51 781 l 74 764 b 97 697 97 749 97 736 z "},"":{"ha":431,"x_min":0,"x_max":0,"o":"m 238 844 b 56 714 132 844 56 799 b 182 589 56 642 124 608 b 260 522 246 567 260 547 b 208 478 260 497 240 478 b 83 581 150 478 104 522 b 42 578 78 590 49 590 b 61 464 40 543 49 481 b 199 428 88 444 132 428 b 389 564 308 428 389 474 b 272 700 389 625 350 675 b 182 758 211 719 182 732 b 233 794 182 779 201 794 b 332 713 272 794 308 769 b 376 717 340 703 368 706 b 360 819 378 756 369 797 b 238 844 343 826 296 844 z "},"":{"ha":389,"x_min":0,"x_max":0,"o":"m 363 775 b 376 811 371 783 375 794 b 368 832 376 821 375 829 l 267 832 b 246 851 246 832 246 835 l 246 911 b 204 915 240 922 214 926 b 128 854 172 889 149 868 b 38 813 104 839 75 825 b 40 775 28 807 29 779 l 78 775 b 97 744 96 775 97 774 l 97 540 b 226 428 97 476 133 428 b 385 482 304 428 353 454 b 371 518 390 496 383 515 b 314 500 354 507 333 500 b 246 611 260 500 246 543 l 246 740 b 265 775 246 772 246 775 z "},"ﬀ":{"ha":821,"x_min":0,"x_max":0,"o":"m 82 481 b 117 442 114 481 117 479 l 117 161 b 65 44 117 61 111 50 l 43 42 b 44 -4 32 33 32 4 b 204 0 89 -1 147 0 b 365 -4 269 0 325 -1 b 367 42 378 4 378 33 l 349 44 b 297 161 303 51 297 61 l 297 442 b 333 481 292 479 304 481 l 471 481 b 506 442 503 481 506 479 l 506 161 b 464 44 506 61 500 49 l 442 42 b 443 -4 431 33 431 4 b 596 0 488 -1 536 0 b 782 -4 658 0 717 -1 b 783 42 794 4 794 33 l 738 46 b 686 161 692 50 686 61 l 686 442 b 722 481 686 479 688 481 l 846 481 b 864 528 858 489 864 510 b 854 556 864 540 861 551 l 722 556 b 686 594 688 556 686 557 l 686 751 b 744 921 686 881 708 921 b 843 829 761 921 783 906 b 899 804 853 818 869 804 b 979 879 946 804 979 833 b 817 993 979 951 897 993 b 603 911 696 993 629 942 b 440 960 565 947 494 960 b 156 779 283 960 199 872 b 117 585 125 713 117 611 b 86 549 117 567 104 558 l 26 518 b 31 481 19 511 22 486 z m 333 556 b 297 594 299 556 297 557 l 297 607 b 431 896 297 847 374 896 b 533 790 492 896 524 832 b 506 585 513 718 506 635 b 475 556 506 561 501 556 z "},"ﬃ":{"ha":1175,"x_min":0,"x_max":0,"o":"m 82 481 b 117 442 114 481 117 479 l 117 161 b 65 44 117 61 111 50 l 43 42 b 44 -4 32 33 32 4 b 204 0 89 -1 147 0 b 365 -4 269 0 325 -1 b 367 42 378 4 378 33 l 349 44 b 297 161 303 51 297 61 l 297 442 b 333 481 292 479 304 481 l 471 481 b 506 442 503 481 506 479 l 506 161 b 464 44 506 61 500 49 l 442 42 b 443 -4 431 33 431 4 b 593 0 488 -1 536 0 b 754 -4 658 0 714 -1 b 756 42 767 4 767 33 l 738 44 b 686 161 692 51 686 61 l 686 442 b 722 481 686 479 689 481 l 822 481 b 894 360 890 481 894 468 l 894 161 b 853 44 894 61 889 49 l 831 42 b 832 -4 819 33 819 4 b 985 0 876 -1 925 0 b 1147 -4 1046 0 1104 -1 b 1149 42 1160 4 1160 33 l 1126 44 b 1075 161 1081 50 1075 61 l 1075 386 b 1082 546 1075 443 1078 501 b 1058 567 1081 560 1069 567 b 829 556 1022 558 929 556 l 722 556 b 686 590 689 556 686 554 l 686 668 b 786 924 686 875 740 924 b 872 861 819 924 844 908 b 910 789 885 840 899 807 b 972 760 921 771 946 760 b 1071 850 1024 760 1071 793 b 840 993 1071 929 981 993 b 610 911 717 993 640 942 b 442 960 572 947 500 960 b 156 779 283 960 199 872 b 117 585 125 713 117 611 b 86 549 117 567 104 558 l 26 518 b 31 481 19 511 22 486 z m 333 556 b 297 594 299 556 297 557 l 297 607 b 431 896 297 847 374 896 b 533 790 492 896 524 832 b 506 585 513 718 506 635 b 475 556 506 561 501 556 z "},"ﬄ":{"ha":1175,"x_min":0,"x_max":0,"o":"m 82 481 b 117 442 114 481 117 479 l 117 161 b 65 44 117 61 111 50 l 43 42 b 44 -4 32 33 32 4 b 204 0 89 -1 147 0 b 365 -4 269 0 325 -1 b 367 42 378 4 378 33 l 349 44 b 297 161 303 51 297 61 l 297 442 b 333 481 292 479 304 481 l 471 481 b 506 442 503 481 506 479 l 506 161 b 454 47 506 64 500 53 l 432 44 b 433 -4 421 36 421 4 b 593 0 478 -1 536 0 b 754 -4 658 0 714 -1 b 756 42 767 4 767 33 l 738 44 b 686 161 692 51 686 61 l 686 442 b 722 481 686 479 688 481 l 857 481 b 894 446 890 481 894 481 l 894 161 b 853 44 894 61 889 49 l 831 42 b 832 -4 819 33 819 4 b 985 0 876 -1 925 0 b 1147 -4 1044 0 1103 -1 b 1149 44 1160 4 1160 36 l 1126 47 b 1075 161 1081 53 1075 64 l 1075 781 b 1079 983 1075 868 1076 926 b 1056 993 1074 990 1064 993 b 964 951 1026 976 997 963 b 813 993 932 974 888 993 b 603 911 707 993 631 942 b 440 960 565 947 494 960 b 156 779 283 960 199 872 b 117 585 125 713 117 611 b 86 549 117 567 104 558 l 26 518 b 31 481 19 511 22 486 z m 333 556 b 297 594 299 556 297 557 l 297 607 b 431 896 297 847 374 896 b 533 790 492 896 524 832 b 506 585 513 718 506 635 b 475 556 506 561 501 556 z m 722 556 b 686 594 688 556 686 557 l 686 626 b 801 926 686 867 747 926 b 894 814 864 926 894 857 l 894 590 b 857 556 894 556 890 556 z "},"₍":{"ha":333,"x_min":0,"x_max":0,"o":"m 50 39 b 286 -322 50 -118 136 -254 b 306 -294 297 -321 310 -308 b 185 39 246 -226 185 -115 b 306 372 185 193 246 304 b 286 400 310 386 297 399 b 50 39 136 332 50 196 z "},"₎":{"ha":333,"x_min":0,"x_max":0,"o":"m 283 39 b 47 400 283 196 197 332 b 28 372 36 399 24 386 b 149 39 88 304 149 193 b 28 -294 149 -115 88 -226 b 47 -322 24 -308 36 -321 b 283 39 197 -254 283 -118 z "},"":{"ha":389,"x_min":0,"x_max":0,"o":"m 340 671 b 340 760 360 686 360 749 l 50 760 b 50 671 29 749 29 686 z "},"₡":{"ha":851,"x_min":0,"x_max":0,"o":"m 329 165 b 254 438 281 232 254 328 b 490 828 254 692 372 807 z m 547 831 b 622 813 575 829 600 824 l 443 74 b 375 115 418 83 394 97 z m 715 964 b 658 964 704 974 669 974 l 639 881 b 561 888 615 883 590 888 l 581 964 b 524 964 569 974 535 974 l 504 886 b 208 776 394 882 289 844 b 58 435 125 707 58 592 b 300 42 58 269 129 108 l 268 -90 b 325 -90 281 -99 313 -99 l 353 22 b 426 7 378 15 401 10 l 403 -90 b 460 -90 415 -99 447 -99 l 483 3 b 517 0 493 0 506 0 b 746 43 607 0 683 28 b 804 246 763 78 789 154 b 764 251 800 260 775 261 b 519 57 726 169 644 57 b 497 60 511 57 504 57 l 671 782 b 746 651 706 751 729 707 b 788 653 754 639 775 639 b 772 851 779 729 771 832 b 692 871 757 856 731 863 z "},"":{"ha":1525,"x_min":0,"x_max":0,"o":"m 354 758 b 408 825 354 817 357 825 b 581 629 510 825 581 751 b 531 486 581 553 556 510 b 431 449 506 463 478 449 b 354 500 358 449 354 453 z m 903 43 b 854 65 883 47 868 54 b 638 404 776 126 722 232 b 639 435 632 417 629 429 b 785 643 703 465 785 519 b 674 840 785 731 746 799 b 407 889 619 871 522 889 b 88 878 269 889 176 885 b 85 832 71 876 71 839 l 113 831 b 171 668 168 828 171 810 l 171 193 b 103 44 171 63 164 50 l 71 42 b 71 -4 61 33 61 4 b 254 0 138 -1 194 0 b 456 -4 319 0 389 -1 b 456 42 465 4 465 33 l 424 44 b 354 193 363 50 354 63 l 354 354 b 400 388 354 385 357 388 b 464 346 432 388 449 378 b 581 118 499 269 529 203 b 826 -14 633 29 704 -14 b 903 -12 854 -14 878 -14 l 903 -192 b 854 -301 903 -285 899 -299 l 828 -303 b 829 -349 818 -311 818 -340 b 986 -344 876 -346 932 -344 b 1169 -349 1049 -344 1104 -346 b 1171 -303 1182 -340 1182 -311 l 1126 -300 b 1078 -192 1082 -297 1078 -285 l 1078 -53 b 1097 -14 1078 -25 1085 -17 b 1153 -18 1107 -17 1135 -18 b 1475 294 1344 -18 1475 110 b 1253 546 1475 436 1392 546 b 1088 493 1183 546 1125 514 b 1078 513 1082 494 1078 503 b 1081 556 1078 525 1078 540 b 1053 571 1075 568 1061 572 b 860 489 1013 546 918 504 b 860 449 850 481 850 457 l 878 436 b 903 353 903 419 903 406 z m 1078 360 b 1092 436 1078 411 1085 429 b 1144 456 1103 450 1122 456 b 1290 251 1226 456 1290 382 b 1168 43 1290 129 1249 42 b 1106 68 1144 43 1119 53 b 1078 142 1088 85 1078 113 z "},"":{"ha":603,"x_min":0,"x_max":0,"o":"m 317 129 b 233 299 264 158 233 221 b 367 492 233 378 265 490 z m 425 476 b 508 404 456 460 481 432 b 524 399 511 401 518 399 b 560 458 540 399 560 425 b 531 528 560 492 542 518 b 435 544 506 536 468 542 l 447 638 b 388 638 431 647 400 647 l 375 546 b 63 269 210 542 63 450 b 303 28 63 138 157 42 l 286 -90 b 346 -90 297 -104 332 -104 l 363 26 b 575 168 485 32 542 94 b 543 190 575 182 558 190 b 404 106 518 142 461 106 b 374 108 393 106 382 107 z "},"‒":{"ha":722,"x_min":0,"x_max":0,"o":"m 58 485 l 58 389 l 664 389 l 664 485 z "},"":{"ha":389,"x_min":0,"x_max":0,"o":"m 340 4 b 340 93 360 19 360 82 l 50 93 b 50 4 29 82 29 19 z "},"⅛":{"ha":1167,"x_min":0,"x_max":0,"o":"m 878 -10 b 1103 138 1032 -10 1103 57 b 990 292 1103 214 1050 260 b 1082 406 1026 307 1082 346 b 890 546 1082 497 1010 546 b 685 389 751 546 685 476 b 779 260 685 333 725 289 b 667 132 715 243 667 193 b 878 -10 667 31 761 -10 z m 842 229 b 964 106 915 204 964 163 b 889 38 964 65 933 38 b 796 136 832 38 796 83 b 842 229 796 169 813 206 z m 926 326 b 813 426 843 358 813 389 b 886 499 813 472 846 499 b 965 408 924 499 965 465 b 926 326 965 378 949 346 z m 160 478 b 118 383 160 407 161 389 l 76 378 b 79 340 68 369 69 346 b 238 343 131 342 186 343 b 397 340 290 343 346 342 b 400 378 407 346 408 369 l 358 383 b 317 478 315 389 317 407 l 317 756 b 321 878 317 801 319 854 b 304 889 319 885 314 889 b 72 819 250 860 154 831 b 72 781 61 813 61 788 l 115 775 b 160 700 156 769 160 749 z m 843 875 b 778 908 836 899 799 911 l 264 -22 b 329 -56 274 -46 304 -61 z "},"⅜":{"ha":1167,"x_min":0,"x_max":0,"o":"m 907 -10 b 1132 138 1061 -10 1132 57 b 1019 292 1132 214 1079 260 b 1111 406 1056 307 1111 346 b 919 546 1111 497 1039 546 b 714 389 781 546 714 476 b 808 260 714 333 754 289 b 696 132 744 243 696 193 b 907 -10 696 31 790 -10 z m 871 229 b 993 106 944 204 993 163 b 918 38 993 65 963 38 b 825 136 861 38 825 83 b 871 229 825 169 842 206 z m 956 326 b 842 426 872 358 842 389 b 915 499 842 472 875 499 b 994 408 953 499 994 465 b 956 326 994 378 978 346 z m 142 289 b 357 354 192 289 281 306 b 472 529 438 404 472 461 b 326 665 472 622 397 657 b 315 678 315 667 306 674 b 422 786 404 714 422 746 b 271 889 422 844 361 889 b 74 771 192 889 113 846 b 108 747 72 754 92 740 b 211 817 142 797 181 817 b 274 761 251 817 274 793 b 100 622 274 685 156 643 b 122 572 89 607 96 578 b 215 607 147 594 178 607 b 306 490 268 607 306 563 b 201 344 306 386 240 343 b 161 368 183 344 172 351 b 96 419 150 383 131 419 b 36 363 51 419 36 386 b 142 289 36 310 94 289 z m 872 875 b 807 908 865 899 828 911 l 293 -22 b 358 -56 303 -46 333 -61 z "},"⅝":{"ha":1167,"x_min":0,"x_max":0,"o":"m 886 -10 b 1111 138 1040 -10 1111 57 b 999 292 1111 214 1058 260 b 1090 406 1035 307 1090 346 b 899 546 1090 497 1018 546 b 693 389 760 546 693 476 b 788 260 693 333 733 289 b 675 132 724 243 675 193 b 886 -10 675 31 769 -10 z m 850 229 b 972 106 924 204 972 163 b 897 38 972 65 942 38 b 804 136 840 38 804 83 b 850 229 804 169 821 206 z m 935 326 b 821 426 851 358 821 389 b 894 499 821 472 854 499 b 974 408 932 499 974 465 b 935 326 974 378 957 346 z m 175 867 b 133 840 147 864 139 860 l 78 642 b 107 599 69 610 78 601 b 321 481 239 586 319 550 b 67 343 325 363 156 343 b 72 292 53 329 53 300 b 461 521 244 293 463 356 b 189 711 461 663 294 696 b 163 735 168 714 158 722 l 165 743 b 188 757 167 751 176 756 l 382 779 b 439 879 421 807 435 858 b 429 893 438 888 435 892 z m 851 875 b 786 908 844 899 807 911 l 272 -22 b 338 -56 282 -46 313 -61 z "},"⅞":{"ha":1167,"x_min":0,"x_max":0,"o":"m 889 -10 b 1114 138 1043 -10 1114 57 b 1001 292 1114 214 1061 260 b 1093 406 1038 307 1093 346 b 901 546 1093 497 1021 546 b 696 389 763 546 696 476 b 790 260 696 333 736 289 b 678 132 726 243 678 193 b 889 -10 678 31 772 -10 z m 853 229 b 975 106 926 204 975 163 b 900 38 975 65 944 38 b 807 136 843 38 807 83 b 853 229 807 169 824 206 z m 938 326 b 824 426 854 358 824 389 b 897 499 824 472 857 499 b 976 408 935 499 976 465 b 938 326 976 378 960 346 z m 210 879 b 99 882 160 879 125 881 b 54 721 93 850 79 783 b 96 713 58 710 89 700 b 188 765 114 756 142 765 l 338 765 b 364 753 354 765 364 761 b 338 689 364 736 356 718 l 115 333 b 172 299 125 307 149 292 l 433 729 b 521 867 472 793 500 829 b 514 882 521 875 519 881 b 382 879 490 879 439 879 z m 811 875 b 746 908 804 899 767 911 l 232 -22 b 297 -56 242 -46 272 -61 z "},"⅓":{"ha":1167,"x_min":0,"x_max":0,"o":"m 164 478 b 122 383 164 407 165 389 l 81 378 b 83 340 72 369 74 346 b 242 343 135 342 190 343 b 401 340 294 343 350 342 b 404 378 411 346 413 369 l 363 383 b 321 478 319 389 321 407 l 321 756 b 325 878 321 801 324 854 b 308 889 324 885 318 889 b 76 819 254 860 158 831 b 76 781 65 813 65 788 l 119 775 b 164 700 160 769 164 749 z m 851 875 b 786 908 844 899 807 911 l 272 -22 b 338 -56 282 -46 313 -61 z m 768 -54 b 983 11 818 -54 907 -37 b 1099 186 1064 61 1099 118 b 953 322 1099 279 1024 314 b 942 335 942 324 932 331 b 1049 443 1031 371 1049 403 b 897 546 1049 501 988 546 b 700 428 818 546 739 503 b 735 404 699 411 718 397 b 838 474 768 454 807 474 b 900 418 878 474 900 450 b 726 279 900 342 782 300 b 749 229 715 264 722 235 b 842 264 774 251 804 264 b 932 147 894 264 932 219 b 828 1 932 43 867 0 b 788 25 810 1 799 8 b 722 76 776 40 757 76 b 663 19 678 76 663 43 b 768 -54 663 -33 721 -54 z "},"⅔":{"ha":1167,"x_min":0,"x_max":0,"o":"m 274 343 b 432 340 356 343 394 342 b 486 489 450 368 478 443 b 454 494 479 496 465 499 b 338 447 431 450 401 447 l 251 447 b 240 471 233 447 226 458 l 275 500 l 318 532 b 454 733 426 613 454 675 b 267 889 454 822 389 889 b 51 750 182 889 99 843 b 90 726 51 728 76 717 b 203 808 118 776 157 808 b 285 713 254 808 285 769 b 181 493 285 628 231 546 b 40 367 106 417 72 392 b 50 340 38 358 40 346 b 140 343 65 342 89 343 z m 899 875 b 833 908 892 899 854 911 l 319 -22 b 385 -56 329 -46 360 -61 z m 799 -54 b 1014 11 849 -54 938 -37 b 1129 186 1094 61 1129 118 b 983 322 1129 279 1054 314 b 972 335 972 324 963 331 b 1079 443 1061 371 1079 403 b 928 546 1079 501 1018 546 b 731 428 849 546 769 503 b 765 404 729 411 749 397 b 868 474 799 454 838 474 b 931 418 908 474 931 450 b 757 279 931 342 813 300 b 779 229 746 264 753 235 b 872 264 804 251 835 264 b 963 147 925 264 963 219 b 858 1 963 43 897 0 b 818 25 840 1 829 8 b 753 76 807 40 788 76 b 693 19 708 76 693 43 b 799 -54 693 -33 751 -54 z "},"⁰":{"ha":556,"x_min":0,"x_max":0,"o":"m 278 990 b 49 713 118 990 49 844 b 278 435 49 576 118 435 b 508 713 439 435 508 578 b 278 990 508 844 439 990 z m 278 943 b 351 713 340 943 351 789 b 278 482 351 639 340 482 b 206 713 217 482 206 639 b 278 943 206 789 217 943 z "},"⁴":{"ha":556,"x_min":0,"x_max":0,"o":"m 278 550 b 221 481 278 492 278 483 l 193 479 b 196 442 185 472 185 447 b 343 444 236 443 290 444 b 499 442 396 444 444 443 b 500 479 510 449 510 472 l 482 481 b 432 550 435 485 432 496 l 432 569 b 453 594 432 593 433 594 l 514 594 b 514 647 529 603 529 642 l 453 647 b 432 671 433 647 432 650 l 432 817 b 417 831 432 825 428 831 b 303 806 401 831 331 814 b 278 775 289 801 278 794 l 278 671 b 257 647 278 650 276 647 l 156 647 b 135 663 131 647 128 654 l 407 1006 b 403 1036 421 1024 418 1036 l 363 1036 b 335 1019 350 1036 343 1029 l 35 626 b 44 594 32 614 35 600 l 257 594 b 278 569 276 594 278 593 z "},"⁵":{"ha":556,"x_min":0,"x_max":0,"o":"m 188 968 b 146 942 160 965 151 961 l 90 743 b 119 700 82 711 90 703 b 333 582 251 688 332 651 b 79 444 338 464 168 444 b 85 393 65 431 65 401 b 474 622 257 394 475 457 b 201 813 474 764 307 797 b 175 836 181 815 171 824 l 178 844 b 200 858 179 853 189 857 l 394 881 b 451 981 433 908 447 960 b 442 994 450 989 447 993 z "},"⁶":{"ha":556,"x_min":0,"x_max":0,"o":"m 218 665 b 283 876 218 746 238 822 b 483 985 331 931 386 963 b 482 1022 493 992 493 1015 b 168 911 349 1022 233 972 b 54 667 96 844 54 763 b 285 435 54 526 132 435 b 510 625 421 435 510 510 b 344 788 510 708 451 788 b 246 751 304 788 263 768 b 251 724 243 739 243 733 b 290 722 267 725 279 725 b 363 571 336 711 363 642 b 304 482 363 531 350 482 b 218 665 247 482 218 571 z "},"⁷":{"ha":556,"x_min":0,"x_max":0,"o":"m 200 981 b 89 983 150 981 115 982 b 44 822 83 951 69 885 b 86 814 49 811 79 801 b 178 867 104 857 132 867 l 328 867 b 354 854 344 867 354 863 b 328 790 354 838 346 819 l 106 435 b 163 400 115 408 139 393 l 424 831 b 511 968 463 894 490 931 b 504 983 511 976 510 982 b 372 981 481 981 429 981 z "},"⁸":{"ha":556,"x_min":0,"x_max":0,"o":"m 271 435 b 496 582 425 435 496 501 b 383 736 496 658 443 704 b 475 850 419 751 475 790 b 283 990 475 942 403 990 b 78 833 144 990 78 921 b 172 704 78 778 118 733 b 60 576 108 688 60 638 b 271 435 60 475 154 435 z m 235 674 b 357 550 308 649 357 607 b 282 482 357 510 326 482 b 189 581 225 482 189 528 b 235 674 189 614 206 650 z m 319 771 b 206 871 236 803 206 833 b 279 943 206 917 239 943 b 358 853 317 943 358 910 b 319 771 358 822 342 790 z "},"⁹":{"ha":556,"x_min":0,"x_max":0,"o":"m 210 639 b 301 669 244 639 285 657 b 294 699 307 678 304 694 l 275 699 b 196 840 226 707 196 782 b 263 943 196 899 219 943 b 338 763 315 943 338 854 b 75 436 338 606 249 481 b 82 393 61 428 67 397 b 501 764 290 408 501 535 b 267 990 501 890 425 990 b 49 792 143 990 49 913 b 210 639 49 697 118 639 z "},"₀":{"ha":556,"x_min":0,"x_max":0,"o":"m 278 317 b 49 39 118 317 49 171 b 278 -239 49 -97 118 -239 b 508 39 439 -239 508 -96 b 278 317 508 171 439 317 z m 278 269 b 351 39 340 269 351 115 b 278 -192 351 -35 340 -192 b 206 39 217 -192 206 -35 b 278 269 206 115 217 269 z "},"₁":{"ha":556,"x_min":0,"x_max":0,"o":"m 208 -94 b 167 -189 208 -165 210 -183 l 125 -194 b 128 -232 117 -203 118 -226 b 286 -229 179 -231 235 -229 b 446 -232 339 -229 394 -231 b 449 -194 456 -226 457 -203 l 407 -189 b 365 -94 364 -183 365 -165 l 365 183 b 369 306 365 229 368 282 b 353 317 368 313 363 317 b 121 247 299 288 203 258 b 121 208 110 240 110 215 l 164 203 b 208 128 204 197 208 176 z "},"₂":{"ha":556,"x_min":0,"x_max":0,"o":"m 292 -229 b 450 -232 374 -229 413 -231 b 504 -83 468 -204 496 -129 b 472 -78 497 -76 483 -74 b 356 -125 449 -122 419 -125 l 269 -125 b 258 -101 251 -125 244 -114 l 293 -72 l 336 -40 b 472 161 444 40 472 103 b 285 317 472 250 407 317 b 69 178 200 317 117 271 b 108 154 69 156 94 144 b 221 236 136 204 175 236 b 303 140 272 236 303 197 b 199 -79 303 56 249 -26 b 58 -206 124 -156 90 -181 b 68 -232 56 -214 58 -226 b 158 -229 83 -231 107 -229 z "},"₃":{"ha":556,"x_min":0,"x_max":0,"o":"m 161 -283 b 376 -218 211 -283 300 -267 b 492 -43 457 -168 492 -111 b 346 93 492 50 417 85 b 335 106 335 94 325 101 b 442 214 424 142 442 174 b 290 317 442 272 381 317 b 93 199 211 317 132 274 b 128 175 92 182 111 168 b 231 244 161 225 200 244 b 293 189 271 244 293 221 b 119 50 293 113 175 71 b 142 0 108 35 115 6 b 235 35 167 22 197 35 b 325 -82 288 35 325 -10 b 221 -228 325 -186 260 -229 b 181 -204 203 -228 192 -221 b 115 -153 169 -189 150 -153 b 56 -210 71 -153 56 -186 b 161 -283 56 -262 114 -283 z "},"₄":{"ha":556,"x_min":0,"x_max":0,"o":"m 278 -124 b 221 -193 278 -182 278 -190 l 193 -194 b 196 -232 185 -201 185 -226 b 343 -229 236 -231 290 -229 b 499 -232 396 -229 444 -231 b 500 -194 510 -225 510 -201 l 482 -193 b 432 -124 435 -189 432 -178 l 432 -104 b 453 -79 432 -81 433 -79 l 514 -79 b 514 -26 529 -71 529 -32 l 453 -26 b 432 -3 433 -26 432 -24 l 432 143 b 417 157 432 151 428 157 b 303 132 401 157 331 140 b 278 101 289 128 278 121 l 278 -3 b 257 -26 278 -24 276 -26 l 156 -26 b 135 -11 131 -26 128 -19 l 407 332 b 403 363 421 350 418 363 l 363 363 b 335 346 350 363 343 356 l 35 -47 b 44 -79 32 -60 35 -74 l 257 -79 b 278 -104 276 -79 278 -81 z "},"₅":{"ha":556,"x_min":0,"x_max":0,"o":"m 188 294 b 146 268 160 292 151 288 l 90 69 b 119 26 82 38 90 29 b 333 -92 251 14 332 -22 b 79 -229 338 -210 168 -229 b 85 -281 65 -243 65 -272 b 474 -51 257 -279 475 -217 b 201 139 474 90 307 124 b 175 163 181 142 171 150 l 178 171 b 200 185 179 179 189 183 l 394 207 b 451 307 433 235 447 286 b 442 321 450 315 447 319 z "},"₆":{"ha":556,"x_min":0,"x_max":0,"o":"m 218 -8 b 283 203 218 72 238 149 b 483 311 331 257 386 289 b 482 349 493 318 493 342 b 168 238 349 349 233 299 b 54 -7 96 171 54 89 b 285 -239 54 -147 132 -239 b 510 -49 421 -239 510 -164 b 344 114 510 35 451 114 b 246 78 304 114 263 94 b 251 50 243 65 243 60 b 290 49 267 51 279 51 b 363 -103 336 38 363 -32 b 304 -192 363 -143 350 -192 b 218 -8 247 -192 218 -103 z "},"₇":{"ha":556,"x_min":0,"x_max":0,"o":"m 200 307 b 89 310 150 307 115 308 b 44 149 83 278 69 211 b 86 140 49 138 79 128 b 178 193 104 183 132 193 l 328 193 b 354 181 344 193 354 189 b 328 117 354 164 346 146 l 106 -239 b 163 -274 115 -265 139 -281 l 424 157 b 511 294 463 221 490 257 b 504 310 511 303 510 308 b 372 307 481 307 429 307 z "},"₈":{"ha":556,"x_min":0,"x_max":0,"o":"m 271 -239 b 496 -92 425 -239 496 -172 b 383 63 496 -15 443 31 b 475 176 419 78 475 117 b 283 317 475 268 403 317 b 78 160 144 317 78 247 b 172 31 78 104 118 60 b 60 -97 108 14 60 -36 b 271 -239 60 -199 154 -239 z m 235 0 b 357 -124 308 -25 357 -67 b 282 -192 357 -164 326 -192 b 189 -93 225 -192 189 -146 b 235 0 189 -60 206 -24 z m 319 97 b 206 197 236 129 206 160 b 279 269 206 243 239 269 b 358 179 317 269 358 236 b 319 97 358 149 342 117 z "},"₉":{"ha":556,"x_min":0,"x_max":0,"o":"m 210 -35 b 301 -4 244 -35 285 -17 b 294 25 307 4 304 21 l 275 25 b 196 167 226 33 196 108 b 263 269 196 225 219 269 b 338 89 315 269 338 181 b 75 -237 338 -68 249 -193 b 82 -281 61 -246 67 -276 b 501 90 290 -265 501 -139 b 267 317 501 217 425 317 b 49 118 143 317 49 239 b 210 -35 49 24 118 -35 z "},"":{"ha":556,"x_min":0,"x_max":0,"o":"m 289 -103 b 213 57 240 -75 213 -19 b 335 231 213 129 244 231 b 344 229 339 231 343 231 z m 396 211 b 397 214 396 213 396 214 b 467 149 424 196 444 169 b 482 144 469 147 476 144 b 515 200 497 144 515 169 b 488 264 515 231 499 256 b 407 279 467 271 436 276 l 422 368 b 368 368 411 381 378 381 l 353 282 b 53 25 199 281 53 196 b 272 -200 53 -96 139 -185 l 254 -308 b 307 -308 263 -324 297 -324 l 325 -201 b 532 -74 432 -199 499 -139 b 501 -51 532 -60 517 -50 b 374 -125 479 -92 426 -125 b 339 -121 361 -125 350 -124 z "},"":{"ha":556,"x_min":0,"x_max":0,"o":"m 299 -18 b 374 -101 336 -32 374 -56 b 274 -176 374 -146 336 -176 z m 268 129 b 189 196 221 143 189 165 b 289 265 189 233 217 264 z m 342 257 b 439 156 406 236 433 179 b 479 157 449 143 474 144 b 463 296 481 226 472 274 b 351 314 422 300 392 311 l 361 382 b 307 382 354 394 314 394 l 297 317 b 71 153 151 313 71 253 b 247 -3 71 72 143 25 l 221 -171 b 93 -33 147 -150 106 -85 b 50 -39 81 -21 56 -25 b 82 -186 50 -97 61 -158 b 213 -225 97 -200 151 -219 l 199 -315 b 251 -315 206 -325 244 -325 l 265 -229 b 506 -61 414 -226 506 -167 b 329 110 506 26 431 81 l 319 113 z "},"":{"ha":278,"x_min":0,"x_max":0,"o":"m 139 -239 b 229 -147 193 -239 229 -200 b 139 -54 229 -97 193 -54 b 49 -147 88 -54 49 -93 b 139 -239 49 -204 93 -239 z "},"":{"ha":278,"x_min":0,"x_max":0,"o":"m 246 -185 b 124 -33 246 -75 175 -33 b 39 -108 76 -33 39 -67 b 75 -162 39 -136 56 -157 b 143 -239 104 -172 143 -187 b 39 -354 143 -297 83 -337 b 51 -392 25 -362 31 -389 b 246 -185 153 -368 246 -301 z "},"":{"ha":528,"x_min":0,"x_max":0,"o":"m 247 -62 b 171 -132 206 -62 171 -93 b 204 -181 171 -156 185 -175 b 265 -250 231 -187 265 -207 b 171 -349 265 -297 210 -335 b 182 -394 158 -357 163 -393 b 364 -200 281 -374 364 -314 b 247 -62 364 -101 293 -62 z "},"Ă":{"ha":867,"x_min":0,"x_max":0,"o":"m 450 314 b 517 289 499 314 510 311 l 554 169 b 581 75 571 118 581 85 b 543 51 581 67 575 57 l 499 44 b 501 -4 483 33 486 4 b 689 0 565 -1 619 0 b 903 -4 761 0 836 -1 b 904 44 915 4 913 38 l 851 53 b 758 176 800 61 788 93 l 569 721 b 507 911 535 819 518 871 b 475 939 501 932 493 939 b 354 856 472 939 421 871 b 300 679 358 815 332 767 l 175 340 b 89 118 138 240 113 174 b 4 49 65 64 38 53 l -33 44 b -29 -4 -43 33 -44 4 b 114 0 35 -4 67 0 b 276 -4 172 -1 228 -1 b 279 44 290 3 288 35 l 238 51 b 188 75 199 58 188 67 b 197 125 188 86 189 97 l 249 286 b 294 314 257 313 261 314 z m 322 388 b 293 429 288 388 281 392 l 328 533 b 385 686 349 597 371 656 b 435 540 397 657 415 600 l 471 428 b 443 388 482 392 475 388 z m 433 1000 b 619 1199 560 1000 626 1074 b 579 1199 608 1204 589 1204 b 433 1104 564 1138 500 1104 b 288 1199 367 1104 303 1138 b 247 1199 278 1204 258 1204 b 433 1000 240 1074 307 1000 z "},"Ā":{"ha":867,"x_min":0,"x_max":0,"o":"m 450 314 b 517 289 499 314 510 311 l 554 169 b 581 75 571 118 581 85 b 543 51 581 67 575 57 l 499 44 b 501 -4 483 33 486 4 b 689 0 565 -1 619 0 b 903 -4 761 0 836 -1 b 904 44 915 4 913 38 l 851 53 b 758 176 800 61 788 93 l 569 721 b 507 911 535 819 518 871 b 475 939 501 932 493 939 b 354 856 472 939 421 871 b 300 679 358 815 332 767 l 175 340 b 89 118 138 240 113 174 b 4 49 65 64 38 53 l -33 44 b -29 -4 -43 33 -44 4 b 114 0 35 -4 67 0 b 276 -4 172 -1 228 -1 b 279 44 290 3 288 35 l 238 51 b 188 75 199 58 188 67 b 197 125 188 86 189 97 l 249 286 b 294 314 257 313 261 314 z m 322 388 b 293 429 288 388 281 392 l 328 533 b 385 686 349 597 371 656 b 435 540 397 657 415 600 l 471 428 b 443 388 482 392 475 388 z m 608 1007 b 608 1111 626 1029 626 1089 l 257 1111 b 257 1007 240 1089 240 1029 z "},"Ą":{"ha":867,"x_min":0,"x_max":0,"o":"m 322 388 b 293 429 288 388 281 392 l 328 533 b 385 686 349 597 371 656 b 435 540 397 657 415 600 l 471 428 b 443 388 482 392 475 388 z m 450 314 b 517 289 499 314 510 311 l 554 169 b 581 75 571 118 581 85 b 543 51 581 67 575 57 l 499 44 b 501 -4 483 33 486 4 b 656 0 522 -4 585 0 b 565 -189 601 -62 565 -125 b 707 -317 565 -260 615 -317 b 858 -242 764 -317 821 -286 b 846 -217 858 -229 854 -221 b 783 -229 826 -226 801 -229 b 678 -128 728 -229 678 -193 b 717 0 678 -90 693 -42 b 903 -4 761 0 836 -1 b 904 44 915 4 913 38 l 851 53 b 758 176 800 61 788 93 l 569 721 b 507 911 535 819 518 871 b 475 939 501 932 493 939 b 354 856 472 939 421 871 b 300 679 358 815 332 767 l 175 340 b 89 118 138 240 113 174 b 4 49 65 64 38 53 l -33 44 b -29 -4 -43 33 -44 4 b 114 0 35 -4 67 0 b 276 -4 172 -1 228 -1 b 279 44 290 3 288 35 l 238 51 b 188 75 199 58 188 67 b 197 125 188 86 189 97 l 249 286 b 294 314 257 313 261 314 z "},"Ć":{"ha":957,"x_min":0,"x_max":0,"o":"m 608 939 b 224 815 464 939 322 897 b 56 447 128 736 56 617 b 232 83 56 275 132 160 b 606 -22 331 10 469 -22 b 888 29 714 -22 813 8 b 940 247 907 61 931 144 b 888 257 932 264 899 268 b 604 42 850 163 772 42 b 278 467 438 42 278 190 b 597 875 278 743 443 875 b 858 676 732 875 821 806 b 911 686 868 664 906 669 b 894 903 899 767 894 878 b 608 939 853 906 750 939 z m 489 1015 b 504 981 485 1000 493 985 l 776 1069 b 821 1104 804 1078 818 1093 b 807 1164 824 1114 824 1135 b 760 1207 790 1196 774 1207 b 714 1183 750 1207 736 1200 z "},"Č":{"ha":957,"x_min":0,"x_max":0,"o":"m 608 939 b 224 815 464 939 322 897 b 56 447 128 736 56 617 b 232 83 56 275 132 160 b 606 -22 331 10 469 -22 b 888 29 714 -22 813 8 b 940 247 907 61 931 144 b 888 257 932 264 899 268 b 604 42 850 163 772 42 b 278 467 438 42 278 190 b 597 875 278 743 443 875 b 858 676 732 875 821 806 b 911 686 868 664 906 669 b 894 903 899 767 894 878 b 608 939 853 906 750 939 z m 367 1196 b 350 1160 357 1194 347 1176 l 528 997 b 589 997 547 979 568 979 l 768 1160 b 750 1196 771 1176 763 1196 l 583 1115 b 535 1115 564 1106 553 1107 z "},"Ď":{"ha":1101,"x_min":0,"x_max":0,"o":"m 158 200 b 88 51 158 72 150 61 l 44 44 b 44 -4 33 38 33 4 b 261 0 124 -1 194 0 b 446 -8 311 0 381 -8 b 797 57 589 -8 703 10 b 1046 472 957 136 1046 286 b 764 875 1046 646 946 810 b 440 921 668 910 554 921 b 68 908 293 921 185 915 b 65 860 51 907 51 867 l 92 857 b 158 692 156 850 158 824 z m 357 758 b 367 839 357 801 358 828 b 439 857 375 850 401 857 b 822 458 690 857 822 708 b 500 56 822 269 740 56 b 385 96 450 56 410 68 b 357 251 360 125 357 175 z m 328 1196 b 311 1160 318 1194 308 1176 l 489 997 b 550 997 508 979 529 979 l 729 1160 b 711 1196 732 1176 724 1196 l 544 1115 b 496 1115 525 1106 514 1107 z "},"Đ":{"ha":1115,"x_min":0,"x_max":0,"o":"m 167 200 b 96 51 167 72 158 61 l 53 44 b 53 -4 42 38 42 4 b 269 0 132 -1 203 0 b 454 -8 319 0 389 -8 b 806 57 597 -8 711 10 b 1054 472 965 136 1054 286 b 772 875 1054 646 954 810 b 449 921 676 910 563 921 b 76 908 301 921 193 915 b 74 860 60 907 60 867 l 100 857 b 167 692 164 850 167 824 l 167 514 l 50 514 b 50 440 36 493 36 457 l 167 440 z m 365 758 b 375 839 365 801 367 828 b 447 857 383 850 410 857 b 831 458 699 857 831 708 b 508 56 831 269 749 56 b 393 96 458 56 418 68 b 365 251 368 125 365 175 l 365 440 l 551 440 b 551 514 565 457 567 499 l 365 514 z "},"Ě":{"ha":824,"x_min":0,"x_max":0,"o":"m 357 799 b 403 853 357 850 357 853 l 514 853 b 650 810 582 853 624 836 b 703 700 668 790 688 749 b 754 706 717 688 749 690 b 736 921 747 799 738 899 b 550 917 718 918 639 917 l 256 917 b 56 921 189 917 121 918 b 53 872 42 913 40 881 l 88 865 b 158 718 150 853 158 844 l 158 200 b 88 54 158 72 150 64 l 22 44 b 22 -4 11 38 11 4 b 261 0 126 -1 194 0 l 442 0 b 763 -4 556 0 689 -1 b 821 218 782 33 815 146 b 769 225 815 235 781 240 b 525 64 693 68 646 64 b 379 100 424 64 397 75 b 357 232 363 124 357 168 l 357 397 b 396 440 357 439 358 440 l 492 440 b 594 363 564 440 581 429 l 601 328 b 653 329 611 315 646 317 b 649 476 650 374 649 424 b 653 624 649 529 650 579 b 601 625 646 636 611 636 l 594 590 b 492 514 581 524 564 514 l 396 514 b 357 556 358 514 357 517 z m 217 1196 b 200 1160 207 1194 197 1176 l 378 997 b 439 997 397 979 418 979 l 618 1160 b 600 1196 621 1176 613 1196 l 433 1125 b 385 1126 414 1117 403 1119 z "},"Ė":{"ha":824,"x_min":0,"x_max":0,"o":"m 357 799 b 403 853 357 850 357 853 l 514 853 b 650 810 582 853 624 836 b 703 700 668 790 688 749 b 754 706 717 688 749 690 b 736 921 747 799 738 899 b 550 917 718 918 639 917 l 256 917 b 56 921 189 917 121 918 b 53 872 42 913 40 881 l 88 865 b 158 718 150 853 158 844 l 158 200 b 88 54 158 72 150 64 l 22 44 b 22 -4 11 38 11 4 b 261 0 126 -1 194 0 l 442 0 b 763 -4 556 0 689 -1 b 821 218 782 33 815 146 b 769 225 815 235 781 240 b 525 64 693 68 646 64 b 379 100 424 64 397 75 b 357 232 363 124 357 168 l 357 397 b 396 440 357 439 358 440 l 492 440 b 594 363 564 440 581 429 l 601 328 b 653 329 611 315 646 317 b 649 476 650 374 649 424 b 653 624 649 529 650 579 b 601 625 646 636 611 636 l 594 590 b 492 514 581 524 564 514 l 396 514 b 357 556 358 514 357 517 z m 414 989 b 501 1082 464 989 501 1025 b 414 1167 501 1126 464 1167 b 322 1074 363 1167 322 1128 b 414 989 324 1018 364 989 z "},"Ē":{"ha":824,"x_min":0,"x_max":0,"o":"m 357 799 b 403 853 357 850 357 853 l 514 853 b 650 810 582 853 624 836 b 703 700 668 790 688 749 b 754 706 717 688 749 690 b 736 921 747 799 738 899 b 550 917 718 918 639 917 l 256 917 b 56 921 189 917 121 918 b 53 872 42 913 40 881 l 88 865 b 158 718 150 853 158 844 l 158 200 b 88 54 158 72 150 64 l 22 44 b 22 -4 11 38 11 4 b 261 0 126 -1 194 0 l 442 0 b 763 -4 556 0 689 -1 b 821 218 782 33 815 146 b 769 225 815 235 781 240 b 525 64 693 68 646 64 b 379 100 424 64 397 75 b 357 232 363 124 357 168 l 357 397 b 396 440 357 439 358 440 l 492 440 b 594 363 564 440 581 429 l 601 328 b 653 329 611 315 646 317 b 649 476 650 374 649 424 b 653 624 649 529 650 579 b 601 625 646 636 611 636 l 594 590 b 492 514 581 524 564 514 l 396 514 b 357 556 358 514 357 517 z m 588 1007 b 588 1111 606 1029 606 1089 l 236 1111 b 236 1007 219 1089 219 1029 z "},"Ę":{"ha":824,"x_min":0,"x_max":0,"o":"m 158 200 b 88 54 158 72 150 64 l 22 44 b 22 -4 11 38 11 4 b 261 0 126 -1 194 0 l 442 0 b 617 -1 499 0 561 0 b 672 -3 639 -1 660 -1 b 518 -211 571 -82 518 -147 b 643 -324 518 -264 546 -324 b 788 -256 692 -324 749 -304 b 775 -231 788 -244 783 -233 b 706 -250 750 -244 731 -250 b 638 -176 667 -250 638 -218 b 738 -4 638 -125 668 -65 l 763 -4 b 821 218 782 33 815 146 b 769 225 815 235 781 240 b 525 64 693 68 646 64 b 379 100 424 64 397 75 b 357 232 363 124 357 168 l 357 397 b 396 440 357 439 358 440 l 492 440 b 594 363 564 440 581 429 l 601 328 b 653 329 611 315 646 317 b 649 476 650 374 649 424 b 653 624 649 529 650 579 b 601 625 646 636 611 636 l 594 590 b 492 514 581 524 564 514 l 396 514 b 357 556 358 514 357 517 l 357 799 b 403 853 357 850 357 853 l 514 853 b 650 810 582 853 624 836 b 703 700 668 790 688 749 b 754 706 717 688 749 690 b 736 921 747 799 738 899 b 550 917 718 918 639 917 l 256 917 b 156 918 222 917 189 917 b 56 921 122 918 89 919 b 53 872 42 913 40 881 l 88 865 b 158 718 150 853 158 844 z "},"Ğ":{"ha":1019,"x_min":0,"x_max":0,"o":"m 921 235 b 971 331 921 310 929 324 l 1003 336 b 1003 385 1014 344 1014 376 b 821 381 956 382 888 381 b 586 385 753 381 685 382 b 586 336 571 376 571 344 l 647 328 b 722 235 714 318 722 310 l 722 147 b 626 42 722 57 706 42 b 436 94 575 42 503 50 b 278 472 346 156 278 274 b 606 875 278 692 385 875 b 867 679 735 875 822 810 b 919 682 876 665 914 667 b 900 906 906 767 904 864 b 625 939 856 906 779 939 b 300 865 507 939 394 917 b 56 446 133 772 56 619 b 329 26 56 246 167 92 b 603 -22 428 -12 508 -22 b 849 11 681 -22 800 -4 b 946 32 886 24 922 28 b 950 65 954 36 956 60 b 921 157 924 71 921 99 z m 579 1000 b 765 1199 706 1000 772 1074 b 725 1199 754 1204 735 1204 b 579 1099 710 1138 646 1099 b 433 1199 513 1099 449 1138 b 393 1199 424 1204 404 1204 b 579 1000 386 1074 453 1000 z "},"Ģ":{"ha":1019,"x_min":0,"x_max":0,"o":"m 921 235 b 971 331 921 310 929 324 l 1003 336 b 1003 385 1014 344 1014 376 b 821 381 956 382 888 381 b 586 385 753 381 685 382 b 586 336 571 376 571 344 l 647 328 b 722 235 714 318 722 310 l 722 147 b 626 42 722 57 706 42 b 436 94 575 42 503 50 b 278 472 346 156 278 274 b 606 875 278 692 385 875 b 867 679 735 875 822 810 b 919 682 876 665 914 667 b 900 906 906 767 904 864 b 625 939 856 906 779 939 b 300 865 507 939 394 917 b 56 446 133 772 56 619 b 329 26 56 246 167 92 b 603 -22 428 -12 508 -22 b 849 11 681 -22 800 -4 b 946 32 886 24 922 28 b 950 65 954 36 956 60 b 921 157 924 71 921 99 z m 561 -76 b 482 -147 518 -76 482 -108 b 517 -201 482 -178 499 -196 b 581 -268 544 -208 581 -226 b 482 -374 581 -315 524 -358 b 494 -419 471 -382 475 -418 b 683 -218 599 -399 683 -336 b 561 -76 683 -115 617 -76 z "},"Ī":{"ha":515,"x_min":0,"x_max":0,"o":"m 357 714 b 429 865 357 844 365 854 l 468 872 b 468 921 479 881 479 913 b 258 917 393 918 324 917 b 47 921 192 917 122 918 b 47 872 36 913 36 881 l 86 865 b 158 714 150 854 158 844 l 158 203 b 86 51 158 72 150 63 l 47 44 b 47 -4 36 36 36 4 b 258 0 122 -1 192 0 b 467 -4 324 0 392 -1 b 468 44 478 4 479 36 l 429 51 b 357 203 365 63 357 72 z m 433 1007 b 433 1104 451 1029 451 1082 l 82 1104 b 82 1007 65 1082 65 1029 z "},"Į":{"ha":515,"x_min":0,"x_max":0,"o":"m 158 203 b 86 51 158 72 150 63 l 47 44 b 47 -4 36 36 36 4 b 222 0 110 -1 168 0 b 132 -189 168 -62 132 -125 b 274 -317 132 -260 182 -317 b 425 -242 331 -317 388 -286 b 413 -217 425 -229 421 -221 b 350 -229 393 -226 368 -229 b 244 -128 294 -229 244 -193 b 283 0 244 -90 260 -42 b 467 -4 331 0 396 -1 b 468 44 478 4 479 36 l 429 51 b 357 203 365 63 357 72 l 357 714 b 429 865 357 844 365 854 l 468 872 b 468 921 479 881 479 913 b 258 917 393 918 324 917 b 47 921 192 917 122 918 b 47 872 36 913 36 881 l 86 865 b 158 714 150 854 158 844 z "},"Ķ":{"ha":993,"x_min":0,"x_max":0,"o":"m 357 717 b 428 867 357 846 365 858 l 467 872 b 467 921 479 881 479 913 b 257 917 393 918 324 917 b 49 921 188 917 118 918 b 49 872 33 913 33 881 l 88 867 b 158 717 150 858 158 846 l 158 200 b 88 50 158 71 150 58 l 49 44 b 49 -4 38 36 38 4 b 257 0 122 -1 194 0 b 467 -4 324 0 393 -1 b 467 44 478 4 478 35 l 428 50 b 357 200 365 58 357 71 l 357 346 b 390 440 357 421 358 440 b 494 331 421 440 444 407 l 568 218 b 649 94 582 197 640 107 b 660 67 657 82 660 72 b 636 53 660 61 651 57 l 601 44 b 604 -4 586 36 586 1 b 822 0 682 -1 751 0 b 1022 -4 886 0 953 -1 b 1026 44 1035 3 1035 32 l 982 51 b 879 117 943 57 917 67 b 633 479 785 242 703 375 b 583 565 592 542 583 558 b 601 597 583 571 588 582 l 665 669 b 871 847 756 772 815 825 b 990 872 900 860 942 867 b 983 921 1001 883 1000 915 b 815 917 928 918 867 917 b 643 921 765 917 714 918 b 638 872 625 915 622 882 l 669 867 b 693 849 688 864 693 854 b 675 813 693 843 688 831 b 489 576 631 747 563 665 b 382 496 467 549 411 496 b 357 547 365 496 357 501 z m 482 -76 b 403 -147 439 -76 403 -108 b 438 -201 403 -178 419 -196 b 501 -268 465 -208 501 -226 b 403 -374 501 -315 444 -358 b 415 -419 392 -382 396 -418 b 604 -218 519 -399 604 -336 b 482 -76 604 -115 538 -76 z "},"Ĺ":{"ha":813,"x_min":0,"x_max":0,"o":"m 357 717 b 428 867 357 846 365 857 l 464 872 b 464 921 475 881 475 913 b 258 917 394 918 325 917 b 50 921 192 917 122 918 b 47 872 33 913 33 881 l 88 867 b 158 717 150 858 158 846 l 158 200 b 88 51 158 71 150 60 l 35 44 b 39 -4 24 36 26 4 b 258 0 125 -1 194 0 l 444 0 b 765 -4 558 0 692 -1 b 825 221 785 33 818 149 b 772 229 815 238 783 243 b 525 64 690 68 651 64 b 381 99 424 64 399 75 b 357 231 363 121 357 165 z m 250 1015 b 265 981 246 1000 254 985 l 538 1069 b 582 1104 565 1078 579 1093 b 568 1164 585 1114 585 1135 b 521 1207 551 1196 535 1207 b 475 1183 511 1207 497 1200 z "},"Ľ":{"ha":813,"x_min":0,"x_max":0,"o":"m 357 717 b 428 867 357 846 365 857 l 464 872 b 464 921 475 881 475 913 b 258 917 394 918 325 917 b 50 921 192 917 122 918 b 47 872 33 913 33 881 l 88 867 b 158 717 150 858 158 846 l 158 200 b 88 51 158 71 150 60 l 35 44 b 39 -4 24 36 26 4 b 258 0 125 -1 194 0 l 444 0 b 765 -4 558 0 692 -1 b 825 221 785 33 818 149 b 772 229 815 238 783 243 b 525 64 690 68 651 64 b 381 99 424 64 399 75 b 357 231 363 121 357 165 z m 619 972 b 536 894 574 972 536 938 b 572 840 536 867 553 846 b 639 765 601 832 639 815 b 536 646 639 707 579 665 b 549 600 522 638 528 603 b 739 819 649 624 739 697 b 619 972 739 929 669 972 z "},"Ļ":{"ha":813,"x_min":0,"x_max":0,"o":"m 357 717 b 428 867 357 846 365 857 l 464 872 b 464 921 475 881 475 913 b 258 917 394 918 325 917 b 50 921 192 917 122 918 b 47 872 33 913 33 881 l 88 867 b 158 717 150 858 158 846 l 158 200 b 88 51 158 71 150 60 l 35 44 b 39 -4 24 36 26 4 b 258 0 125 -1 194 0 l 444 0 b 765 -4 558 0 692 -1 b 825 221 785 33 818 149 b 772 229 815 238 783 243 b 525 64 690 68 651 64 b 381 99 424 64 399 75 b 357 231 363 121 357 165 z m 413 -76 b 333 -147 369 -76 333 -108 b 368 -201 333 -178 350 -196 b 432 -268 396 -208 432 -226 b 333 -374 432 -315 375 -358 b 346 -419 322 -382 326 -418 b 535 -218 450 -399 535 -336 b 413 -76 535 -115 468 -76 z "},"Ń":{"ha":1039,"x_min":0,"x_max":0,"o":"m 906 568 b 926 822 906 681 911 785 b 1001 868 939 851 965 863 l 1026 872 b 1026 921 1038 883 1035 913 b 871 917 972 918 922 917 b 685 921 814 917 760 918 b 685 872 676 913 674 883 l 722 867 b 803 822 760 861 790 851 b 824 568 818 785 824 681 l 824 376 b 818 314 824 351 824 328 b 685 467 786 346 746 394 l 568 604 b 339 921 443 753 353 858 b 222 917 310 918 269 917 b 31 921 165 917 96 918 b 25 872 17 917 15 883 l 64 867 b 143 819 113 860 132 843 b 153 701 151 800 153 778 l 153 349 b 133 94 153 236 149 132 b 57 49 122 65 94 56 l 33 44 b 33 -4 22 33 25 4 b 189 0 86 -1 138 0 b 375 -4 244 0 300 -1 b 375 44 383 4 386 33 l 336 50 b 256 94 300 56 268 65 b 235 349 240 132 235 236 l 235 618 b 242 707 235 669 235 693 b 393 529 267 686 313 628 l 714 132 b 826 -19 779 51 825 -19 b 908 13 860 -19 899 -4 b 906 236 906 58 906 146 z m 446 1015 b 461 981 442 1000 450 985 l 733 1069 b 778 1104 761 1078 775 1093 b 764 1164 781 1114 781 1135 b 717 1207 747 1196 731 1207 b 671 1183 707 1207 693 1200 z "},"Ň":{"ha":1039,"x_min":0,"x_max":0,"o":"m 906 568 b 926 822 906 681 911 785 b 1001 868 939 851 965 863 l 1026 872 b 1026 921 1038 883 1035 913 b 871 917 972 918 922 917 b 685 921 814 917 760 918 b 685 872 676 913 674 883 l 722 867 b 803 822 760 861 790 851 b 824 568 818 785 824 681 l 824 376 b 818 314 824 351 824 328 b 685 467 786 346 746 394 l 568 604 b 339 921 443 753 353 858 b 222 917 310 918 269 917 b 31 921 165 917 96 918 b 25 872 17 917 15 883 l 64 867 b 143 819 113 860 132 843 b 153 701 151 800 153 778 l 153 349 b 133 94 153 236 149 132 b 57 49 122 65 94 56 l 33 44 b 33 -4 22 33 25 4 b 189 0 86 -1 138 0 b 375 -4 244 0 300 -1 b 375 44 383 4 386 33 l 336 50 b 256 94 300 56 268 65 b 235 349 240 132 235 236 l 235 618 b 242 707 235 669 235 693 b 393 529 267 686 313 628 l 714 132 b 826 -19 779 51 825 -19 b 908 13 860 -19 899 -4 b 906 236 906 58 906 146 z m 324 1196 b 307 1160 314 1194 304 1176 l 485 997 b 546 997 504 979 525 979 l 725 1160 b 707 1196 728 1176 719 1196 l 540 1125 b 492 1126 521 1117 510 1119 z "},"Ņ":{"ha":1039,"x_min":0,"x_max":0,"o":"m 906 568 b 926 822 906 681 911 785 b 1001 868 939 851 965 863 l 1026 872 b 1026 921 1038 883 1035 913 b 871 917 972 918 922 917 b 685 921 814 917 760 918 b 685 872 676 913 674 883 l 722 867 b 803 822 760 861 790 851 b 824 568 818 785 824 681 l 824 376 b 818 314 824 351 824 328 b 685 467 786 346 746 394 l 568 604 b 339 921 443 753 353 858 b 222 917 310 918 269 917 b 31 921 165 917 96 918 b 25 872 17 917 15 883 l 64 867 b 143 819 113 860 132 843 b 153 701 151 800 153 778 l 153 349 b 133 94 153 236 149 132 b 57 49 122 65 94 56 l 33 44 b 33 -4 22 33 25 4 b 189 0 86 -1 138 0 b 375 -4 244 0 300 -1 b 375 44 383 4 386 33 l 336 50 b 256 94 300 56 268 65 b 235 349 240 132 235 236 l 235 618 b 242 707 235 669 235 693 b 393 529 267 686 313 628 l 714 132 b 826 -19 779 51 825 -19 b 908 13 860 -19 899 -4 b 906 236 906 58 906 146 z m 504 -76 b 425 -147 461 -76 425 -108 b 460 -201 425 -178 442 -196 b 524 -268 488 -208 524 -226 b 425 -374 524 -315 467 -358 b 438 -419 414 -382 418 -418 b 626 -218 542 -399 626 -336 b 504 -76 626 -115 560 -76 z "},"Ő":{"ha":1094,"x_min":0,"x_max":0,"o":"m 551 939 b 56 451 261 939 56 726 b 538 -22 56 161 258 -22 b 1039 463 836 -22 1039 160 b 551 939 1039 744 840 939 z m 817 444 b 564 42 817 219 746 42 b 278 483 338 42 278 314 b 540 875 278 715 369 875 b 817 444 713 875 817 682 z m 613 1008 b 646 981 615 994 635 981 l 793 1088 b 838 1138 819 1107 838 1124 b 804 1196 838 1154 833 1168 b 751 1222 785 1213 765 1222 b 714 1194 735 1222 724 1208 z m 374 1008 b 407 981 376 994 396 981 l 554 1088 b 600 1138 581 1107 600 1124 b 569 1193 600 1154 592 1174 b 513 1222 546 1214 528 1222 b 475 1194 497 1222 485 1208 z "},"Ō":{"ha":1094,"x_min":0,"x_max":0,"o":"m 551 939 b 56 451 261 939 56 726 b 538 -22 56 161 258 -22 b 1039 463 836 -22 1039 160 b 551 939 1039 744 840 939 z m 817 444 b 564 42 817 219 746 42 b 278 483 338 42 278 314 b 540 875 278 715 369 875 b 817 444 713 875 817 682 z m 722 1007 b 722 1111 740 1029 740 1089 l 371 1111 b 371 1007 354 1089 354 1029 z "},"Ŕ":{"ha":922,"x_min":0,"x_max":0,"o":"m 158 200 b 88 51 158 72 150 63 l 50 44 b 50 -4 39 38 39 4 b 253 0 122 -1 183 0 b 457 -4 319 0 383 -1 b 457 44 467 4 467 38 l 419 51 b 349 200 357 63 349 72 l 349 371 b 400 401 349 399 351 401 b 474 353 435 401 457 390 b 582 138 506 279 538 211 b 851 -8 643 38 724 -8 b 961 4 894 -8 939 -6 b 956 40 968 13 968 33 b 863 79 935 42 899 50 b 647 426 796 136 739 240 b 654 457 640 442 640 450 b 801 665 718 489 801 542 b 679 871 801 754 760 824 b 407 921 626 903 525 921 b 63 908 275 921 167 915 b 60 860 46 901 46 867 l 97 854 b 158 692 156 846 158 831 z m 349 786 b 408 857 349 853 351 857 b 590 651 517 857 590 776 b 540 501 590 569 564 525 b 435 463 514 475 485 463 b 349 515 353 463 349 467 z m 360 1015 b 375 981 356 1000 364 985 l 647 1069 b 692 1104 675 1078 689 1093 b 678 1164 694 1114 694 1135 b 631 1207 661 1196 644 1207 b 585 1183 621 1207 607 1200 z "},"Ř":{"ha":922,"x_min":0,"x_max":0,"o":"m 158 200 b 88 51 158 72 150 63 l 50 44 b 50 -4 39 38 39 4 b 253 0 122 -1 183 0 b 457 -4 319 0 383 -1 b 457 44 467 4 467 38 l 419 51 b 349 200 357 63 349 72 l 349 371 b 400 401 349 399 351 401 b 474 353 435 401 457 390 b 582 138 506 279 538 211 b 851 -8 643 38 724 -8 b 961 4 894 -8 939 -6 b 956 40 968 13 968 33 b 863 79 935 42 899 50 b 647 426 796 136 739 240 b 654 457 640 442 640 450 b 801 665 718 489 801 542 b 679 871 801 754 760 824 b 407 921 626 903 525 921 b 63 908 275 921 167 915 b 60 860 46 901 46 867 l 97 854 b 158 692 156 846 158 831 z m 349 786 b 408 857 349 853 351 857 b 590 651 517 857 590 776 b 540 501 590 569 564 525 b 435 463 514 475 485 463 b 349 515 353 463 349 467 z m 228 1196 b 210 1160 217 1194 207 1176 l 397 997 b 461 997 417 979 439 978 l 649 1160 b 631 1196 651 1176 643 1196 l 456 1121 b 404 1121 435 1111 422 1113 z "},"Ŗ":{"ha":922,"x_min":0,"x_max":0,"o":"m 158 200 b 88 51 158 72 150 63 l 50 44 b 50 -4 39 38 39 4 b 253 0 122 -1 183 0 b 457 -4 319 0 383 -1 b 457 44 467 4 467 38 l 419 51 b 349 200 357 63 349 72 l 349 371 b 400 401 349 399 351 401 b 474 353 435 401 457 390 b 582 138 506 279 538 211 b 851 -8 643 38 724 -8 b 961 4 894 -8 939 -6 b 956 40 968 13 968 33 b 863 79 935 42 899 50 b 647 426 796 136 739 240 b 654 457 640 442 640 450 b 801 665 718 489 801 542 b 679 871 801 754 760 824 b 407 921 626 903 525 921 b 63 908 275 921 167 915 b 60 860 46 901 46 867 l 97 854 b 158 692 156 846 158 831 z m 349 786 b 408 857 349 853 351 857 b 590 651 517 857 590 776 b 540 501 590 569 564 525 b 435 463 514 475 485 463 b 349 515 353 463 349 467 z m 457 -76 b 378 -147 414 -76 378 -108 b 413 -201 378 -178 394 -196 b 476 -268 440 -208 476 -226 b 378 -374 476 -315 419 -358 b 390 -419 367 -382 371 -418 b 579 -218 494 -399 579 -336 b 457 -76 579 -115 513 -76 z "},"Ś":{"ha":703,"x_min":0,"x_max":0,"o":"m 663 260 b 467 539 663 413 553 493 l 375 588 b 249 746 306 624 249 682 b 390 875 249 815 299 875 b 574 703 490 875 550 774 b 628 707 586 689 621 690 b 603 906 628 800 614 875 b 556 917 586 908 574 911 b 397 939 500 933 443 939 b 75 674 196 939 74 831 b 285 403 75 536 185 453 b 474 182 368 361 474 294 b 324 42 474 113 426 42 b 85 260 206 42 113 169 b 32 256 74 275 42 274 b 76 31 32 161 50 61 b 313 -22 106 14 185 -22 b 663 260 522 -22 663 89 z m 264 1015 b 279 981 260 1000 268 985 l 551 1069 b 596 1104 579 1078 593 1093 b 582 1164 599 1114 599 1135 b 535 1207 565 1196 549 1207 b 489 1183 525 1207 511 1200 z "},"Ş":{"ha":703,"x_min":0,"x_max":0,"o":"m 257 -133 l 261 -143 b 356 -233 306 -161 356 -193 b 324 -264 356 -253 338 -264 b 238 -218 296 -264 274 -218 b 199 -260 214 -218 199 -237 b 294 -315 199 -294 235 -315 b 454 -199 376 -315 454 -267 b 378 -92 454 -149 424 -117 b 367 -65 358 -82 356 -78 l 404 -14 b 663 260 563 14 663 117 b 467 539 663 413 553 493 l 375 588 b 249 746 306 624 249 682 b 390 875 249 815 299 875 b 574 703 490 875 550 774 b 628 707 586 689 621 690 b 603 906 628 800 614 875 b 556 917 586 908 574 911 b 397 939 500 933 443 939 b 75 674 196 939 74 831 b 285 403 75 536 185 453 b 474 182 368 361 474 294 b 324 42 474 113 426 42 b 85 260 206 42 113 169 b 32 256 74 275 42 274 b 76 31 32 161 50 61 b 313 -22 106 14 185 -22 b 333 -21 321 -22 328 -22 z "},"Ș":{"ha":703,"x_min":0,"x_max":0,"o":"m 663 260 b 467 539 663 413 553 493 l 375 588 b 249 746 306 624 249 682 b 390 875 249 815 299 875 b 574 703 490 875 550 774 b 628 707 586 689 621 690 b 603 906 628 800 614 875 b 556 917 586 908 574 911 b 397 939 500 933 443 939 b 75 674 196 939 74 831 b 285 403 75 536 185 453 b 474 182 368 361 474 294 b 324 42 474 113 426 42 b 85 260 206 42 113 169 b 32 256 74 275 42 274 b 76 31 32 161 50 61 b 313 -22 106 14 185 -22 b 663 260 522 -22 663 89 z m 322 -76 b 243 -147 279 -76 243 -108 b 278 -201 243 -178 260 -196 b 342 -268 306 -208 342 -226 b 243 -374 342 -315 285 -358 b 256 -419 232 -382 236 -418 b 444 -218 360 -399 444 -336 b 322 -76 444 -115 378 -76 z "},"Ť":{"ha":896,"x_min":0,"x_max":0,"o":"m 354 200 b 283 51 354 71 346 58 l 221 44 b 221 -4 210 36 210 4 b 457 0 318 -1 390 0 b 679 -4 519 0 589 -1 b 679 44 689 4 689 36 l 624 51 b 553 200 561 60 553 71 l 553 813 b 590 853 553 849 557 853 l 674 853 b 821 699 778 853 797 788 b 872 703 828 688 865 690 b 893 942 869 782 879 894 b 872 951 890 946 881 951 b 854 947 864 951 860 950 b 729 917 842 918 821 917 l 213 917 b 96 946 107 917 103 922 b 76 951 90 950 83 951 b 57 944 69 951 63 949 b 11 708 47 890 40 804 b 63 696 19 690 46 688 b 235 853 104 797 133 853 l 321 853 b 354 813 354 853 354 846 z m 260 1196 b 243 1160 250 1194 240 1176 l 421 997 b 482 997 440 979 461 979 l 661 1160 b 643 1196 664 1176 656 1196 l 476 1125 b 428 1126 457 1117 446 1119 z "},"Ţ":{"ha":896,"x_min":0,"x_max":0,"o":"m 354 200 b 283 51 354 71 346 58 l 221 44 b 221 -4 210 36 210 4 b 457 0 318 -1 390 0 b 679 -4 519 0 589 -1 b 679 44 689 4 689 36 l 624 51 b 553 200 561 60 553 71 l 553 813 b 590 853 553 849 557 853 l 674 853 b 821 699 778 853 797 788 b 872 703 828 688 865 690 b 893 942 869 782 879 894 b 872 951 890 946 881 951 b 854 947 864 951 860 950 b 729 917 842 918 821 917 l 213 917 b 96 946 107 917 103 922 b 76 951 90 950 83 951 b 57 944 69 951 63 949 b 11 708 47 890 40 804 b 63 696 19 690 46 688 b 235 853 104 797 133 853 l 321 853 b 354 813 354 853 354 846 z m 433 -76 b 354 -147 390 -76 354 -108 b 389 -201 354 -178 371 -196 b 453 -268 417 -208 453 -226 b 354 -374 453 -315 396 -358 b 367 -419 343 -382 347 -418 b 556 -218 471 -399 556 -336 b 433 -76 556 -115 489 -76 z "},"Ű":{"ha":1028,"x_min":0,"x_max":0,"o":"m 151 369 b 254 56 151 218 182 115 b 529 -22 329 -6 424 -22 b 804 78 642 -22 743 13 b 893 413 881 163 893 282 l 893 568 b 914 822 893 681 899 786 b 989 868 926 851 953 860 l 1014 874 b 1014 921 1025 885 1022 913 b 858 917 961 918 910 917 b 672 921 801 917 747 918 b 672 874 664 913 661 885 l 710 867 b 790 822 747 860 778 851 b 811 568 806 786 811 681 l 811 400 b 579 54 811 210 757 54 b 350 396 368 54 350 233 l 350 717 b 421 868 350 846 358 857 l 454 874 b 454 921 465 882 465 913 b 251 917 388 918 319 917 b 49 921 185 917 115 918 b 46 874 33 913 35 882 l 81 867 b 151 717 143 854 151 846 z m 607 1008 b 640 981 610 994 629 981 l 788 1088 b 832 1138 814 1107 832 1124 b 799 1196 832 1154 828 1168 b 746 1222 779 1213 760 1222 b 708 1194 729 1222 718 1208 z m 368 1008 b 401 981 371 994 390 981 l 549 1088 b 594 1138 575 1107 594 1124 b 564 1193 594 1154 586 1174 b 507 1222 540 1214 522 1222 b 469 1194 492 1222 479 1208 z "},"Ū":{"ha":1028,"x_min":0,"x_max":0,"o":"m 151 369 b 254 56 151 218 182 115 b 529 -22 329 -6 424 -22 b 804 78 642 -22 743 13 b 893 413 881 163 893 282 l 893 568 b 914 822 893 681 899 786 b 989 868 926 851 953 860 l 1014 874 b 1014 921 1025 885 1022 913 b 858 917 961 918 910 917 b 672 921 801 917 747 918 b 672 874 664 913 661 885 l 710 867 b 790 822 747 860 778 851 b 811 568 806 786 811 681 l 811 400 b 579 54 811 210 757 54 b 350 396 368 54 350 233 l 350 717 b 421 868 350 846 358 857 l 454 874 b 454 921 465 882 465 913 b 251 917 388 918 319 917 b 49 921 185 917 115 918 b 46 874 33 913 35 882 l 81 867 b 151 717 143 854 151 846 z m 714 1007 b 714 1111 732 1029 732 1096 l 363 1111 b 363 1007 346 1089 346 1029 z "},"Ų":{"ha":1028,"x_min":0,"x_max":0,"o":"m 151 369 b 254 56 151 218 182 115 b 529 -22 329 -6 424 -22 b 556 -19 539 -22 547 -22 b 424 -218 471 -87 424 -153 b 542 -331 424 -271 451 -331 b 688 -262 597 -331 656 -306 b 675 -237 688 -251 683 -240 b 613 -250 657 -244 638 -250 b 544 -176 574 -250 544 -218 b 640 -8 544 -126 574 -62 b 804 78 707 4 764 35 b 893 413 881 163 893 282 l 893 568 b 914 822 893 681 899 786 b 989 868 926 851 953 860 l 1014 874 b 1014 921 1025 885 1022 913 b 858 917 961 918 910 917 b 672 921 801 917 747 918 b 672 874 664 913 661 885 l 710 867 b 790 822 747 860 778 851 b 811 568 806 786 811 681 l 811 400 b 579 54 811 210 757 54 b 350 396 368 54 350 233 l 350 717 b 421 868 350 846 358 857 l 454 874 b 454 921 465 882 465 913 b 251 917 388 918 319 917 b 49 921 185 917 115 918 b 46 874 33 913 35 882 l 81 867 b 151 717 143 854 151 846 z "},"Ů":{"ha":1028,"x_min":0,"x_max":0,"o":"m 151 369 b 254 56 151 218 182 115 b 529 -22 329 -6 424 -22 b 804 78 642 -22 743 13 b 893 413 881 163 893 282 l 893 568 b 914 822 893 681 899 786 b 989 868 926 851 953 860 l 1014 874 b 1014 921 1025 885 1022 913 b 858 917 961 918 910 917 b 672 921 801 917 747 918 b 672 874 664 913 661 885 l 710 867 b 790 822 747 860 778 851 b 811 568 806 786 811 681 l 811 400 b 579 54 811 210 757 54 b 350 396 368 54 350 233 l 350 717 b 421 868 350 846 358 857 l 454 874 b 454 921 465 882 465 913 b 251 917 388 918 319 917 b 49 921 185 917 115 918 b 46 874 33 913 35 882 l 81 867 b 151 717 143 854 151 846 z m 553 957 b 696 1094 642 957 696 1025 b 553 1231 696 1164 642 1231 b 410 1094 464 1231 410 1164 b 553 957 410 1025 464 957 z m 553 1010 b 490 1094 513 1010 490 1049 b 553 1182 490 1140 513 1179 b 615 1094 593 1179 615 1140 b 553 1010 615 1049 593 1010 z "},"Ź":{"ha":853,"x_min":0,"x_max":0,"o":"m 500 853 b 547 844 535 853 547 850 b 533 811 547 836 543 829 b 417 622 508 765 442 661 l 143 206 b 15 19 101 143 36 43 b 26 -4 13 11 17 0 b 167 0 49 -1 93 0 l 517 0 b 807 -4 614 0 690 -1 b 868 229 829 31 860 153 b 814 239 858 244 831 250 b 554 64 738 82 690 64 l 425 64 b 297 82 313 64 297 71 b 472 368 297 99 332 150 l 624 603 b 832 900 733 772 810 876 b 824 921 833 908 831 917 b 661 917 800 918 757 917 l 264 917 b 146 950 161 917 154 922 b 110 949 135 954 115 954 b 56 703 96 875 82 800 b 113 693 64 688 94 682 b 350 853 160 810 189 853 z m 351 1017 b 368 981 347 1001 357 985 l 654 1074 b 700 1110 683 1083 697 1099 b 686 1174 704 1121 704 1143 b 636 1218 668 1207 651 1218 b 589 1193 626 1218 613 1210 z "},"Ż":{"ha":853,"x_min":0,"x_max":0,"o":"m 500 853 b 547 844 535 853 547 850 b 533 811 547 836 543 829 b 417 622 508 765 442 661 l 143 206 b 15 19 101 143 36 43 b 26 -4 13 11 17 0 b 167 0 49 -1 93 0 l 517 0 b 807 -4 614 0 690 -1 b 868 229 829 31 860 153 b 814 239 858 244 831 250 b 554 64 738 82 690 64 l 425 64 b 297 82 313 64 297 71 b 472 368 297 99 332 150 l 624 603 b 832 900 733 772 810 876 b 824 921 833 908 831 917 b 661 917 800 918 757 917 l 264 917 b 146 950 161 917 154 922 b 110 949 135 954 115 954 b 56 703 96 875 82 800 b 113 693 64 688 94 682 b 350 853 160 810 189 853 z m 469 989 b 557 1082 519 989 557 1025 b 469 1167 557 1126 519 1167 b 378 1074 418 1167 378 1128 b 469 989 379 1018 419 989 z "},"İ":{"ha":515,"x_min":0,"x_max":0,"o":"m 357 714 b 429 865 357 844 365 854 l 468 872 b 468 921 479 881 479 913 b 258 917 393 918 324 917 b 47 921 192 917 122 918 b 47 872 36 913 36 881 l 86 865 b 158 714 150 854 158 844 l 158 203 b 86 51 158 72 150 63 l 47 44 b 47 -4 36 36 36 4 b 258 0 122 -1 192 0 b 467 -4 324 0 392 -1 b 468 44 478 4 479 36 l 429 51 b 357 203 365 63 357 72 z m 260 989 b 347 1082 310 989 347 1025 b 260 1167 347 1126 310 1167 b 168 1074 208 1167 168 1128 b 260 989 169 1018 210 989 z "},"ă":{"ha":615,"x_min":0,"x_max":0,"o":"m 525 374 b 347 575 532 517 464 575 b 114 490 249 575 161 528 b 47 383 81 464 47 419 b 79 349 47 364 56 349 b 179 381 104 349 158 365 b 203 425 192 390 200 403 b 275 504 213 485 242 504 b 356 385 335 504 356 438 b 353 338 356 368 354 353 b 319 310 351 326 344 317 b 189 271 281 299 242 288 b 44 126 88 240 44 197 b 200 -19 44 29 119 -19 b 318 25 251 -19 293 7 b 347 40 332 35 340 40 b 369 29 354 40 360 38 b 486 -19 407 -3 438 -19 b 647 56 565 -19 631 33 b 631 88 651 68 643 85 b 578 71 608 75 594 71 b 515 190 550 71 510 96 z m 346 139 b 293 71 344 96 336 71 b 222 154 254 71 222 110 b 339 251 222 219 276 243 b 349 226 349 253 350 249 z m 308 664 b 485 889 428 664 490 746 b 442 889 475 896 450 896 b 308 774 426 817 372 774 b 175 889 244 774 190 817 b 132 889 167 896 142 896 b 308 664 126 746 189 664 z "},"ā":{"ha":615,"x_min":0,"x_max":0,"o":"m 525 374 b 347 575 532 517 464 575 b 114 490 249 575 161 528 b 47 383 81 464 47 419 b 79 349 47 364 56 349 b 179 381 104 349 158 365 b 203 425 192 390 200 403 b 275 504 213 485 242 504 b 356 385 335 504 356 438 b 353 338 356 368 354 353 b 319 310 351 326 344 317 b 189 271 281 299 242 288 b 44 126 88 240 44 197 b 200 -19 44 29 119 -19 b 318 25 251 -19 293 7 b 347 40 332 35 340 40 b 369 29 354 40 360 38 b 486 -19 407 -3 438 -19 b 647 56 565 -19 631 33 b 631 88 651 68 643 85 b 578 71 608 75 594 71 b 515 190 550 71 510 96 z m 346 139 b 293 71 344 96 336 71 b 222 154 254 71 222 110 b 339 251 222 219 276 243 b 349 226 349 253 350 249 z m 483 689 b 483 789 501 711 501 774 l 132 789 b 132 689 115 767 115 711 z "},"ą":{"ha":615,"x_min":0,"x_max":0,"o":"m 346 139 b 293 71 344 96 336 71 b 222 154 254 71 222 110 b 339 251 222 219 276 243 b 349 226 349 253 350 249 z m 347 575 b 114 490 249 575 161 528 b 47 383 81 464 47 419 b 79 349 47 364 56 349 b 179 381 104 349 158 365 b 203 425 192 390 200 403 b 275 504 213 485 242 504 b 356 385 335 504 356 438 b 353 338 356 368 354 353 b 319 310 351 326 344 317 b 189 271 281 299 242 288 b 44 126 88 240 44 197 b 200 -19 44 29 119 -19 b 318 25 251 -19 293 7 b 347 40 332 35 340 40 b 367 26 354 40 360 38 b 465 -19 389 -4 439 -19 b 485 -18 471 -19 476 -19 b 515 -10 493 -17 504 -14 b 367 -229 406 -100 367 -169 b 506 -354 367 -287 399 -354 b 653 -278 560 -354 617 -332 b 639 -251 653 -267 649 -254 b 569 -272 618 -267 597 -272 b 486 -190 518 -272 486 -237 b 610 19 486 -129 525 -57 b 647 56 626 33 640 47 b 631 88 651 68 643 85 b 578 71 608 75 594 71 b 515 190 550 71 510 96 l 525 374 b 347 575 532 517 464 575 z "},"ć":{"ha":578,"x_min":0,"x_max":0,"o":"m 390 575 b 43 261 203 575 43 458 b 338 -19 43 97 163 -19 b 583 129 469 -19 553 60 b 547 160 583 151 564 161 b 424 92 517 108 475 92 b 225 313 296 92 225 203 b 364 511 225 408 274 511 b 507 407 414 511 468 463 b 529 400 510 403 522 400 b 565 479 546 400 565 438 b 536 551 565 517 554 536 b 390 575 499 565 438 575 z m 296 646 b 331 624 299 629 311 621 l 526 817 b 557 868 544 835 557 853 b 519 918 557 883 544 899 b 465 940 496 935 481 940 b 422 899 451 940 438 931 z "},"č":{"ha":578,"x_min":0,"x_max":0,"o":"m 390 575 b 43 261 203 575 43 458 b 338 -19 43 97 163 -19 b 583 129 469 -19 553 60 b 547 160 583 151 564 161 b 424 92 517 108 475 92 b 225 313 296 92 225 203 b 364 511 225 408 274 511 b 507 407 414 511 468 463 b 529 400 510 403 522 400 b 565 479 546 400 565 438 b 536 551 565 517 554 536 b 390 575 499 565 438 575 z m 528 913 b 489 938 521 929 503 936 l 378 808 b 349 783 363 792 353 783 b 321 810 344 783 336 792 l 210 938 b 169 913 194 936 176 929 l 317 647 b 349 629 325 632 332 629 b 381 647 365 629 372 632 z "},"ď":{"ha":746,"x_min":0,"x_max":0,"o":"m 647 781 b 651 983 647 868 649 926 b 628 993 646 990 638 993 b 415 915 560 963 475 929 b 415 874 406 907 404 882 l 439 860 b 467 772 467 843 467 828 l 467 594 b 453 568 467 583 463 572 b 374 575 438 572 404 575 b 43 254 190 575 43 450 b 308 -19 43 104 150 -19 b 458 40 360 -19 410 10 b 471 29 464 44 469 40 l 467 -14 b 490 -33 469 -25 481 -33 b 740 17 494 -33 603 8 b 739 76 754 29 754 64 b 679 65 715 68 704 65 b 647 228 653 65 647 97 z m 467 143 b 450 90 467 118 465 100 b 393 74 432 79 413 74 b 238 292 279 74 238 200 b 378 511 238 438 307 511 b 457 460 410 511 440 489 b 467 413 463 449 467 435 z m 796 993 b 721 919 756 993 721 960 b 754 868 721 893 735 874 b 801 794 774 860 801 840 b 721 688 801 743 753 703 b 732 646 708 679 713 649 b 897 856 815 668 897 739 b 796 993 897 953 840 993 z "},"đ":{"ha":746,"x_min":0,"x_max":0,"o":"m 467 143 b 450 90 467 118 465 100 b 393 74 432 79 413 74 b 238 292 279 74 238 200 b 378 511 238 438 307 511 b 457 460 410 511 440 489 b 467 413 463 449 467 435 z m 739 781 l 647 781 b 651 983 647 868 649 926 b 628 993 646 990 638 993 b 415 915 560 963 475 929 b 415 874 406 907 404 882 l 439 860 b 467 781 465 844 467 831 l 336 781 l 336 708 l 467 708 l 467 594 b 453 568 467 583 463 572 b 374 575 438 572 404 575 b 43 254 190 575 43 450 b 308 -19 43 104 150 -19 b 458 40 360 -19 410 10 b 471 29 464 44 469 40 l 467 -14 b 490 -33 469 -25 481 -33 b 740 17 494 -33 603 8 b 739 76 754 29 754 64 b 679 65 715 68 704 65 b 647 228 653 65 647 97 l 647 708 l 739 708 z "}}}
